<svg width="20" height="20" viewBox="0 0 20 20" fill="none" xmlns="http://www.w3.org/2000/svg">
<path d="M17.5526 0H2.44692C1.07665 0 0 1.10927 0 2.44692V17.5526C0 18.9229 1.10927 19.9995 2.44692 19.9995H17.5526C18.9229 19.9995 19.9995 18.8903 19.9995 17.5526V2.44692C20.0321 1.07665 18.9229 0 17.5526 0ZM19.3144 17.5526C19.3144 18.5314 18.5314 19.3144 17.5526 19.3144H2.44692C1.46815 19.3144 0.68513 18.5314 0.68513 17.5526V2.44692C0.68513 1.46815 1.46815 0.68514 2.44692 0.68514H17.5526C18.5314 0.68514 19.3144 1.46815 19.3144 2.44692V17.5526Z" fill="url(#paint0_radial)"/>
<path d="M17.552 0.685059H2.44636C1.46759 0.685059 0.68457 1.46807 0.68457 2.44684V17.5525C0.68457 18.5313 1.46759 19.3143 2.44636 19.3143H17.552C18.5308 19.3143 19.3138 18.5313 19.3138 17.5525V2.44684C19.3138 1.46807 18.5308 0.685059 17.552 0.685059Z" fill="url(#paint1_radial)"/>
<path d="M17.5525 0.326172H2.44684C1.27232 0.326172 0.326172 1.27232 0.326172 2.44684V17.5525C0.326172 18.727 1.27232 19.6732 2.44684 19.6732H17.5525C18.727 19.6732 19.6732 18.727 19.6732 17.5525V2.44684C19.6732 1.27232 18.727 0.326172 17.5525 0.326172ZM19.3143 17.5525C19.3143 18.5313 18.5313 19.3143 17.5525 19.3143H2.44684C1.46807 19.3143 0.685046 18.5313 0.685046 17.5525V2.44684C0.685046 1.46807 1.46807 0.685056 2.44684 0.685056H17.5525C18.5313 0.685056 19.3143 1.46807 19.3143 2.44684V17.5525Z" fill="url(#paint2_radial)"/>
<path d="M17.552 0.685059H2.44636C1.46759 0.685059 0.68457 1.46807 0.68457 2.44684V17.5525C0.68457 18.5313 1.46759 19.3143 2.44636 19.3143H17.552C18.5308 19.3143 19.3138 18.5313 19.3138 17.5525V2.44684C19.3138 1.46807 18.5308 0.685059 17.552 0.685059Z" fill="url(#paint3_radial)"/>
<path d="M17.5525 0.326172H2.44684C1.27232 0.326172 0.326172 1.27232 0.326172 2.44684V17.5525C0.326172 18.727 1.27232 19.6732 2.44684 19.6732H17.5525C18.727 19.6732 19.6732 18.727 19.6732 17.5525V2.44684C19.6732 1.27232 18.727 0.326172 17.5525 0.326172ZM19.3143 17.5525C19.3143 18.5313 18.5313 19.3143 17.5525 19.3143H2.44684C1.46807 19.3143 0.685046 18.5313 0.685046 17.5525V2.44684C0.685046 1.46807 1.46807 0.685056 2.44684 0.685056H17.5525C18.5313 0.685056 19.3143 1.46807 19.3143 2.44684V17.5525Z" fill="white"/>
<path d="M17.552 0.685059H2.44636C1.46759 0.685059 0.68457 1.46807 0.68457 2.44684V17.5525C0.68457 18.5313 1.46759 19.3143 2.44636 19.3143H17.552C18.5308 19.3143 19.3138 18.5313 19.3138 17.5525V2.44684C19.3138 1.46807 18.5308 0.685059 17.552 0.685059Z" fill="white"/>
<path d="M17.552 0.685059H2.44636C1.46759 0.685059 0.68457 1.46807 0.68457 2.44684V17.5525C0.68457 18.5313 1.46759 19.3143 2.44636 19.3143H17.552C18.5308 19.3143 19.3138 18.5313 19.3138 17.5525V2.44684C19.3138 1.46807 18.5308 0.685059 17.552 0.685059Z" fill="url(#paint4_radial)"/>
<path d="M19.3138 9.49398V2.44684C19.3138 1.46807 18.5308 0.685059 17.552 0.685059H2.44636C1.46759 0.685059 0.68457 1.46807 0.68457 2.44684V7.66694C5.18691 6.88393 12.3646 7.30806 19.3138 9.49398Z" fill="url(#paint5_radial)"/>
<path d="M0.683594 2.44815L2.11913 0.718994C1.30349 0.882122 0.683594 1.59988 0.683594 2.44815Z" fill="url(#paint6_radial)"/>
<path d="M3.19675 0.685547L0.68457 3.71974V4.568L3.88189 0.685547H3.19675Z" fill="url(#paint7_radial)"/>
<path d="M4.9259 0.685547L0.68457 5.8404V6.68866L5.61104 0.685547H4.9259Z" fill="url(#paint8_radial)"/>
<path d="M6.65507 0.685547L0.68457 7.96107V8.80933L7.34021 0.685547H6.65507Z" fill="url(#paint9_radial)"/>
<path d="M8.38422 0.685547L0.68457 10.0817V10.93L9.10199 0.685547H8.38422Z" fill="url(#paint10_radial)"/>
<path d="M10.146 0.685547L0.68457 12.235V13.0833L10.8311 0.685547H10.146Z" fill="url(#paint11_radial)"/>
<path d="M11.8752 0.685547L0.68457 14.3557V15.204L12.5603 0.685547H11.8752Z" fill="url(#paint12_radial)"/>
<path d="M13.6043 0.685547L0.68457 16.4764V17.3246L14.3221 0.685547H13.6043Z" fill="url(#paint13_radial)"/>
<path d="M15.3647 0.685059L0.878906 18.3355C0.976783 18.4987 1.07466 18.6618 1.20516 18.7923L16.0498 0.685059H15.3647Z" fill="url(#paint14_radial)"/>
<path d="M17.5509 0.685059H17.0942L1.89062 19.2164C2.05375 19.2817 2.24951 19.3143 2.44526 19.3143H2.54314L17.7793 0.717686C17.7141 0.685061 17.6488 0.685059 17.5509 0.685059Z" fill="url(#paint15_radial)"/>
<path d="M18.5625 1.01123L3.55469 19.3142H4.23983L18.9214 1.37011C18.8561 1.23961 18.7256 1.10911 18.5625 1.01123Z" fill="url(#paint16_radial)"/>
<path d="M19.3128 2.44672C19.3128 2.38147 19.3128 2.31623 19.3128 2.25098L5.31641 19.3142H6.00155L19.3128 3.06662V2.44672Z" fill="url(#paint17_radial)"/>
<path d="M19.3131 4.33911L7.0459 19.3143H7.76367L19.3131 5.18738V4.33911Z" fill="url(#paint18_radial)"/>
<path d="M19.3125 6.45972L8.77441 19.3142H9.49217L19.3125 7.30799V6.45972Z" fill="url(#paint19_radial)"/>
<path d="M19.3124 8.58057L10.5361 19.3144H11.2213L19.3124 9.42884V8.58057Z" fill="url(#paint20_radial)"/>
<path d="M19.3137 10.7012L12.2666 19.3143H12.9517L19.3137 11.5494V10.7012Z" fill="url(#paint21_radial)"/>
<path d="M19.3131 12.8218L13.9951 19.3143H14.7129L19.3131 13.67V12.8218Z" fill="url(#paint22_radial)"/>
<path d="M19.313 14.9424L15.7568 19.3142H16.442L19.313 15.7907V14.9424Z" fill="url(#paint23_radial)"/>
<path d="M19.3134 17.5526V17.0632L17.4863 19.3144H17.5516C17.8126 19.3144 18.0736 19.2491 18.302 19.1513L19.2481 18.0094C19.2807 17.8462 19.3134 17.7157 19.3134 17.5526Z" fill="url(#paint24_radial)"/>
<path d="M0.68457 2.44717L2.12011 0.718018C1.30447 0.881146 0.68457 1.59891 0.68457 2.44717Z" fill="url(#paint25_radial)"/>
<path d="M3.19577 0.686279L0.683594 3.72047V4.56873L3.88091 0.686279H3.19577Z" fill="url(#paint26_radial)"/>
<path d="M4.92493 0.686279L0.683594 5.84114V6.6894L5.61007 0.686279H4.92493Z" fill="url(#paint27_radial)"/>
<path d="M6.6544 0.685547L0.977539 7.60219C1.23854 7.56956 1.49955 7.53693 1.76055 7.5043L7.33954 0.685547H6.6544Z" fill="url(#paint28_radial)"/>
<path d="M8.38345 0.685547L2.90234 7.3738C3.13072 7.34118 3.39172 7.34118 3.65273 7.34118L9.10122 0.685547H8.38345Z" fill="url(#paint29_radial)"/>
<path d="M10.1453 0.685547L4.72949 7.30856C4.95787 7.30856 5.18624 7.30856 5.41462 7.30856L10.8305 0.685547H10.1453Z" fill="url(#paint30_radial)"/>
<path d="M11.8739 0.685547L6.45801 7.30856C6.68639 7.30856 6.91477 7.30855 7.14315 7.34118L12.5916 0.685547H11.8739Z" fill="url(#paint31_radial)"/>
<path d="M13.6032 0.68546L8.12207 7.37372C8.35045 7.37372 8.5462 7.40634 8.77458 7.40634L14.2883 0.652832H13.6032V0.68546Z" fill="url(#paint32_radial)"/>
<path d="M15.3655 0.685547L9.75391 7.53693C9.94966 7.56956 10.178 7.56956 10.4064 7.60219L16.0507 0.685547H15.3655Z" fill="url(#paint33_radial)"/>
<path d="M17.5514 0.685547H17.0947L11.3525 7.70006C11.5483 7.73269 11.7767 7.76532 11.9724 7.79794L17.7798 0.685547C17.7145 0.685547 17.6493 0.685547 17.5514 0.685547Z" fill="url(#paint34_radial)"/>
<path d="M18.5626 1.01172L12.8857 7.96099C13.0815 7.99361 13.2772 8.02623 13.5056 8.05886L18.9867 1.3706C18.8562 1.2401 18.7257 1.1096 18.5626 1.01172Z" fill="url(#paint35_radial)"/>
<path d="M19.3132 2.44721C19.3132 2.38196 19.3132 2.31672 19.3132 2.25146L14.3867 8.22195C14.5825 8.25458 14.7782 8.2872 14.974 8.35245L19.3132 3.06711V2.44721Z" fill="url(#paint36_radial)"/>
<path d="M19.3128 4.33936L15.8545 8.54806C16.0502 8.58069 16.246 8.64594 16.4418 8.67856L19.3128 5.18762V4.33936Z" fill="url(#paint37_radial)"/>
<path d="M19.3134 6.46021L17.3232 8.90713C17.519 8.97238 17.7148 9.00501 17.8779 9.07026L19.3134 7.30847V6.46021Z" fill="url(#paint38_radial)"/>
<path d="M19.3128 9.42932V8.58105L18.7256 9.29881C18.9213 9.36406 19.0845 9.39669 19.2802 9.46194L19.3128 9.42932Z" fill="url(#paint39_radial)"/>
<defs>
<radialGradient id="paint0_radial" cx="0" cy="0" r="1" gradientUnits="userSpaceOnUse" gradientTransform="translate(10.0059 10.0004) scale(10.0161)">
<stop stop-color="#FFC114"/>
<stop offset="1" stop-color="#F58726"/>
</radialGradient>
<radialGradient id="paint1_radial" cx="0" cy="0" r="1" gradientUnits="userSpaceOnUse" gradientTransform="translate(10.0052 10.0005) scale(9.31342)">
<stop stop-color="#FFC114"/>
<stop offset="1" stop-color="#F58726"/>
</radialGradient>
<radialGradient id="paint2_radial" cx="0" cy="0" r="1" gradientUnits="userSpaceOnUse" gradientTransform="translate(10.0058 10.0004) scale(9.66479)">
<stop stop-color="#FFC114"/>
<stop offset="1" stop-color="#F58726"/>
</radialGradient>
<radialGradient id="paint3_radial" cx="0" cy="0" r="1" gradientUnits="userSpaceOnUse" gradientTransform="translate(10.0052 10.0005) scale(9.31342)">
<stop stop-color="#FFC114"/>
<stop offset="1" stop-color="#F58726"/>
</radialGradient>
<radialGradient id="paint4_radial" cx="0" cy="0" r="1" gradientUnits="userSpaceOnUse" gradientTransform="translate(9.33206 24.2993) scale(35.1398)">
<stop offset="0.0989011" stop-color="#FFC114"/>
<stop offset="1" stop-color="#F58726"/>
</radialGradient>
<radialGradient id="paint5_radial" cx="0" cy="0" r="1" gradientUnits="userSpaceOnUse" gradientTransform="translate(11.0792 9.34244) scale(18.6836)">
<stop offset="0.1923" stop-color="#FFC114"/>
<stop offset="1" stop-color="#F58726"/>
</radialGradient>
<radialGradient id="paint6_radial" cx="0" cy="0" r="1" gradientUnits="userSpaceOnUse" gradientTransform="translate(8.28672 -13.4798) scale(44.8283 44.828)">
<stop offset="0.1154" stop-color="#FFC114"/>
<stop offset="1" stop-color="#F58726"/>
</radialGradient>
<radialGradient id="paint7_radial" cx="0" cy="0" r="1" gradientUnits="userSpaceOnUse" gradientTransform="translate(8.2875 -13.4794) scale(44.8247 44.8246)">
<stop offset="0.1154" stop-color="#FFC114"/>
<stop offset="1" stop-color="#F58726"/>
</radialGradient>
<radialGradient id="paint8_radial" cx="0" cy="0" r="1" gradientUnits="userSpaceOnUse" gradientTransform="translate(8.28733 -13.4797) scale(44.8254)">
<stop offset="0.1154" stop-color="#FFC114"/>
<stop offset="1" stop-color="#F58726"/>
</radialGradient>
<radialGradient id="paint9_radial" cx="0" cy="0" r="1" gradientUnits="userSpaceOnUse" gradientTransform="translate(8.2875 -13.4791) scale(44.824)">
<stop offset="0.1154" stop-color="#FFC114"/>
<stop offset="1" stop-color="#F58726"/>
</radialGradient>
<radialGradient id="paint10_radial" cx="0" cy="0" r="1" gradientUnits="userSpaceOnUse" gradientTransform="translate(8.28733 -13.4791) scale(44.8239)">
<stop offset="0.1154" stop-color="#FFC114"/>
<stop offset="1" stop-color="#F58726"/>
</radialGradient>
<radialGradient id="paint11_radial" cx="0" cy="0" r="1" gradientUnits="userSpaceOnUse" gradientTransform="translate(8.28749 -13.4794) scale(44.8248)">
<stop offset="0.1154" stop-color="#FFC114"/>
<stop offset="1" stop-color="#F58726"/>
</radialGradient>
<radialGradient id="paint12_radial" cx="0" cy="0" r="1" gradientUnits="userSpaceOnUse" gradientTransform="translate(8.28733 -13.4794) scale(44.8248)">
<stop offset="0.1154" stop-color="#FFC114"/>
<stop offset="1" stop-color="#F58726"/>
</radialGradient>
<radialGradient id="paint13_radial" cx="0" cy="0" r="1" gradientUnits="userSpaceOnUse" gradientTransform="translate(8.28749 -13.4794) scale(44.8248)">
<stop offset="0.1154" stop-color="#FFC114"/>
<stop offset="1" stop-color="#F58726"/>
</radialGradient>
<radialGradient id="paint14_radial" cx="0" cy="0" r="1" gradientUnits="userSpaceOnUse" gradientTransform="translate(8.28607 -13.4799) scale(44.8248)">
<stop offset="0.1154" stop-color="#FFC114"/>
<stop offset="1" stop-color="#F58726"/>
</radialGradient>
<radialGradient id="paint15_radial" cx="0" cy="0" r="1" gradientUnits="userSpaceOnUse" gradientTransform="translate(8.28639 -13.4799) scale(44.8249)">
<stop offset="0.1154" stop-color="#FFC114"/>
<stop offset="1" stop-color="#F58726"/>
</radialGradient>
<radialGradient id="paint16_radial" cx="0" cy="0" r="1" gradientUnits="userSpaceOnUse" gradientTransform="translate(8.28655 -13.48) scale(44.825)">
<stop offset="0.1154" stop-color="#FFC114"/>
<stop offset="1" stop-color="#F58726"/>
</radialGradient>
<radialGradient id="paint17_radial" cx="0" cy="0" r="1" gradientUnits="userSpaceOnUse" gradientTransform="translate(8.28648 -13.4806) scale(44.8257)">
<stop offset="0.1154" stop-color="#FFC114"/>
<stop offset="1" stop-color="#F58726"/>
</radialGradient>
<radialGradient id="paint18_radial" cx="0" cy="0" r="1" gradientUnits="userSpaceOnUse" gradientTransform="translate(8.28698 -13.4802) scale(44.8253)">
<stop offset="0.1154" stop-color="#FFC114"/>
<stop offset="1" stop-color="#F58726"/>
</radialGradient>
<radialGradient id="paint19_radial" cx="0" cy="0" r="1" gradientUnits="userSpaceOnUse" gradientTransform="translate(8.28617 -13.48) scale(44.8249)">
<stop offset="0.1154" stop-color="#FFC114"/>
<stop offset="1" stop-color="#F58726"/>
</radialGradient>
<radialGradient id="paint20_radial" cx="0" cy="0" r="1" gradientUnits="userSpaceOnUse" gradientTransform="translate(8.28627 -13.4795) scale(44.8245)">
<stop offset="0.1154" stop-color="#FFC114"/>
<stop offset="1" stop-color="#F58726"/>
</radialGradient>
<radialGradient id="paint21_radial" cx="0" cy="0" r="1" gradientUnits="userSpaceOnUse" gradientTransform="translate(8.28741 -13.4805) scale(44.8258)">
<stop offset="0.1154" stop-color="#FFC114"/>
<stop offset="1" stop-color="#F58726"/>
</radialGradient>
<radialGradient id="paint22_radial" cx="0" cy="0" r="1" gradientUnits="userSpaceOnUse" gradientTransform="translate(8.28678 -13.4815) scale(44.8269)">
<stop offset="0.1154" stop-color="#FFC114"/>
<stop offset="1" stop-color="#F58726"/>
</radialGradient>
<radialGradient id="paint23_radial" cx="0" cy="0" r="1" gradientUnits="userSpaceOnUse" gradientTransform="translate(8.28687 -13.48) scale(44.8249)">
<stop offset="0.1154" stop-color="#FFC114"/>
<stop offset="1" stop-color="#F58726"/>
</radialGradient>
<radialGradient id="paint24_radial" cx="0" cy="0" r="1" gradientUnits="userSpaceOnUse" gradientTransform="translate(8.28768 -13.483) scale(44.8287)">
<stop offset="0.1154" stop-color="#FFC114"/>
<stop offset="1" stop-color="#F58726"/>
</radialGradient>
<radialGradient id="paint25_radial" cx="0" cy="0" r="1" gradientUnits="userSpaceOnUse" gradientTransform="translate(10.6108 11.2764) scale(19.6218 19.6216)">
<stop stop-color="#FFC114"/>
<stop offset="1" stop-color="#F58726"/>
</radialGradient>
<radialGradient id="paint26_radial" cx="0" cy="0" r="1" gradientUnits="userSpaceOnUse" gradientTransform="translate(10.6097 11.2764) scale(19.6205)">
<stop stop-color="#FFC114"/>
<stop offset="1" stop-color="#F58726"/>
</radialGradient>
<radialGradient id="paint27_radial" cx="0" cy="0" r="1" gradientUnits="userSpaceOnUse" gradientTransform="translate(10.6095 11.2764) scale(19.6201)">
<stop stop-color="#FFC114"/>
<stop offset="1" stop-color="#F58726"/>
</radialGradient>
<radialGradient id="paint28_radial" cx="0" cy="0" r="1" gradientUnits="userSpaceOnUse" gradientTransform="translate(10.6098 11.276) scale(19.6207)">
<stop stop-color="#FFC114"/>
<stop offset="1" stop-color="#F58726"/>
</radialGradient>
<radialGradient id="paint29_radial" cx="0" cy="0" r="1" gradientUnits="userSpaceOnUse" gradientTransform="translate(10.6099 11.2753) scale(19.6192)">
<stop stop-color="#FFC114"/>
<stop offset="1" stop-color="#F58726"/>
</radialGradient>
<radialGradient id="paint30_radial" cx="0" cy="0" r="1" gradientUnits="userSpaceOnUse" gradientTransform="translate(10.61 11.2753) scale(19.619)">
<stop stop-color="#FFC114"/>
<stop offset="1" stop-color="#F58726"/>
</radialGradient>
<radialGradient id="paint31_radial" cx="0" cy="0" r="1" gradientUnits="userSpaceOnUse" gradientTransform="translate(10.6095 11.2756) scale(19.6198)">
<stop stop-color="#FFC114"/>
<stop offset="1" stop-color="#F58726"/>
</radialGradient>
<radialGradient id="paint32_radial" cx="0" cy="0" r="1" gradientUnits="userSpaceOnUse" gradientTransform="translate(10.6095 11.2759) scale(19.6212)">
<stop stop-color="#FFC114"/>
<stop offset="1" stop-color="#F58726"/>
</radialGradient>
<radialGradient id="paint33_radial" cx="0" cy="0" r="1" gradientUnits="userSpaceOnUse" gradientTransform="translate(10.6102 11.2756) scale(19.6203)">
<stop stop-color="#FFC114"/>
<stop offset="1" stop-color="#F58726"/>
</radialGradient>
<radialGradient id="paint34_radial" cx="0" cy="0" r="1" gradientUnits="userSpaceOnUse" gradientTransform="translate(10.61 11.276) scale(19.621)">
<stop stop-color="#FFC114"/>
<stop offset="1" stop-color="#F58726"/>
</radialGradient>
<radialGradient id="paint35_radial" cx="0" cy="0" r="1" gradientUnits="userSpaceOnUse" gradientTransform="translate(10.6098 11.2756) scale(19.6209)">
<stop stop-color="#FFC114"/>
<stop offset="1" stop-color="#F58726"/>
</radialGradient>
<radialGradient id="paint36_radial" cx="0" cy="0" r="1" gradientUnits="userSpaceOnUse" gradientTransform="translate(10.61 11.2761) scale(19.6209)">
<stop stop-color="#FFC114"/>
<stop offset="1" stop-color="#F58726"/>
</radialGradient>
<radialGradient id="paint37_radial" cx="0" cy="0" r="1" gradientUnits="userSpaceOnUse" gradientTransform="translate(10.6095 11.2757) scale(19.621)">
<stop stop-color="#FFC114"/>
<stop offset="1" stop-color="#F58726"/>
</radialGradient>
<radialGradient id="paint38_radial" cx="0" cy="0" r="1" gradientUnits="userSpaceOnUse" gradientTransform="translate(10.6104 11.2759) scale(19.6204)">
<stop stop-color="#FFC114"/>
<stop offset="1" stop-color="#F58726"/>
</radialGradient>
<radialGradient id="paint39_radial" cx="0" cy="0" r="1" gradientUnits="userSpaceOnUse" gradientTransform="translate(10.6099 11.2751) scale(19.6199)">
<stop stop-color="#FFC114"/>
<stop offset="1" stop-color="#F58726"/>
</radialGradient>
</defs>
</svg>
