<svg width="20" height="20" viewBox="0 0 20 20" fill="none" xmlns="http://www.w3.org/2000/svg">
<path d="M17.5526 0H2.44692C1.07665 0 0 1.10927 0 2.44692V17.5526C0 18.9229 1.10927 19.9995 2.44692 19.9995H17.5526C18.9229 19.9995 19.9995 18.8903 19.9995 17.5526V2.44692C20.0321 1.07665 18.9229 0 17.5526 0ZM19.3144 17.5526C19.3144 18.5314 18.5314 19.3144 17.5526 19.3144H2.44692C1.46815 19.3144 0.68514 18.5314 0.68514 17.5526V2.44692C0.68514 1.46815 1.46815 0.68514 2.44692 0.68514H17.5526C18.5314 0.68514 19.3144 1.46815 19.3144 2.44692V17.5526Z" fill="url(#paint0_radial)"/>
<path d="M17.552 0.685059H2.44635C1.46758 0.685059 0.68457 1.46807 0.68457 2.44684V17.5525C0.68457 18.5313 1.46758 19.3143 2.44635 19.3143H17.552C18.5308 19.3143 19.3138 18.5313 19.3138 17.5525V2.44684C19.3138 1.46807 18.5308 0.685059 17.552 0.685059Z" fill="url(#paint1_radial)"/>
<path d="M17.5525 0.326172H2.44684C1.27232 0.326172 0.326172 1.27232 0.326172 2.44684V17.5525C0.326172 18.727 1.27232 19.6732 2.44684 19.6732H17.5525C18.727 19.6732 19.6732 18.727 19.6732 17.5525V2.44684C19.6732 1.27232 18.727 0.326172 17.5525 0.326172ZM19.3143 17.5525C19.3143 18.5313 18.5313 19.3143 17.5525 19.3143H2.44684C1.46807 19.3143 0.685056 18.5313 0.685056 17.5525V2.44684C0.685056 1.46807 1.46807 0.685056 2.44684 0.685056H17.5525C18.5313 0.685056 19.3143 1.46807 19.3143 2.44684V17.5525Z" fill="url(#paint2_radial)"/>
<path d="M17.552 0.685059H2.44635C1.46758 0.685059 0.68457 1.46807 0.68457 2.44684V17.5525C0.68457 18.5313 1.46758 19.3143 2.44635 19.3143H17.552C18.5308 19.3143 19.3138 18.5313 19.3138 17.5525V2.44684C19.3138 1.46807 18.5308 0.685059 17.552 0.685059Z" fill="url(#paint3_radial)"/>
<path d="M17.5525 0.326172H2.44684C1.27232 0.326172 0.326172 1.27232 0.326172 2.44684V17.5525C0.326172 18.727 1.27232 19.6732 2.44684 19.6732H17.5525C18.727 19.6732 19.6732 18.727 19.6732 17.5525V2.44684C19.6732 1.27232 18.727 0.326172 17.5525 0.326172ZM19.3143 17.5525C19.3143 18.5313 18.5313 19.3143 17.5525 19.3143H2.44684C1.46807 19.3143 0.685056 18.5313 0.685056 17.5525V2.44684C0.685056 1.46807 1.46807 0.685056 2.44684 0.685056H17.5525C18.5313 0.685056 19.3143 1.46807 19.3143 2.44684V17.5525Z" fill="white"/>
<path d="M17.552 0.685059H2.44635C1.46758 0.685059 0.68457 1.46807 0.68457 2.44684V17.5525C0.68457 18.5313 1.46758 19.3143 2.44635 19.3143H17.552C18.5308 19.3143 19.3138 18.5313 19.3138 17.5525V2.44684C19.3138 1.46807 18.5308 0.685059 17.552 0.685059Z" fill="white"/>
<path d="M17.552 0.685059H2.44635C1.46758 0.685059 0.68457 1.46807 0.68457 2.44684V17.5525C0.68457 18.5313 1.46758 19.3143 2.44635 19.3143H17.552C18.5308 19.3143 19.3138 18.5313 19.3138 17.5525V2.44684C19.3138 1.46807 18.5308 0.685059 17.552 0.685059Z" fill="url(#paint4_radial)"/>
<path d="M19.3138 9.49398V2.44684C19.3138 1.46807 18.5308 0.685059 17.552 0.685059H2.44635C1.46758 0.685059 0.68457 1.46807 0.68457 2.44684V7.66694C5.18691 6.88393 12.3646 7.30806 19.3138 9.49398Z" fill="url(#paint5_radial)"/>
<path d="M0.68457 2.44742L2.1201 0.718262C1.30446 0.88139 0.68457 1.59915 0.68457 2.44742Z" fill="url(#paint6_radial)"/>
<path d="M3.16412 0.685059L0.68457 3.71925V4.56751L3.88188 0.685059H3.16412Z" fill="url(#paint7_radial)"/>
<path d="M4.9259 0.685059L0.68457 5.83992V6.68817L5.61104 0.685059H4.9259Z" fill="url(#paint8_radial)"/>
<path d="M6.65506 0.685059L0.68457 7.96058V8.80884L7.3402 0.685059H6.65506Z" fill="url(#paint9_radial)"/>
<path d="M8.38422 0.685059L0.68457 10.0812V10.9295L9.10198 0.685059H8.38422Z" fill="url(#paint10_radial)"/>
<path d="M10.146 0.685059L0.68457 12.2345V13.0828L10.8311 0.685059H10.146Z" fill="url(#paint11_radial)"/>
<path d="M11.8752 0.685059L0.68457 14.3552V15.2035L12.5603 0.685059H11.8752Z" fill="url(#paint12_radial)"/>
<path d="M13.6043 0.685059L0.68457 16.4759V17.3241L14.3221 0.685059H13.6043Z" fill="url(#paint13_radial)"/>
<path d="M15.3657 0.685059L0.879883 18.3355C0.97776 18.4987 1.07564 18.6618 1.20614 18.7923L16.0508 0.685059H15.3657Z" fill="url(#paint14_radial)"/>
<path d="M17.5515 0.685059H17.0948L1.92383 19.2164C2.08696 19.2817 2.28271 19.3143 2.47847 19.3143H2.57634L17.8125 0.717686C17.7146 0.685061 17.6168 0.685059 17.5515 0.685059Z" fill="url(#paint15_radial)"/>
<path d="M18.5635 1.01123L3.55566 19.3142H4.2408L18.9223 1.37011C18.8571 1.23961 18.7266 1.10911 18.5635 1.01123Z" fill="url(#paint16_radial)"/>
<path d="M19.3138 2.44672C19.3138 2.38147 19.3138 2.31623 19.3138 2.25098L5.31738 19.3142H6.00251L19.3138 3.06662V2.44672Z" fill="url(#paint17_radial)"/>
<path d="M19.3141 4.33911L7.04688 19.3143H7.73202L19.3141 5.18738V4.33911Z" fill="url(#paint18_radial)"/>
<path d="M19.3135 6.45972L8.77539 19.3142H9.49316L19.3135 7.30799V6.45972Z" fill="url(#paint19_radial)"/>
<path d="M19.3134 8.58057L10.5371 19.3144H11.2222L19.3134 9.42884V8.58057Z" fill="url(#paint20_radial)"/>
<path d="M19.3137 10.7012L12.2666 19.3143H12.9517L19.3137 11.5494V10.7012Z" fill="url(#paint21_radial)"/>
<path d="M19.3131 12.8218L13.9951 19.3143H14.7129L19.3131 13.67V12.8218Z" fill="url(#paint22_radial)"/>
<path d="M19.314 14.9424L15.7578 19.3142H16.4429L19.314 15.7907V14.9424Z" fill="url(#paint23_radial)"/>
<path d="M19.3143 17.5526V17.0632L17.4873 19.3144H17.5526C17.8136 19.3144 18.0746 19.2491 18.3029 19.1513L19.2491 18.0094C19.2817 17.8462 19.3143 17.7157 19.3143 17.5526Z" fill="url(#paint24_radial)"/>
<path d="M0.68457 2.44766L2.1201 0.718506C1.30446 0.881634 0.68457 1.59939 0.68457 2.44766Z" fill="url(#paint25_radial)"/>
<path d="M3.16412 0.685547L0.68457 3.71974V4.568L3.88188 0.685547H3.16412Z" fill="url(#paint26_radial)"/>
<path d="M4.9259 0.685547L0.68457 5.8404V6.68866L5.61104 0.685547H4.9259Z" fill="url(#paint27_radial)"/>
<path d="M6.65538 0.685547L0.978516 7.60219C1.23952 7.56956 1.50052 7.53693 1.76153 7.5043L7.34052 0.685547H6.65538Z" fill="url(#paint28_radial)"/>
<path d="M8.38443 0.685547L2.90332 7.3738C3.1317 7.34118 3.39271 7.34118 3.65372 7.34118L9.10219 0.685547H8.38443Z" fill="url(#paint29_radial)"/>
<path d="M10.1463 0.685547L4.73047 7.30856C4.95885 7.30856 5.18723 7.30856 5.41561 7.30856L10.8315 0.685547H10.1463Z" fill="url(#paint30_radial)"/>
<path d="M11.8748 0.685547L6.45898 7.30856C6.68736 7.30856 6.91574 7.30855 7.14411 7.34118L12.5926 0.685547H11.8748Z" fill="url(#paint31_radial)"/>
<path d="M13.6042 0.68546L8.12305 7.37372C8.35143 7.37372 8.54718 7.40634 8.77556 7.40634L14.2893 0.652832H13.6042V0.68546Z" fill="url(#paint32_radial)"/>
<path d="M15.3665 0.685547L9.75488 7.53693C9.95064 7.56956 10.179 7.56956 10.4074 7.60219L16.0516 0.685547H15.3665Z" fill="url(#paint33_radial)"/>
<path d="M17.5514 0.685547H17.0946L11.3525 7.70006C11.5483 7.73269 11.7767 7.76532 11.9724 7.79794L17.7798 0.685547C17.7145 0.685547 17.6167 0.685547 17.5514 0.685547Z" fill="url(#paint34_radial)"/>
<path d="M18.5626 1.01172L12.8857 7.96099C13.0815 7.99361 13.2772 8.02623 13.5056 8.05886L18.9541 1.3706C18.8562 1.2401 18.7257 1.1096 18.5626 1.01172Z" fill="url(#paint35_radial)"/>
<path d="M19.3142 2.44721C19.3142 2.38196 19.3142 2.31672 19.3142 2.25146L14.3877 8.22195C14.5834 8.25458 14.7792 8.2872 14.975 8.35245L19.3142 3.06711V2.44721Z" fill="url(#paint36_radial)"/>
<path d="M19.3138 4.33936L15.8555 8.54806C16.0512 8.58069 16.247 8.64594 16.4427 8.67856L19.3138 5.18762V4.33936Z" fill="url(#paint37_radial)"/>
<path d="M19.3134 6.46021L17.3232 8.90713C17.519 8.97238 17.7148 9.00501 17.8779 9.07026L19.3134 7.30847V6.46021Z" fill="url(#paint38_radial)"/>
<path d="M19.3138 9.42932V8.58105L18.7266 9.29881C18.9223 9.36406 19.0854 9.39669 19.2812 9.46194L19.3138 9.42932Z" fill="url(#paint39_radial)"/>
<defs>
<radialGradient id="paint0_radial" cx="0" cy="0" r="1" gradientUnits="userSpaceOnUse" gradientTransform="translate(10.0034 10.0004) scale(10.0162)">
<stop stop-color="#0083CA"/>
<stop offset="0.544" stop-color="#005FA5"/>
<stop offset="1" stop-color="#001F4D"/>
</radialGradient>
<radialGradient id="paint1_radial" cx="0" cy="0" r="1" gradientUnits="userSpaceOnUse" gradientTransform="translate(10.0028 10.0005) scale(9.31345)">
<stop stop-color="#0083CA"/>
<stop offset="0.544" stop-color="#005FA5"/>
<stop offset="1" stop-color="#001F4D"/>
</radialGradient>
<radialGradient id="paint2_radial" cx="0" cy="0" r="1" gradientUnits="userSpaceOnUse" gradientTransform="translate(10.0033 10.0004) scale(9.66479)">
<stop stop-color="#0083CA"/>
<stop offset="0.544" stop-color="#005FA5"/>
<stop offset="1" stop-color="#001F4D"/>
</radialGradient>
<radialGradient id="paint3_radial" cx="0" cy="0" r="1" gradientUnits="userSpaceOnUse" gradientTransform="translate(10.0028 10.0005) scale(9.31345)">
<stop stop-color="#0083CA"/>
<stop offset="0.544" stop-color="#005FA5"/>
<stop offset="1" stop-color="#001F4D"/>
</radialGradient>
<radialGradient id="paint4_radial" cx="0" cy="0" r="1" gradientUnits="userSpaceOnUse" gradientTransform="translate(13.6133 -5.59557) scale(24.2802)">
<stop stop-color="#0083CA"/>
<stop offset="0.544" stop-color="#005FA5"/>
<stop offset="1" stop-color="#001F4D"/>
</radialGradient>
<radialGradient id="paint5_radial" cx="0" cy="0" r="1" gradientUnits="userSpaceOnUse" gradientTransform="translate(11.0768 9.34244) scale(18.6836)">
<stop stop-color="#0083CA"/>
<stop offset="0.544" stop-color="#005FA5"/>
<stop offset="1" stop-color="#001F4D"/>
</radialGradient>
<radialGradient id="paint6_radial" cx="0" cy="0" r="1" gradientUnits="userSpaceOnUse" gradientTransform="translate(23.7006 -8.8964) scale(40.1387)">
<stop stop-color="#0083CA"/>
<stop offset="0.544" stop-color="#005FA5"/>
<stop offset="1" stop-color="#001F4D"/>
</radialGradient>
<radialGradient id="paint7_radial" cx="0" cy="0" r="1" gradientUnits="userSpaceOnUse" gradientTransform="translate(23.7003 -8.89604) scale(40.1374)">
<stop stop-color="#0083CA"/>
<stop offset="0.544" stop-color="#005FA5"/>
<stop offset="1" stop-color="#001F4D"/>
</radialGradient>
<radialGradient id="paint8_radial" cx="0" cy="0" r="1" gradientUnits="userSpaceOnUse" gradientTransform="translate(23.701 -8.89637) scale(40.1385)">
<stop stop-color="#0083CA"/>
<stop offset="0.544" stop-color="#005FA5"/>
<stop offset="1" stop-color="#001F4D"/>
</radialGradient>
<radialGradient id="paint9_radial" cx="0" cy="0" r="1" gradientUnits="userSpaceOnUse" gradientTransform="translate(23.7006 -8.89604) scale(40.1375)">
<stop stop-color="#0083CA"/>
<stop offset="0.544" stop-color="#005FA5"/>
<stop offset="1" stop-color="#001F4D"/>
</radialGradient>
<radialGradient id="paint10_radial" cx="0" cy="0" r="1" gradientUnits="userSpaceOnUse" gradientTransform="translate(23.7003 -8.89604) scale(40.1371)">
<stop stop-color="#0083CA"/>
<stop offset="0.544" stop-color="#005FA5"/>
<stop offset="1" stop-color="#001F4D"/>
</radialGradient>
<radialGradient id="paint11_radial" cx="0" cy="0" r="1" gradientUnits="userSpaceOnUse" gradientTransform="translate(23.7003 -8.89605) scale(40.1375)">
<stop stop-color="#0083CA"/>
<stop offset="0.544" stop-color="#005FA5"/>
<stop offset="1" stop-color="#001F4D"/>
</radialGradient>
<radialGradient id="paint12_radial" cx="0" cy="0" r="1" gradientUnits="userSpaceOnUse" gradientTransform="translate(23.7003 -8.89637) scale(40.1378)">
<stop stop-color="#0083CA"/>
<stop offset="0.544" stop-color="#005FA5"/>
<stop offset="1" stop-color="#001F4D"/>
</radialGradient>
<radialGradient id="paint13_radial" cx="0" cy="0" r="1" gradientUnits="userSpaceOnUse" gradientTransform="translate(23.7006 -8.89637) scale(40.1379)">
<stop stop-color="#0083CA"/>
<stop offset="0.544" stop-color="#005FA5"/>
<stop offset="1" stop-color="#001F4D"/>
</radialGradient>
<radialGradient id="paint14_radial" cx="0" cy="0" r="1" gradientUnits="userSpaceOnUse" gradientTransform="translate(23.7002 -8.89638) scale(40.138)">
<stop stop-color="#0083CA"/>
<stop offset="0.544" stop-color="#005FA5"/>
<stop offset="1" stop-color="#001F4D"/>
</radialGradient>
<radialGradient id="paint15_radial" cx="0" cy="0" r="1" gradientUnits="userSpaceOnUse" gradientTransform="translate(23.6998 -8.89638) scale(40.1381)">
<stop stop-color="#0083CA"/>
<stop offset="0.544" stop-color="#005FA5"/>
<stop offset="1" stop-color="#001F4D"/>
</radialGradient>
<radialGradient id="paint16_radial" cx="0" cy="0" r="1" gradientUnits="userSpaceOnUse" gradientTransform="translate(23.7007 -8.89646) scale(40.1381)">
<stop stop-color="#0083CA"/>
<stop offset="0.544" stop-color="#005FA5"/>
<stop offset="1" stop-color="#001F4D"/>
</radialGradient>
<radialGradient id="paint17_radial" cx="0" cy="0" r="1" gradientUnits="userSpaceOnUse" gradientTransform="translate(23.7003 -8.89681) scale(40.1384)">
<stop stop-color="#0083CA"/>
<stop offset="0.544" stop-color="#005FA5"/>
<stop offset="1" stop-color="#001F4D"/>
</radialGradient>
<radialGradient id="paint18_radial" cx="0" cy="0" r="1" gradientUnits="userSpaceOnUse" gradientTransform="translate(23.7009 -8.89639) scale(40.138)">
<stop stop-color="#0083CA"/>
<stop offset="0.544" stop-color="#005FA5"/>
<stop offset="1" stop-color="#001F4D"/>
</radialGradient>
<radialGradient id="paint19_radial" cx="0" cy="0" r="1" gradientUnits="userSpaceOnUse" gradientTransform="translate(23.7003 -8.89645) scale(40.138)">
<stop stop-color="#0083CA"/>
<stop offset="0.544" stop-color="#005FA5"/>
<stop offset="1" stop-color="#001F4D"/>
</radialGradient>
<radialGradient id="paint20_radial" cx="0" cy="0" r="1" gradientUnits="userSpaceOnUse" gradientTransform="translate(23.7002 -8.89594) scale(40.1376)">
<stop stop-color="#0083CA"/>
<stop offset="0.544" stop-color="#005FA5"/>
<stop offset="1" stop-color="#001F4D"/>
</radialGradient>
<radialGradient id="paint21_radial" cx="0" cy="0" r="1" gradientUnits="userSpaceOnUse" gradientTransform="translate(23.7006 -8.89695) scale(40.1389)">
<stop stop-color="#0083CA"/>
<stop offset="0.544" stop-color="#005FA5"/>
<stop offset="1" stop-color="#001F4D"/>
</radialGradient>
<radialGradient id="paint22_radial" cx="0" cy="0" r="1" gradientUnits="userSpaceOnUse" gradientTransform="translate(23.6999 -8.89766) scale(40.1398)">
<stop stop-color="#0083CA"/>
<stop offset="0.544" stop-color="#005FA5"/>
<stop offset="1" stop-color="#001F4D"/>
</radialGradient>
<radialGradient id="paint23_radial" cx="0" cy="0" r="1" gradientUnits="userSpaceOnUse" gradientTransform="translate(23.7008 -8.89645) scale(40.138)">
<stop stop-color="#0083CA"/>
<stop offset="0.544" stop-color="#005FA5"/>
<stop offset="1" stop-color="#001F4D"/>
</radialGradient>
<radialGradient id="paint24_radial" cx="0" cy="0" r="1" gradientUnits="userSpaceOnUse" gradientTransform="translate(23.7012 -8.89912) scale(40.142)">
<stop stop-color="#0083CA"/>
<stop offset="0.544" stop-color="#005FA5"/>
<stop offset="1" stop-color="#001F4D"/>
</radialGradient>
<radialGradient id="paint25_radial" cx="0" cy="0" r="1" gradientUnits="userSpaceOnUse" gradientTransform="translate(10.6083 11.2769) scale(19.6216)">
<stop stop-color="#0083CA"/>
<stop offset="0.544" stop-color="#005FA5"/>
<stop offset="1" stop-color="#001F4D"/>
</radialGradient>
<radialGradient id="paint26_radial" cx="0" cy="0" r="1" gradientUnits="userSpaceOnUse" gradientTransform="translate(10.6081 11.2756) scale(19.6204)">
<stop stop-color="#0083CA"/>
<stop offset="0.544" stop-color="#005FA5"/>
<stop offset="1" stop-color="#001F4D"/>
</radialGradient>
<radialGradient id="paint27_radial" cx="0" cy="0" r="1" gradientUnits="userSpaceOnUse" gradientTransform="translate(10.6083 11.2756) scale(19.6204)">
<stop stop-color="#0083CA"/>
<stop offset="0.544" stop-color="#005FA5"/>
<stop offset="1" stop-color="#001F4D"/>
</radialGradient>
<radialGradient id="paint28_radial" cx="0" cy="0" r="1" gradientUnits="userSpaceOnUse" gradientTransform="translate(10.6086 11.276) scale(19.6211)">
<stop stop-color="#0083CA"/>
<stop offset="0.544" stop-color="#005FA5"/>
<stop offset="1" stop-color="#001F4D"/>
</radialGradient>
<radialGradient id="paint29_radial" cx="0" cy="0" r="1" gradientUnits="userSpaceOnUse" gradientTransform="translate(10.6085 11.2753) scale(19.6192)">
<stop stop-color="#0083CA"/>
<stop offset="0.544" stop-color="#005FA5"/>
<stop offset="1" stop-color="#001F4D"/>
</radialGradient>
<radialGradient id="paint30_radial" cx="0" cy="0" r="1" gradientUnits="userSpaceOnUse" gradientTransform="translate(10.6085 11.2753) scale(19.619)">
<stop stop-color="#0083CA"/>
<stop offset="0.544" stop-color="#005FA5"/>
<stop offset="1" stop-color="#001F4D"/>
</radialGradient>
<radialGradient id="paint31_radial" cx="0" cy="0" r="1" gradientUnits="userSpaceOnUse" gradientTransform="translate(10.608 11.2756) scale(19.6198)">
<stop stop-color="#0083CA"/>
<stop offset="0.544" stop-color="#005FA5"/>
<stop offset="1" stop-color="#001F4D"/>
</radialGradient>
<radialGradient id="paint32_radial" cx="0" cy="0" r="1" gradientUnits="userSpaceOnUse" gradientTransform="translate(10.6081 11.2759) scale(19.6212)">
<stop stop-color="#0083CA"/>
<stop offset="0.544" stop-color="#005FA5"/>
<stop offset="1" stop-color="#001F4D"/>
</radialGradient>
<radialGradient id="paint33_radial" cx="0" cy="0" r="1" gradientUnits="userSpaceOnUse" gradientTransform="translate(10.6087 11.2756) scale(19.6208)">
<stop stop-color="#0083CA"/>
<stop offset="0.544" stop-color="#005FA5"/>
<stop offset="1" stop-color="#001F4D"/>
</radialGradient>
<radialGradient id="paint34_radial" cx="0" cy="0" r="1" gradientUnits="userSpaceOnUse" gradientTransform="translate(10.6077 11.276) scale(19.6206)">
<stop stop-color="#0083CA"/>
<stop offset="0.544" stop-color="#005FA5"/>
<stop offset="1" stop-color="#001F4D"/>
</radialGradient>
<radialGradient id="paint35_radial" cx="0" cy="0" r="1" gradientUnits="userSpaceOnUse" gradientTransform="translate(10.6077 11.2756) scale(19.6203)">
<stop stop-color="#0083CA"/>
<stop offset="0.544" stop-color="#005FA5"/>
<stop offset="1" stop-color="#001F4D"/>
</radialGradient>
<radialGradient id="paint36_radial" cx="0" cy="0" r="1" gradientUnits="userSpaceOnUse" gradientTransform="translate(10.6087 11.2761) scale(19.6209)">
<stop stop-color="#0083CA"/>
<stop offset="0.544" stop-color="#005FA5"/>
<stop offset="1" stop-color="#001F4D"/>
</radialGradient>
<radialGradient id="paint37_radial" cx="0" cy="0" r="1" gradientUnits="userSpaceOnUse" gradientTransform="translate(10.6081 11.2757) scale(19.621)">
<stop stop-color="#0083CA"/>
<stop offset="0.544" stop-color="#005FA5"/>
<stop offset="1" stop-color="#001F4D"/>
</radialGradient>
<radialGradient id="paint38_radial" cx="0" cy="0" r="1" gradientUnits="userSpaceOnUse" gradientTransform="translate(10.6079 11.2759) scale(19.6208)">
<stop stop-color="#0083CA"/>
<stop offset="0.544" stop-color="#005FA5"/>
<stop offset="1" stop-color="#001F4D"/>
</radialGradient>
<radialGradient id="paint39_radial" cx="0" cy="0" r="1" gradientUnits="userSpaceOnUse" gradientTransform="translate(10.6059 11.2751) scale(19.6258 19.6254)">
<stop stop-color="#0083CA"/>
<stop offset="0.544" stop-color="#005FA5"/>
<stop offset="1" stop-color="#001F4D"/>
</radialGradient>
</defs>
</svg>
