<svg width="29" height="20" viewBox="0 0 29 20" fill="none" xmlns="http://www.w3.org/2000/svg">
<path d="M12.1443 17.4633L8.55078 13.3799L14.303 19.9182L13.1915 18.6545L12.1443 17.4633Z" fill="#5A5B5D"/>
<path d="M7.01523 12.2573L7.76477 11.6441L1.74056 9.39359L0.260742 8.15405L1.74056 9.39359L7.76477 11.6441L7.01523 12.2573Z" fill="#A1A3A6"/>
<path d="M7.01588 12.2572L7.76543 12.6814L7.01588 12.2572L1.74121 9.39355L8.0267 14.6594L7.60909 14.3099L7.01588 12.2572Z" fill="#A3A5A8"/>
<path d="M9.5127 11.6284L11.3737 12.046L10.2066 13.3801L9.9046 13.7339L12.4681 13.1207L14.3034 12.6812L9.5127 11.6284Z" fill="#E4E5E6"/>
<path d="M13.5023 15.9184H14.3032V14.2524L12.1445 15.9184H13.5023Z" fill="#7D7E81"/>
<path d="M9.50788 11.6284L7.76465 11.6438L9.90406 13.7339L9.50788 11.6284Z" fill="#4D4D4F"/>
<path d="M9.69223 16.0545L14.303 19.9182L8.55078 13.3799L9.69223 16.0545Z" fill="#9D9FA2"/>
<path d="M8.55069 13.3799L7.6084 14.3095L8.026 14.6589L9.69214 16.0545L8.55069 13.3799Z" fill="#AFB1B4"/>
<path d="M7.6084 14.3097L8.55068 13.38L7.76473 12.6812L7.6084 14.3097Z" fill="#8A8C8E"/>
<path d="M7.01465 12.2568L7.60786 14.3095L7.76419 12.681L7.01465 12.2568Z" fill="#5A5B5D"/>
<path d="M13.1914 18.6548L14.3029 19.9185V19.2745L13.1914 18.6548Z" fill="#D8D9DA"/>
<path d="M14.3029 19.2762V18.809L13.1914 18.6548L14.3029 19.2762Z" fill="#B1B3B6"/>
<path d="M14.3029 18.8093V18.481L13.1914 18.6551L14.3029 18.8093Z" fill="#D5D7D8"/>
<path d="M14.3029 18.4811V17.8877L13.1914 18.6547L14.3029 18.4811Z" fill="#656668"/>
<path d="M12.1445 17.4634L13.1918 18.6546V17.8876L12.1445 17.4634Z" fill="#696A6D"/>
<path d="M13.1914 18.6547L14.3029 17.8877H13.1914V18.6547Z" fill="#C2C4C6"/>
<path d="M13.1918 17.8887H14.3032L12.1445 17.4634L13.1918 17.8887Z" fill="#DCDDDE"/>
<path d="M7.76542 11.6441L1.74121 9.39355L7.01588 12.2573L7.76542 11.6441Z" fill="#9D9D9C"/>
<path d="M7.60824 10.5407L7.25488 10.4878L7.78813 10.5671L7.61038 10.5407H7.60824Z" fill="#3B3B3C"/>
<path d="M10.5193 10.923L10.1895 10.8833L10.5193 10.923Z" fill="#636466"/>
<path d="M11.887 11.0702L11.5957 11.0415L11.887 11.0702Z" fill="#EDEDEE"/>
<path d="M13.4171 11.2192H13.3828L13.5113 11.2303H13.4192L13.4171 11.2192Z" fill="#9B9DA0"/>
<path d="M12.8673 11.169L12.7109 11.1536L12.8673 11.169Z" fill="#A9ABAE"/>
<path d="M12.2612 11.1097L11.9785 11.0811L12.2612 11.1097Z" fill="#9FA1A4"/>
<path d="M13.0997 11.1997L12.9541 11.1865L13.0997 11.1997Z" fill="#545456"/>
<path d="M13.6318 11.239L13.5098 11.228L13.6318 11.239Z" fill="#5C5D60"/>
<path d="M12.5353 11.1363L12.2676 11.1099L12.5353 11.1363Z" fill="#939598"/>
<path d="M9.58736 10.8109L9.36035 10.7844L9.58736 10.8109Z" fill="#828487"/>
<path d="M13.3822 11.2173L13.2451 11.2041L13.3822 11.2173Z" fill="#848689"/>
<path d="M11.0667 10.9803L10.8525 10.9561L11.0667 10.9803Z" fill="#8A8C8E"/>
<path d="M10.8505 10.9603L10.5186 10.9229L10.8505 10.9603Z" fill="#DADBDC"/>
<path d="M8.03125 10.6087L7.78711 10.5757L8.03125 10.6087Z" fill="#9FA1A4"/>
<path d="M8.38656 10.6569L8.0332 10.6084L8.38656 10.6569Z" fill="#636466"/>
<path d="M9.36076 10.7843L9.12305 10.7534L9.36076 10.7843Z" fill="#CFD1D2"/>
<path d="M6.90723 10.4434L7.06356 10.4676L6.90937 10.4434H6.90723Z" fill="#717375"/>
<path d="M6.8291 10.4326L6.90191 10.4436L6.8291 10.4326Z" fill="#B6B8BA"/>
<path d="M11.2786 11.0064L11.0645 10.9844L11.2786 11.0064Z" fill="#A7A9AC"/>
<path d="M8.9897 10.7365L8.64062 10.6924L8.9897 10.7365Z" fill="#5C5D60"/>
<path d="M14.2915 11.2968H14.2144H14.1523H14.0666H13.9703H13.9167L13.6362 11.2705L13.5141 11.2595L13.3856 11.2485L13.2486 11.2353L13.1029 11.2221L12.9573 11.2089H12.8717L12.7153 11.1935H12.6232H12.5376L12.2699 11.1672L11.9872 11.1386H11.8908L11.5996 11.11L11.4903 11.0968L11.2762 11.0749L11.062 11.0529L10.8479 11.0287L10.5159 10.9913L10.1861 10.9518L9.82849 10.91L9.71071 10.8968L9.58436 10.8793L9.35735 10.8529L9.11964 10.8221L8.98686 10.8045L8.63778 10.7606L8.51571 10.743L8.38294 10.7254L8.02958 10.6771L7.78544 10.6441L7.25219 10.565H7.19009L7.05517 10.5452L6.89884 10.521L6.82602 10.51L6.72537 10.4925L6.38486 10.4375H6.37201H6.3356L6.09789 10.398L6.04221 10.387H6.02508L5.74667 10.3386H5.70384H5.68029L5.51538 10.3079L5.36976 10.2815H5.3462L5.28838 10.2705L5.20272 10.2551L5.07422 10.2309H5.05067H5.02711L4.89433 10.2046H4.87506H4.8515L4.72729 10.1804H4.71016L4.6352 10.165L4.5838 10.154H4.55382L4.42105 10.1276H4.40391L4.27542 10.0991H4.24544L3.97774 10.0397H3.94562L3.82783 10.0112L3.69934 9.98039H3.6715L3.56442 9.95401H3.543L3.42308 9.92324H3.39738L3.29887 9.89687H3.27317L3.15967 9.86391H3.13825L3.04616 9.83533H3.01832L2.9091 9.80237H2.89625L2.80416 9.7738H2.77633L2.67353 9.74083L0.268555 8.15405L1.74838 9.39358L7.76403 11.6397L9.50726 11.6243L14.3044 11.5869V11.2946L14.2915 11.2968Z" fill="#DADADA"/>
<path d="M7.01465 12.2567L7.76419 12.6809V11.6436L7.01465 12.2567Z" fill="#A3A5A8"/>
<path d="M7.76465 12.6809L8.55059 13.3798L7.76465 11.6436V12.6809Z" fill="#EDEDEE"/>
<path d="M10.6193 14.4303L9.90406 13.7336L7.76465 11.6436L8.5506 13.3798L12.1441 15.9182L10.6193 14.4303Z" fill="#7E8083"/>
<path d="M8.55078 13.3799L10.5082 15.1578L12.1443 17.4633V15.9183L8.55078 13.3799Z" fill="#CBCCCE"/>
<path d="M8.55078 13.3799L12.1443 17.4633L10.5082 15.1578L8.55078 13.3799Z" fill="#E9E9EA"/>
<path d="M14.3034 12.6814V11.5913L9.5127 11.6287L14.3034 12.6814Z" fill="#A1A3A6"/>
<path d="M9.51112 11.6288L14.3018 11.5913L9.50684 11.6288H9.51112Z" fill="#9FA1A4"/>
<path d="M10.205 13.38L11.3721 12.046L9.51112 11.6284H9.50684L10.205 13.38Z" fill="#848689"/>
<path d="M9.90303 13.7339L10.205 13.3801L9.50684 11.6284L9.90303 13.7339Z" fill="#ABADB0"/>
<path d="M13.2731 16.9465L12.1445 15.918V17.463L14.3032 17.8872L13.2731 16.9465Z" fill="#B8BABC"/>
<path d="M14.3039 16.4755V15.918H13.5029L14.3039 16.4755Z" fill="#4D4D4F"/>
<path d="M13.5023 15.918H12.1445L13.2731 16.9465L13.5023 15.918Z" fill="#E9E9EA"/>
<path d="M13.2725 16.9468L14.3026 17.8874L13.2725 16.9468Z" fill="#E6E7E8"/>
<path d="M14.3026 17.8873V16.4741L13.2725 16.9466L14.3026 17.8873Z" fill="#636466"/>
<path d="M13.2725 16.9465L14.3026 16.474L13.5016 15.918L13.2725 16.9465Z" fill="#7E8083"/>
<path d="M12.1439 15.9182L12.5337 13.9336L10.6191 14.4303L12.1439 15.9182Z" fill="#6D6E71"/>
<path d="M10.6191 14.4307L12.1439 15.9185L10.6191 14.4307Z" fill="#F1F2F2"/>
<path d="M12.5341 13.9336L9.9043 13.7336L10.6196 14.4303L12.5341 13.9336Z" fill="#EBEBEC"/>
<path d="M10.6196 14.4303L9.9043 13.7336L10.6196 14.4303Z" fill="#636466"/>
<path d="M12.9862 15.2281L12.6178 15.5533L12.5343 13.9336L12.1445 15.9182L14.3032 14.2523L12.5343 13.9336L12.9862 15.2281Z" fill="#919396"/>
<path d="M12.9851 15.2281L12.5332 13.9336L12.6167 15.5533L12.9851 15.2281Z" fill="#8C8E90"/>
<path d="M12.4678 13.1207L9.9043 13.7339L12.5341 13.9339L14.3031 14.2526V12.6812L13.6435 14.1339L12.4678 13.1207Z" fill="#8F9194"/>
<path d="M12.4678 13.1219L14.3031 12.6812L12.4678 13.1219Z" fill="#5C5D60"/>
<path d="M14.1767 12.9603L14.0632 13.2086L12.4678 13.1207L13.6435 14.1339L14.3031 12.6812L12.4678 13.1207L14.1767 12.9603Z" fill="#CBCCCE"/>
<path d="M14.0632 13.2092L14.1767 12.9602L12.4678 13.1211L14.0632 13.2092Z" fill="#8C8E90"/>
<path d="M3.68164 9.82593L3.80585 9.85678L3.68164 9.82593Z" fill="#C0C2C4"/>
<path d="M3.96777 9.89648L4.23547 9.95598L3.96777 9.89648Z" fill="#888A8C"/>
<path d="M6.72852 10.415L6.82917 10.4327L6.90198 10.4437L6.72852 10.415Z" fill="#5A5B5D"/>
<path d="M4.2666 9.96265L4.39509 9.9913L4.2666 9.96265Z" fill="#CDCFD0"/>
<path d="M14.3035 0H11.3739L6.8252 0.804377L14.3035 3.20211V0Z" fill="#C0C2C4"/>
<path d="M3.81934 9.86108L3.93498 9.88753L3.81934 9.86108Z" fill="#565759"/>
<path d="M3.13867 9.68311L3.25217 9.71616L3.13867 9.68311Z" fill="#EBEBEC"/>
<path d="M3.28125 9.72266L3.37762 9.7491L3.28125 9.72266Z" fill="#696A6D"/>
<path d="M2.65527 9.53589L2.75593 9.56894L2.65527 9.53589Z" fill="#7B7C7F"/>
<path d="M2.7832 9.57788L2.87529 9.60653L2.7832 9.57788Z" fill="#C4C6C8"/>
<path d="M3.40527 9.75562L3.52306 9.78647L3.40527 9.75562Z" fill="#DADBDC"/>
<path d="M2.88965 9.6106L2.99887 9.64366L2.88965 9.6106Z" fill="#E6E7E8"/>
<path d="M3.02539 9.66113L3.11748 9.68758L3.02539 9.66113Z" fill="#95979A"/>
<path d="M0.867188 7.22625L5.7735 5.21971L4.88476 4.3472L4.46929 3.94062L4.17162 3.64832L3.58269 3.07031L2.85884 5.56915L0.867188 7.22625Z" fill="#DEDFE0"/>
<path d="M2.18601 5.20605L0.260742 8.1533L0.866802 7.22583L2.18601 5.20605Z" fill="#545456"/>
<path d="M6.72625 10.4154L6.38574 10.3604L6.72625 10.4154Z" fill="#A7A9AC"/>
<path d="M7.60824 10.5407L7.25488 10.4878L7.60824 10.5407Z" fill="#C7C8CA"/>
<path d="M3.54492 9.79321L3.64986 9.81966L3.54492 9.79321Z" fill="#757679"/>
<path d="M13.9563 10.8876L14.3033 10.448V6.09644L11.4893 7.96892L13.9563 10.8876Z" fill="#BABCBE"/>
<path d="M14.3016 11.2988V10.4482L14.2695 11.257L14.3016 11.2988Z" fill="#E4E5E6"/>
<path d="M13.8805 11.2613H13.8334H13.7585H13.675L13.418 11.2371H13.5101L13.6321 11.2481L13.9127 11.2745H13.8805V11.2613Z" fill="#5A5B5D"/>
<path d="M6.90723 10.4434L7.06142 10.4676L7.19634 10.4874H7.2563L6.90723 10.4434Z" fill="#D1D3D4"/>
<path d="M5.37109 10.1846L5.51672 10.211L5.68162 10.2419L5.37109 10.1846Z" fill="#9B9DA0"/>
<path d="M7.60938 10.5403L7.78713 10.5667L8.03126 10.5998L8.38462 10.6483L8.5174 10.6659L8.63947 10.6835L8.98854 10.7276L9.12132 10.7452L9.35903 10.7761L9.58604 10.8025L9.71239 10.8202L9.83018 10.8334L10.1878 10.8753L10.5176 10.9149L10.8496 10.9524L11.0637 10.9766L11.2779 10.9987L11.492 11.0207L11.6012 11.0339L11.8925 11.0626H11.9889L12.2716 11.0912L12.5393 11.1177H12.6249H12.717L12.8733 11.1331H12.959L13.1046 11.1463L13.2503 11.1595L13.3873 11.1728H13.4216C12.1923 11.1089 9.88372 10.8797 7.60938 10.5403Z" fill="#EBEBEC"/>
<path d="M2.6543 9.53814L3.14471 8.85718L2.6543 9.53814Z" fill="#333132"/>
<path d="M6.05078 10.303L6.10646 10.314L6.34417 10.3537H6.38058L6.05078 10.303Z" fill="#616264"/>
<path d="M8.72266 5.52296L14.3036 6.09657L10.5387 3.20215L8.72266 5.52296Z" fill="#515254"/>
<path d="M4.88672 10.1011L5.01735 10.1275L4.88672 10.1011Z" fill="#3E3E3F"/>
<path d="M4.41072 9.99536L4.5435 10.0218L4.4043 9.99316L4.41072 9.99536Z" fill="#F1F2F2"/>
<path d="M4.57422 10.0283L4.62561 10.0393L4.70057 10.0548L4.57422 10.0283Z" fill="#515254"/>
<path d="M4.7168 10.0591L4.84101 10.0833H4.86457L4.7168 10.0591Z" fill="#C7C8CA"/>
<path d="M5.2886 10.169L5.34642 10.18L5.20508 10.1536L5.2886 10.169Z" fill="#434345"/>
<path d="M5.70508 10.2461H5.74791L6.02631 10.2946L5.70508 10.2461Z" fill="#363436"/>
<path d="M7.60876 10.5493L5.79699 7.88342L6.63006 7.7054L7.60876 10.5493L5.77344 5.21973L5.79699 9.02626L7.60876 10.5493Z" fill="#848689"/>
<path d="M5.04102 10.123H5.06457L5.19092 10.1473L5.04102 10.123Z" fill="#9FA1A4"/>
<path d="M9.71327 10.8284L9.58691 10.8108L9.71327 10.8284Z" fill="#E6E7E8"/>
<path d="M10.1897 10.8834L9.83203 10.8416L10.1897 10.8834Z" fill="#A1A3A6"/>
<path d="M11.5965 11.0415L11.4873 11.0283L11.5965 11.0415Z" fill="#464547"/>
<path d="M5.74707 10.2529L6.02547 10.3014L5.74707 10.2529Z" fill="#4D4D4F"/>
<path d="M3.68164 9.82593L3.808 9.85678L3.68164 9.82593Z" fill="#9D9FA2"/>
<path d="M3.54492 9.79321L3.652 9.81966L3.54492 9.79321Z" fill="#8F9194"/>
<path d="M3.81934 9.86108L3.93712 9.88973L3.81934 9.86108Z" fill="#5F6062"/>
<path d="M4.2666 9.96265L4.39509 9.9913L4.2666 9.96265Z" fill="#515254"/>
<path d="M3.40527 9.75562L3.5252 9.78647L3.40527 9.75562Z" fill="#848689"/>
<path d="M3.96777 9.89648L4.23547 9.95598L3.96777 9.89648Z" fill="#A1A3A6"/>
<path d="M2.88965 9.6106L2.99887 9.64366L2.88965 9.6106Z" fill="#8C8E90"/>
<path d="M2.7832 9.57788L2.87529 9.60653L2.7832 9.57788Z" fill="#757679"/>
<path d="M2.65527 9.53589L2.75807 9.56894L2.65527 9.53589Z" fill="#434345"/>
<path d="M3.28125 9.72266L3.37976 9.7491L3.28125 9.72266Z" fill="#58595B"/>
<path d="M4.625 10.0396L4.69996 10.055L4.625 10.0396Z" fill="#DEDFE0"/>
<path d="M3.13867 9.68311L3.25217 9.71616L3.13867 9.68311Z" fill="#BCBEC0"/>
<path d="M3.02539 9.66113L3.11748 9.68978L3.02539 9.66113Z" fill="#464547"/>
<path d="M8.5195 10.6746L8.38672 10.657L8.5195 10.6746Z" fill="#AFB1B4"/>
<path d="M6.05078 10.303L6.10646 10.314L6.05078 10.303Z" fill="#808285"/>
<path d="M5.5166 10.2107L5.6815 10.2415L5.5166 10.2107Z" fill="#828487"/>
<path d="M4.7168 10.0591L4.84101 10.0833L4.7168 10.0591Z" fill="#565759"/>
<path d="M6.72852 10.415L6.82917 10.4327L6.72852 10.415Z" fill="#3B3B3C"/>
<path d="M6.38574 10.3604L6.72625 10.4154L6.38574 10.3604Z" fill="#A1A3A6"/>
<path d="M5.06445 10.1272L5.19295 10.1514L5.06445 10.1272Z" fill="#DEDFE0"/>
<path d="M4.88672 10.1011L5.01735 10.1275L4.88672 10.1011Z" fill="#848689"/>
<path d="M9.12106 10.7603L8.98828 10.7427L9.12106 10.7603Z" fill="#C7C8CA"/>
<path d="M7.19351 10.4876L7.05859 10.4678L7.19351 10.4876Z" fill="#616264"/>
<path d="M5.19531 10.1536L5.28097 10.169L5.19745 10.1536H5.19531Z" fill="#D8D9DA"/>
<path d="M0.260742 8.15405L2.65286 9.53646L0.260742 8.15405Z" fill="#A9ABAE"/>
<path d="M6.82338 0.804443L3.58105 3.07033L6.12523 1.99123L6.82338 0.804443Z" fill="#AFB1B4"/>
<path d="M4.12501 3.60439L6.12523 1.99121L3.58105 3.07033L4.16998 3.64834L4.12501 3.60439Z" fill="#E2E3E4"/>
<path d="M4.95329 4.41536L4.88477 4.34723L5.77351 5.21974L6.12687 1.99121L4.95329 4.41536Z" fill="#ABADB0"/>
<path d="M4.1709 3.64819L4.46858 3.94129L4.1709 3.64819Z" fill="#B1B3B6"/>
<path d="M6.12717 1.99121L4.12695 3.60435L4.17193 3.64831L4.4696 3.94061L6.12717 1.99121Z" fill="#7D7E81"/>
<path d="M4.46875 3.94043L4.88421 4.34813L4.46875 3.94043Z" fill="#5C5D60"/>
<path d="M6.12632 1.99121L4.46875 3.94063L4.88421 4.34722L4.95274 4.41535L6.12632 1.99121Z" fill="#CDCFD0"/>
<path d="M3.58163 3.07031L0.424973 6.11862L0.356445 6.97795L3.58163 3.07031Z" fill="#808285"/>
<path d="M0.260742 8.15375L2.186 5.20654L2.66786 4.46809L2.9227 4.07909L3.5823 3.07031L0.297148 7.7054L0.260742 8.15375Z" fill="#EFEFF0"/>
<path d="M0.296875 7.70535L3.58204 3.07031L0.356839 6.9779L0.296875 7.70535Z" fill="#636466"/>
<path d="M5.77313 5.21973L0.866802 7.22629L0.260742 8.15375L5.77313 5.21973Z" fill="#86888A"/>
<path d="M2.85885 5.56911L2.66825 4.46802L2.1864 5.20647L0.867188 7.22623L2.85885 5.56911Z" fill="#3E3E3F"/>
<path d="M2.66837 4.46802L2.18652 5.20649L2.66837 4.46802Z" fill="#A5A7AA"/>
<path d="M2.8576 5.56893L2.92185 4.07886L2.66699 4.46786L2.8576 5.56893Z" fill="#BABCBE"/>
<path d="M2.92184 4.07886L2.66699 4.46892L2.92184 4.07886Z" fill="#919396"/>
<path d="M2.92285 4.07907L3.58245 3.07031L2.92285 4.07907Z" fill="#6B6C6F"/>
<path d="M2.85742 5.56916L3.58127 3.07031L2.92167 4.07908L2.85742 5.56916Z" fill="#BCBEC0"/>
<path d="M2.92285 4.07907L3.58245 3.07031L2.92285 4.07907Z" fill="#434345"/>
<path d="M6.1268 1.99121L5.77344 5.21974L10.5384 3.20218L6.1268 1.99121Z" fill="#C6C6C6"/>
<path d="M14.303 6.09657V3.20215H10.5381L14.303 6.09657Z" fill="#F1F2F2"/>
<path d="M11.4896 7.96907L14.3036 6.09657L8.72266 5.52295L11.4896 7.96907Z" fill="#6F7173"/>
<path d="M9.6925 9.16252L8.72237 5.52302L6.82495 6.27685L5.77344 5.21973L9.6925 9.16252Z" fill="#3E3E3F"/>
<path d="M10.5384 3.20215L5.77344 5.21968L8.72237 5.52297L10.5384 3.20215Z" fill="#393839"/>
<path d="M9.6925 9.16252L5.77344 5.21973L7.60876 10.5493L9.6925 9.16252Z" fill="#616264"/>
<path d="M8.72237 5.52385L5.77344 5.21973L8.72237 5.52385Z" fill="#393839"/>
<path d="M8.72237 5.52302L5.77344 5.21973L6.82495 6.27686L8.72237 5.52302Z" fill="#CBCCCE"/>
<path d="M8.72266 5.52295L9.69278 9.16243L10.6629 8.51849L8.72266 5.52295Z" fill="#9FA1A4"/>
<path d="M10.6629 8.51849L11.4896 7.96905L8.72266 5.52295L10.6629 8.51849Z" fill="#4D4D4F"/>
<path d="M1.27799 8.74053L2.65287 9.53612L2.72782 6.84167L4.06845 7.57792L5.77313 5.21973L0.260742 8.15374L1.27799 8.74053Z" fill="#A5A7AA"/>
<path d="M2.65321 9.53609L1.27832 8.74048L2.65321 9.53609Z" fill="#6B6C6F"/>
<path d="M0.260742 8.15405L1.27798 8.74245L0.260742 8.15405Z" fill="#8F9194"/>
<path d="M1.27798 8.74086L0.260742 8.15405L2.65286 9.53646L1.27798 8.74086Z" fill="#D3D5D6"/>
<path d="M4.06816 7.5778L2.72754 6.84155L3.38928 8.51844L4.06816 7.5778Z" fill="#67686B"/>
<path d="M3.17041 8.82178L2.6543 9.53606L3.14471 8.85694L3.17041 8.82178Z" fill="#393839"/>
<path d="M3.19184 8.79297L2.6543 9.5358L3.17042 8.82154L3.19184 8.79297Z" fill="#95979A"/>
<path d="M3.19183 8.79315L3.391 8.51843L2.72925 6.84155L2.6543 9.53599L3.19183 8.79315Z" fill="#CFD1D2"/>
<path d="M14.2686 11.2943H14.305L14.2707 11.2524L14.2686 11.2943Z" fill="#565759"/>
<path d="M7.61054 10.5404C9.88488 10.87 12.1935 11.0986 13.4163 11.1997L13.6733 11.2239L13.9538 10.8678L11.4889 7.96899L10.6623 8.51843L10.0005 8.95798L7.6084 10.5404H7.61054Z" fill="#48484A"/>
<path d="M9.69213 9.16241L7.6084 10.5492L10.0005 8.95801L9.69213 9.16241Z" fill="#464547"/>
<path d="M9.69214 9.16235L7.6084 10.5491L9.69214 9.16235Z" fill="#808285"/>
<path d="M10.001 8.95906L10.6627 8.51831L10.001 8.95906Z" fill="#5C5D60"/>
<path d="M10.0008 8.95906L10.6625 8.51831L9.69238 9.16402L10.0008 8.95906Z" fill="#939598"/>
<path d="M10.6611 8.51994L11.4878 7.96899L10.6611 8.51994Z" fill="#ABADB0"/>
<path d="M10.6611 8.51994L11.4878 7.96899L10.6611 8.51994Z" fill="#E6E7E8"/>
<path d="M5.70487 10.2456L6.0261 10.3005H6.0518L6.3816 10.3555H6.39445L6.73496 10.4104L6.90843 10.439L7.25751 10.4917L7.61086 10.5445L4.85681 9.22583L2.65527 9.53792L2.75593 9.57088H2.78377L2.87585 9.59945H2.8887L2.99793 9.63242H3.02576L3.11785 9.65879H3.13927L3.25277 9.69176H3.28061L3.37698 9.71813H3.40482L3.52261 9.7489H3.54617L3.6511 9.77527H3.68108L3.8053 9.80604H3.82029L3.93593 9.83242H3.96806L4.23575 9.89175H4.26573L4.39423 9.92032H4.40494L4.54414 9.9489H4.57412L4.70047 9.97527H4.71761L4.86537 10.0038H4.88679L5.01742 10.0302H5.04098L5.19089 10.0588H5.20588L5.34723 10.0852H5.37078L5.68131 10.1423L5.70487 10.2456Z" fill="#B1B3B6"/>
<path d="M3.14471 8.85676L2.6543 9.53585L4.85583 9.22378L3.391 8.51831L3.14471 8.85676Z" fill="#9B9DA0"/>
<path d="M3.16925 8.82243L3.14355 8.85769L3.38984 8.51831L3.16925 8.82243Z" fill="#58595B"/>
<path d="M3.38953 8.51831L3.19036 8.79378L3.16895 8.82243L3.38953 8.51831Z" fill="#464547"/>
<path d="M3.3896 8.51831L3.19043 8.79378L3.3896 8.51831Z" fill="#5C5D60"/>
<path d="M4.06853 7.57788L5.66399 9.39323L3.38965 8.51852L4.85448 9.22401L7.60854 10.5493L5.79677 9.0262L4.06853 7.57788Z" fill="#67686B"/>
<path d="M3.38965 8.51831L4.85448 9.22377L3.38965 8.51831Z" fill="#67686B"/>
<path d="M3.38965 8.51852L5.664 9.39322L4.06853 7.57788L3.38965 8.51852Z" fill="#737577"/>
<path d="M3.38965 8.51849L4.06854 7.57788L3.38965 8.51849Z" fill="#C4C6C8"/>
<path d="M3.38965 8.51849L4.06854 7.57788L3.38965 8.51849Z" fill="#AFB1B4"/>
<path d="M5.78474 6.77575L5.79759 9.02628L5.77404 5.21973L4.06934 7.57794L5.78474 6.77575Z" fill="#393839"/>
<path d="M4.06934 7.57794L5.77403 5.21973L4.06934 7.57794Z" fill="#363436"/>
<path d="M5.79759 9.0264L5.78474 6.77588L5.2986 8.60882L4.46981 7.91433L5.78474 6.77588L4.06934 7.57807L5.79759 9.0264Z" fill="#414042"/>
<path d="M4.06934 7.57788L5.79759 9.02622L4.06934 7.57788Z" fill="#333132"/>
<path d="M5.7959 7.88334L7.60766 10.5492L6.62897 7.70532L5.7959 7.88334Z" fill="#97999C"/>
<path d="M5.29754 8.6088L5.78368 6.77588L4.46875 7.91431L5.29754 8.6088Z" fill="#D8D9DA"/>
<path d="M14.3034 3.20218L6.12695 1.99121L10.5386 3.20218H14.3034Z" fill="#9B9DA0"/>
<path d="M14.3035 3.20218L6.8252 0.804443L8.31144 1.83738L14.3035 3.20218Z" fill="#B2B2B2"/>
<path d="M8.31134 1.83739L6.8251 0.804443L6.12695 1.99124L8.31134 1.83739Z" fill="#BEC0C2"/>
<path d="M8.31135 1.83716L6.12695 1.991L14.3034 3.20195L8.31135 1.83716Z" fill="#BEC0C2"/>
<path d="M14.2709 11.257L14.303 10.4482L13.9561 10.8878L14.2709 11.257Z" fill="#F1F2F2"/>
<path d="M13.71 11.2467H13.7614H13.8364H13.9392L14.2304 11.271H14.2711V11.2335L13.9563 10.8633L13.6758 11.2203L13.71 11.2467Z" fill="#545456"/>
<path d="M16.1402 13.1207L18.7037 13.7339L18.4017 13.3801L17.2345 12.046L19.0956 11.6284L14.3027 12.6812L16.1402 13.1207Z" fill="#9D9FA2"/>
<path d="M16.3184 17.6281L20.0575 13.3799L16.4661 17.4633L16.3184 17.6281Z" fill="#D8D9DA"/>
<path d="M18.7041 13.7339L20.8435 11.6438L19.1003 11.6284L18.7041 13.7339Z" fill="#5F6062"/>
<path d="M16.4657 15.9184L14.3027 14.2524V15.9184H15.1058H16.4657Z" fill="#A7A9AC"/>
<path d="M28.3478 8.15405L26.868 9.39359L20.8438 11.6441L21.5933 12.2573L20.8438 11.6441L26.868 9.39359L28.3478 8.15405Z" fill="#B3B5B8"/>
<path d="M20.8443 12.6814L21.5939 12.2572L21.0006 14.3099L20.4717 14.7539L26.8685 9.39355L21.5939 12.2572L20.8443 12.6814Z" fill="#B1B3B6"/>
<path d="M20.0571 13.3799L16.3179 17.6281L15.4163 18.6545L14.3027 19.9182L18.9157 16.0545L20.0571 13.3799Z" fill="#B6B8BA"/>
<path d="M20.0575 13.3799L18.916 16.0545L20.4708 14.7535L20.9998 14.3095L20.0575 13.3799Z" fill="#4F4F51"/>
<path d="M20.9999 14.3097L20.8436 12.6812L20.0576 13.38L20.9999 14.3097Z" fill="#8A8C8E"/>
<path d="M21.5933 12.2568L20.8438 12.681L21.0001 14.3095L21.5933 12.2568Z" fill="#828487"/>
<path d="M14.3027 19.2745V19.9185L15.4163 18.6548L14.3027 19.2745Z" fill="#6B6C6F"/>
<path d="M14.3027 19.9185L15.4163 18.6548L14.3027 19.9185Z" fill="#97999C"/>
<path d="M15.4163 18.6548L14.3027 18.809V19.2762L15.4163 18.6548Z" fill="#A1A3A6"/>
<path d="M15.4163 18.6551L14.3027 18.481V18.8093L15.4163 18.6551Z" fill="#B6B8BA"/>
<path d="M15.4163 18.6547L14.3027 17.8877V18.4811L15.4163 18.6547Z" fill="#77787B"/>
<path d="M15.416 17.8876V18.6546L16.3176 17.6282L16.4654 17.4634L15.416 17.8876Z" fill="#737577"/>
<path d="M15.416 18.6545L16.3176 17.6282L15.416 18.6545Z" fill="#C2C4C6"/>
<path d="M15.4163 18.6547V17.8877H14.3027L15.4163 18.6547Z" fill="#DEDFE0"/>
<path d="M16.4657 17.4634L14.3027 17.8887H15.4163L16.4657 17.4634Z" fill="#888A8C"/>
<path d="M21.5933 12.2573L26.868 9.39355L20.8438 11.6441L21.5933 12.2573Z" fill="#9D9D9C"/>
<path d="M15.189 11.2195L14.6943 11.2658L15.3625 11.2041L15.1912 11.2195H15.189Z" fill="#67686B"/>
<path d="M21.5498 10.4676L21.7061 10.4434L21.5498 10.4676Z" fill="#797A7D"/>
<path d="M20.999 10.5407L20.8213 10.5671L21.3545 10.4878L20.999 10.5407Z" fill="#A3A5A8"/>
<path d="M20.575 10.6084L20.2109 10.6591L20.575 10.6084Z" fill="#545456"/>
<path d="M17.0185 11.0391L16.3418 11.1096L17.0185 11.0391Z" fill="#E0E1E2"/>
<path d="M16.3419 11.1099L16.0742 11.1363L16.3419 11.1099Z" fill="#BABCBE"/>
<path d="M15.9023 11.1536L15.6582 11.1756L15.9023 11.1536Z" fill="#E2E3E4"/>
<path d="M15.6618 11.1755L15.5098 11.191L15.6618 11.1755Z" fill="#CDCFD0"/>
<path d="M17.5411 10.9797L17.0186 11.0348L17.5411 10.9797Z" fill="#EFEFF0"/>
<path d="M16.0745 11.136L15.9053 11.1536L16.0745 11.136Z" fill="#696A6D"/>
<path d="M19.9723 10.6924L19.6104 10.7387L19.9723 10.6924Z" fill="#BCBEC0"/>
<path d="M20.8281 10.5757L20.584 10.6087L20.8281 10.5757Z" fill="#8F9194"/>
<path d="M19.2475 10.7844L19.0098 10.8131L19.2475 10.7844Z" fill="#D3D5D6"/>
<path d="M18.0893 10.9229L17.541 10.9846L18.0893 10.9229Z" fill="#DEDFE0"/>
<path d="M18.4294 10.8833L18.0889 10.923L18.4294 10.8833Z" fill="#BABCBE"/>
<path d="M19.4848 10.76L19.2471 10.7909L19.4848 10.76Z" fill="#DCDDDE"/>
<path d="M15.507 11.1997L15.3613 11.2129L15.507 11.1997Z" fill="#717375"/>
<path d="M21.707 10.4436L21.7798 10.4326L21.7092 10.4436H21.707Z" fill="#717375"/>
<path d="M25.852 9.56894H25.8263L25.7321 9.59751H25.7192L25.61 9.63048H25.5822L25.4901 9.65905H25.4687L25.3552 9.69202H25.3294L25.2309 9.71839H25.2052L25.0853 9.74916H25.0639L24.9568 9.77553H24.929L24.8005 9.8063H24.7898L24.6827 9.88103H24.6506L24.3829 9.94036H24.3529L24.2244 9.96893H24.2073L24.0745 9.99531H24.0445L23.9931 10.0063L23.9182 10.0217H23.901L23.7768 10.0459H23.7533H23.734L23.6012 10.0722H23.5777H23.5541L23.4256 10.0964H23.3978L23.3121 10.1118L23.2564 10.1228H23.2329L22.9202 10.1799H22.8966H22.8538L22.5754 10.2283H22.5583L22.5026 10.2393L22.2285 10.2832H22.2156L22.1449 10.2964L21.8751 10.3382L21.7745 10.3557L21.7016 10.3667L21.5453 10.3909L21.4104 10.4107H21.3483L20.815 10.4898L20.5709 10.5228L20.2068 10.5733L19.9627 10.6063L19.6008 10.6524L19.4808 10.6678L19.2431 10.6986L19.0054 10.7272L18.4251 10.7975L18.0845 10.8371L17.5363 10.8986L17.0138 10.9535L16.337 11.0239L16.0693 11.0502L15.9002 11.0678L15.656 11.0898L15.504 11.1052L15.3583 11.1184L14.6902 11.1799H14.6366H14.5403H14.4546H14.3925H14.3047V11.4722L19.0996 11.5096L20.8429 11.5249L26.8671 9.27444L28.3469 8.03491L25.9548 9.4173L25.852 9.56894Z" fill="#DADADA"/>
<path d="M21.5933 12.2567L20.8438 11.6436V12.6809L21.5933 12.2567Z" fill="#3B3B3C"/>
<path d="M20.8436 12.6809V11.6436L20.0576 13.3798L20.8436 12.6809Z" fill="#4D4D4F"/>
<path d="M18.7037 13.7336L17.9885 14.4303L16.4658 15.9182L20.0572 13.3798L20.8432 11.6436L18.7037 13.7336Z" fill="#8D9092"/>
<path d="M16.4658 17.4633L18.0998 15.1578L20.0572 13.3799L16.4658 15.9183V17.4633Z" fill="#A7A9AC"/>
<path d="M16.4658 17.4633L20.0572 13.3799L18.0998 15.1578L16.4658 17.4633Z" fill="#9D9FA2"/>
<path d="M14.3027 11.5913V12.6814L19.0956 11.6287L14.3027 11.5913Z" fill="#878787"/>
<path d="M19.0956 11.6288H19.0998L14.3027 11.5913L19.0956 11.6288Z" fill="#ADAFB2"/>
<path d="M19.0954 11.6284L17.2344 12.046L18.4015 13.38L19.0997 11.6284H19.0954Z" fill="#B8BABC"/>
<path d="M18.4023 13.3801L18.7043 13.7339L19.1005 11.6284L18.4023 13.3801Z" fill="#9FA1A4"/>
<path d="M16.4657 15.918L14.3027 17.8872L16.4657 17.463V15.918Z" fill="#6F7173"/>
<path d="M14.3027 15.918V16.4755L15.1058 15.918H14.3027Z" fill="#EFEFF0"/>
<path d="M15.1058 15.918L15.335 16.9465L14.3027 17.8872L16.4657 15.918H15.1058Z" fill="#565759"/>
<path d="M14.3027 16.4741V17.8873L15.335 16.9466L14.3027 16.4741Z" fill="#565759"/>
<path d="M15.1058 15.918L14.3027 16.474L15.335 16.9465L15.1058 15.918Z" fill="#AFB1B4"/>
<path d="M16.0742 13.9336L16.4661 15.9182L17.9888 14.4303L16.0742 13.9336Z" fill="#8D9092"/>
<path d="M16.4658 15.9185L17.9885 14.4307L16.4658 15.9185Z" fill="#E9E9EA"/>
<path d="M18.7041 13.7336L16.0742 13.9336L17.9888 14.4303L18.7041 13.7336Z" fill="#A5A7AA"/>
<path d="M17.9893 14.4303L18.7045 13.7336L17.9893 14.4303Z" fill="#DCDDDE"/>
<path d="M16.0738 13.9336L15.9903 15.5533L15.6219 15.2281L16.0738 13.9336L14.3027 14.2523L16.4657 15.9182L16.0738 13.9336Z" fill="#A7A9AC"/>
<path d="M15.9904 15.5533L16.0739 13.9336L15.6221 15.2281L15.9904 15.5533Z" fill="#CFD1D2"/>
<path d="M18.7036 13.7339L16.1402 13.1207L14.9645 14.1339L14.3027 12.6812V14.2526L16.0738 13.9339L18.7036 13.7339Z" fill="#EDEDEE"/>
<path d="M16.1402 13.1219L14.3027 12.6812L16.1402 13.1219Z" fill="#828487"/>
<path d="M16.1402 13.1207L14.5447 13.2086L14.4312 12.9603L16.1402 13.1207L14.3027 12.6812L14.9645 14.1339L16.1402 13.1207Z" fill="#B8BABC"/>
<path d="M14.4307 12.9602L14.5442 13.2092L16.1396 13.1211L14.4307 12.9602Z" fill="#CBCCCE"/>
<path d="M24.1401 3.94062L23.7247 4.3472L22.8359 5.21971L27.7423 7.22625L25.7506 5.56915L25.0289 3.07031L24.4378 3.64832L24.1401 3.94062Z" fill="#828487"/>
<path d="M25.9553 9.53814L25.4648 8.85718L25.9553 9.53814Z" fill="#C2C4C6"/>
<path d="M14.3027 6.09658V10.4481V11.2987L14.337 11.2569L14.3027 10.4481L14.6518 10.8877L17.1189 7.96907L14.3027 6.09658V3.20213L21.7832 0.80438L17.2345 0H14.3027V3.20213V6.09658Z" fill="#95979A"/>
<path d="M21 10.5407L21.3534 10.4878L21 10.5407Z" fill="#919396"/>
<path d="M24.9279 9.82593L24.8037 9.85678L24.9279 9.82593Z" fill="#DCDDDE"/>
<path d="M24.6407 9.89648L24.373 9.95598L24.6407 9.89648Z" fill="#67686B"/>
<path d="M21.3555 10.4962H21.4154L21.5504 10.4764L21.7045 10.4521L21.3555 10.4962Z" fill="#393839"/>
<path d="M25.062 9.79321L24.957 9.81966L25.062 9.79321Z" fill="#97999C"/>
<path d="M24.7876 9.86108L24.6826 9.88092L24.7876 9.86108Z" fill="#434345"/>
<path d="M22.2354 10.3581L22.5095 10.314L22.5651 10.303L22.2354 10.3581Z" fill="#363436"/>
<path d="M23.7432 10.0877H23.7667L23.8909 10.0635L23.7432 10.0877Z" fill="#77787B"/>
<path d="M21.709 10.4437L21.7797 10.4327L21.8803 10.415L21.709 10.4437Z" fill="#B8BABC"/>
<path d="M23.9832 10.0393L24.0346 10.0283L23.9082 10.0548L23.9832 10.0393Z" fill="#B8BABC"/>
<path d="M23.417 10.1514L23.5433 10.1272H23.5669L23.417 10.1514Z" fill="#B8BABC"/>
<path d="M24.0625 10.0218L24.1953 9.99536L24.0625 10.0218Z" fill="#A3A5A8"/>
<path d="M23.5898 10.1187L23.7205 10.0923L23.5898 10.1187Z" fill="#B3B5B8"/>
<path d="M22.1526 10.3736L22.2233 10.3604L21.8828 10.4154L22.1526 10.3736Z" fill="#737577"/>
<path d="M25.2068 9.75562L25.0869 9.78647L25.2068 9.75562Z" fill="#EDEDEE"/>
<path d="M22.8614 10.2529H22.9042L22.583 10.308L22.8614 10.2529Z" fill="#4D4D4F"/>
<path d="M23.2637 10.18L23.3194 10.169L23.4029 10.1536L23.2637 10.18Z" fill="#9D9FA2"/>
<path d="M24.3433 9.96265L24.2148 9.9913L24.3433 9.96265Z" fill="#5F6062"/>
<path d="M15.189 11.2192L14.932 11.2435H14.8785H14.8464H14.7757H14.6943L15.189 11.2192Z" fill="#828487"/>
<path d="M28.3471 8.15326L26.4219 5.20605L27.7411 7.2258L28.3471 8.15326Z" fill="#ADAFB2"/>
<path d="M19.8858 5.52296L18.0697 3.20215L14.3027 6.09657L19.8858 5.52296Z" fill="#656668"/>
<path d="M23.2394 10.1846L22.9268 10.2419L23.2394 10.1846Z" fill="#AFB1B4"/>
<path d="M25.8245 9.57788L25.7324 9.60653L25.8245 9.57788Z" fill="#EDEDEE"/>
<path d="M25.4699 9.68311L25.3564 9.71616L25.4699 9.68311Z" fill="#A5A7AA"/>
<path d="M25.5833 9.66113L25.4912 9.68758L25.5833 9.66113Z" fill="#DEDFE0"/>
<path d="M25.9532 9.53589L25.8525 9.56894L25.9532 9.53589Z" fill="#E0E1E2"/>
<path d="M25.7194 9.6106L25.6123 9.64366L25.7194 9.6106Z" fill="#E6E7E8"/>
<path d="M21.9787 7.7054L22.8118 7.88342L21 10.5493L22.8118 9.02626L22.8353 5.21973L21 10.5493L21.9787 7.7054Z" fill="#808285"/>
<path d="M25.3259 9.72266L25.2295 9.7491L25.3259 9.72266Z" fill="#DCDDDE"/>
<path d="M15.1914 11.2202L15.3627 11.2048L15.5084 11.1916L15.6604 11.1762L15.9045 11.1542L16.0737 11.1366L16.3414 11.1102L17.0182 11.0398L17.5407 10.9848L18.0889 10.9233L18.4294 10.8837L19.0098 10.8133L19.2475 10.7847L19.4852 10.7539L19.6052 10.7385L19.9671 10.6923L20.2112 10.6593L20.5753 10.6087L20.8194 10.5757L20.9972 10.5493C18.7228 10.8793 16.4142 11.108 15.1914 11.2202Z" fill="#717375"/>
<path d="M22.583 10.3014L22.8614 10.2529L22.583 10.3014Z" fill="#BEC0C2"/>
<path d="M23.415 10.1514L23.5435 10.1272L23.4172 10.1514H23.415Z" fill="#C2C4C6"/>
<path d="M23.5898 10.1187L23.7226 10.0923L23.5898 10.1187Z" fill="#616264"/>
<path d="M23.9082 10.055L23.9832 10.0396L23.9082 10.055Z" fill="#7B7C7F"/>
<path d="M25.4912 9.67684L25.5833 9.64819L25.4912 9.67684Z" fill="#CBCCCE"/>
<path d="M23.7666 10.0833L23.8908 10.0591L23.7666 10.0833Z" fill="#414042"/>
<path d="M25.6123 9.64366L25.7215 9.6106L25.6123 9.64366Z" fill="#828487"/>
<path d="M21.7803 10.4327L21.8809 10.415L21.7803 10.4327Z" fill="#48484A"/>
<path d="M23.3184 10.169L23.404 10.1536L23.3184 10.169Z" fill="#DEDFE0"/>
<path d="M21.549 10.4678L21.4141 10.4876L21.549 10.4678Z" fill="#BCBEC0"/>
<path d="M25.9542 9.53589L25.8535 9.56894L25.9563 9.53589H25.9542Z" fill="#D3D5D6"/>
<path d="M25.7324 9.60653L25.8267 9.57788L25.7324 9.60653Z" fill="#616264"/>
<path d="M21.8828 10.4149L22.1526 10.373L21.8828 10.4149Z" fill="#3E3E3F"/>
<path d="M24.957 9.81966L25.0641 9.79321L24.957 9.81966Z" fill="#828487"/>
<path d="M22.5107 10.3206L22.5664 10.3096L22.5107 10.3206Z" fill="#95979A"/>
<path d="M24.373 9.95598L24.6407 9.89648L24.373 9.95598Z" fill="#EDEDEE"/>
<path d="M25.2314 9.7491L25.33 9.72266L25.2314 9.7491Z" fill="#737577"/>
<path d="M24.8037 9.85678L24.9322 9.82593L24.8037 9.85678Z" fill="#ADAFB2"/>
<path d="M25.3564 9.71616L25.4699 9.68311L25.3564 9.71616Z" fill="#E4E5E6"/>
<path d="M25.0869 9.78647L25.2068 9.75562L25.0869 9.78647Z" fill="#717375"/>
<path d="M24.2148 9.9913L24.3433 9.96265L24.2148 9.9913Z" fill="#6D6E71"/>
<path d="M24.6826 9.88119L24.8004 9.85254L24.6826 9.88119Z" fill="#5A5B5D"/>
<path d="M25.9551 9.53646L28.3472 8.15405L25.9551 9.53646Z" fill="#6F7173"/>
<path d="M25.0277 3.07033L21.7832 0.804443L22.4814 1.99123L25.0277 3.07033Z" fill="#C2C4C6"/>
<path d="M23.7226 4.34723L23.6541 4.41536L22.4805 1.99121L22.8338 5.21974L23.7226 4.34723Z" fill="#58595B"/>
<path d="M24.4807 3.60439L24.4357 3.64834L25.0268 3.07033L22.4805 1.99121L24.4807 3.60439Z" fill="#B6B8BA"/>
<path d="M24.1396 3.94129L24.4373 3.64819L24.1396 3.94129Z" fill="#9D9FA2"/>
<path d="M24.4357 3.64831L24.4807 3.60435L22.4805 1.99121L24.138 3.94061L24.4357 3.64831Z" fill="#434345"/>
<path d="M23.7227 4.34813L24.1381 3.94043L23.7227 4.34813Z" fill="#CFD1D2"/>
<path d="M23.7226 4.34722L24.138 3.94063L22.4805 1.99121L23.6541 4.41535L23.7226 4.34722Z" fill="#828487"/>
<path d="M28.1819 6.11862L25.0273 3.07031L28.2525 6.97795L28.1819 6.11862Z" fill="#A7A9AC"/>
<path d="M25.6848 4.07908L25.9397 4.46808L26.4215 5.20653L28.3468 8.15373L28.3104 7.70539L25.0273 3.07031L25.6848 4.07908Z" fill="#C7C8CA"/>
<path d="M28.2526 6.9779L25.0273 3.07031L28.3104 7.70535L28.2526 6.9779Z" fill="#6D6E71"/>
<path d="M28.3483 8.15375L27.7423 7.22629L22.8359 5.21973L28.3483 8.15375Z" fill="#A5A7AA"/>
<path d="M25.9406 4.46802L25.75 5.56911L27.7417 7.22623L26.4225 5.20647L25.9406 4.46802Z" fill="#8A8C8E"/>
<path d="M26.4223 5.20649L25.9404 4.46802L26.4223 5.20649Z" fill="#6D6E71"/>
<path d="M25.6855 4.07886L25.7498 5.56893L25.9404 4.46786L25.6855 4.07886Z" fill="#7B7C7F"/>
<path d="M25.9404 4.46892L25.6855 4.07886L25.9404 4.46892Z" fill="#ADAFB2"/>
<path d="M25.6848 4.07907L25.0273 3.07031L25.6848 4.07907Z" fill="#E6E7E8"/>
<path d="M25.6848 4.07908L25.0273 3.07031L25.7491 5.56916L25.6848 4.07908Z" fill="#3B3B3C"/>
<path d="M25.6848 4.07907L25.0273 3.07031L25.6848 4.07907Z" fill="#9D9FA2"/>
<path d="M22.8353 5.21974L22.4819 1.99121L18.0703 3.20218L22.8353 5.21974Z" fill="#9FA1A4"/>
<path d="M14.3027 3.20215V6.09657L18.0697 3.20215H14.3027Z" fill="#6F7173"/>
<path d="M19.8861 5.52302L18.916 9.16252L22.8351 5.21973L21.7836 6.27685L19.8861 5.52302Z" fill="#E6E7E8"/>
<path d="M17.1189 7.96907L19.8858 5.52295L14.3027 6.09657L17.1189 7.96907Z" fill="#B8BABC"/>
<path d="M19.8864 5.52297L22.8353 5.21968L18.0703 3.20215L19.8864 5.52297Z" fill="#EDEDEE"/>
<path d="M20.9998 10.5493L22.8351 5.21973L18.916 9.16252L20.9998 10.5493Z" fill="#A3A5A8"/>
<path d="M19.8867 5.52385L22.8356 5.21973L19.8867 5.52385Z" fill="#A7A9AC"/>
<path d="M21.7841 6.27686L22.8357 5.21973L19.8867 5.52302L21.7841 6.27686Z" fill="#A7A9AC"/>
<path d="M17.9453 8.51849L18.9154 9.16243L19.8856 5.52295L17.9453 8.51849Z" fill="#B8BABC"/>
<path d="M19.887 5.52295L17.1201 7.96905L17.9468 8.51849L19.887 5.52295Z" fill="#67686B"/>
<path d="M25.8812 6.84167L25.9562 9.53612L27.3332 8.74053L28.3483 8.15374L22.8359 5.21973L24.5406 7.57792L25.8812 6.84167Z" fill="#E2E3E4"/>
<path d="M25.9551 9.53609L27.3321 8.74048L25.9551 9.53609Z" fill="#757679"/>
<path d="M28.3471 8.15405L27.332 8.74245L28.3471 8.15405Z" fill="#AFB1B4"/>
<path d="M27.3321 8.74086L25.9551 9.53646L28.3472 8.15405L27.3321 8.74086Z" fill="#797A7D"/>
<path d="M25.8797 6.84155L24.5391 7.5778L25.2179 8.51844L25.8797 6.84155Z" fill="#CBCCCE"/>
<path d="M25.4642 8.85694L25.9546 9.53606L25.4385 8.82178L25.4642 8.85694Z" fill="#8A8C8E"/>
<path d="M25.4394 8.82154L25.9555 9.5358L25.418 8.79297L25.4394 8.82154Z" fill="#636466"/>
<path d="M25.2188 8.51843L25.4179 8.79315L25.9554 9.53599L25.8805 6.84155L25.2188 8.51843Z" fill="#C2C4C6"/>
<path d="M15.1903 11.2197C16.4131 11.1076 18.7217 10.8791 20.996 10.5604L18.9123 9.17361L17.9422 8.52967L17.1155 7.98022L14.6484 10.8989L14.929 11.2549L15.1903 11.2197Z" fill="#8A8C8E"/>
<path d="M14.3226 11.2963H14.3397V11.2588L14.3076 11.3007H14.3248L14.3226 11.2963Z" fill="#B1B3B6"/>
<path d="M14.4035 11.2898H14.4656H14.5512H14.6476H14.6797L14.3906 11.314H14.4035V11.2898Z" fill="#DEDFE0"/>
<path d="M18.916 9.16235L20.9998 10.5491L18.916 9.16235Z" fill="#48484A"/>
<path d="M18.916 9.16235L20.9998 10.5491L18.916 9.16235Z" fill="#D5D7D8"/>
<path d="M17.9453 8.51831L18.9154 9.16402L17.9453 8.51831Z" fill="#363436"/>
<path d="M17.9453 8.51831L18.9154 9.16402L17.9453 8.51831Z" fill="#C9CACC"/>
<path d="M17.1201 7.96899L17.9468 8.51994L17.1201 7.96899Z" fill="#C4C6C8"/>
<path d="M17.9468 8.51994L17.1201 7.96899L17.9468 8.51994Z" fill="#737577"/>
<path d="M24.2145 9.9909L24.343 9.96233H24.373L24.6407 9.90299H24.6728L24.7884 9.87662H24.8034L24.9276 9.84584H24.9576L25.0625 9.81947H25.0861L25.206 9.7887H25.2317L25.3281 9.76233H25.3559L25.4694 9.72936H25.4909L25.583 9.70299H25.6129L25.72 9.67003H25.7329L25.8249 9.64145H25.8528L25.9534 9.60849L23.7541 9.22168L21 10.5403L21.3534 10.4876L21.7024 10.4348L21.8738 10.4063L22.2143 10.3513H22.2271L22.5569 10.2964H22.5741L22.8953 10.2414H22.9188L23.2315 10.1843H23.2551L23.3943 10.1579H23.4093L23.5592 10.1294H23.5827L23.7134 10.103H23.7348L23.8825 10.0744H23.8997L24.026 10.048H24.056L24.1974 10.0195L24.2145 9.9909Z" fill="#656668"/>
<path d="M25.2187 8.51831L23.7539 9.22378L25.9554 9.53585L25.465 8.85676L25.2187 8.51831Z" fill="#696A6D"/>
<path d="M25.2188 8.51831L25.465 8.85769L25.4393 8.82243L25.2188 8.51831Z" fill="#DADBDC"/>
<path d="M25.2188 8.51831L25.4393 8.82243L25.4179 8.79378L25.2188 8.51831Z" fill="#7D7E81"/>
<path d="M25.4179 8.79378L25.2188 8.51831L25.4179 8.79378Z" fill="#848689"/>
<path d="M23.754 9.22401L25.2189 8.51852L22.9445 9.39323L24.54 7.57788L23.3857 8.5449L23.3107 8.60863L22.8118 9.0262L21 10.5493L23.754 9.22401Z" fill="#D8D9DA"/>
<path d="M25.2187 8.51831L23.7539 9.22377L25.2187 8.51831Z" fill="#E4E5E6"/>
<path d="M25.2187 8.51852L24.5398 7.57788L22.9443 9.39322L25.2187 8.51852Z" fill="#B6B8BA"/>
<path d="M25.218 8.51849L24.5391 7.57788L25.218 8.51849Z" fill="#656668"/>
<path d="M25.218 8.51849L24.5391 7.57788L25.218 8.51849Z" fill="#4F4F51"/>
<path d="M22.8105 9.02628L22.8234 6.77575L24.5388 7.57794L22.8341 5.21973L22.8105 9.02628Z" fill="#58595B"/>
<path d="M24.5406 7.57794L22.8359 5.21973L24.5406 7.57794Z" fill="#464547"/>
<path d="M23.9828 8.044L24.5396 7.57807L22.8242 6.77588L24.1391 7.91433L23.9828 8.044Z" fill="#95979A"/>
<path d="M22.8234 6.77588L22.8105 9.0264L23.3095 8.60882L22.8234 6.77588Z" fill="#E9E9EA"/>
<path d="M23.3095 8.60864L22.8105 9.02736L23.3095 8.60864Z" fill="#5A5B5D"/>
<path d="M23.9832 8.04381L23.3857 8.5449L24.54 7.57788L23.9832 8.04381Z" fill="#9D9FA2"/>
<path d="M21.9787 7.70532L21 10.5492L22.8118 7.88334L21.9787 7.70532Z" fill="#616264"/>
<path d="M23.3096 8.60883L23.3845 8.54492L23.3096 8.60883Z" fill="#3B3B3C"/>
<path d="M23.9828 8.04398L24.1391 7.91431L22.8242 6.77588L23.3104 8.6088L23.9828 8.04398Z" fill="#414042"/>
<path d="M23.3096 8.61006L23.3845 8.54616L23.982 8.0437L23.3096 8.61006Z" fill="#E4E5E6"/>
<path d="M20.297 1.83738L21.7832 0.804443L14.3027 3.20218L20.297 1.83738Z" fill="#919396"/>
<path d="M22.4814 1.99121L14.3027 3.20218H18.0697L22.4814 1.99121Z" fill="#A1A3A6"/>
<path d="M22.4823 1.99124L21.7841 0.804443L20.2979 1.83739L22.4823 1.99124Z" fill="#AFB1B4"/>
<path d="M20.297 1.83716L14.3027 3.20195L22.4814 1.991L20.297 1.83716Z" fill="#95979A"/>
<path d="M14.3027 10.4482L14.337 11.257L14.6518 10.8878L14.3027 10.4482Z" fill="#97999C"/>
<path d="M14.3605 11.2934H14.3797L14.6689 11.2691H14.7759H14.8466H14.8787H14.9323L14.6517 10.9121L14.3369 11.2823V11.3198L14.3605 11.2934Z" fill="#656668"/>
<g style="mix-blend-mode:overlay">
<path d="M28.2724 7.22402L28.2531 6.97788L28.1824 6.11855L25.0279 3.07027L21.7835 0.80438L17.2348 0H14.303H11.3733L6.82463 0.80438L3.58231 3.07027L0.42564 6.11855L0.357112 6.97788L0.335695 7.22402L0.260742 8.15368L1.03599 8.80421L1.74056 9.39321L7.60845 14.3096L8.02605 14.659L9.69219 16.0546L14.303 19.9183L18.9159 16.0546L20.4707 14.7535L20.9996 14.3096L26.8675 9.39321L27.5721 8.80421L28.3473 8.15368L28.2724 7.22402Z" fill="#004DE3"/>
</g>
<path style="mix-blend-mode:screen" opacity="0.54" d="M21.783 0.804377L17.2344 0H14.3026H11.3729L6.82422 0.804377L8.31046 1.83731L14.3026 3.20211L20.2968 1.83731L21.783 0.804377Z" fill="url(#paint0_linear)"/>
<defs>
<linearGradient id="paint0_linear" x1="3097.46" y1="1115.39" x2="4142.34" y2="1115.39" gradientUnits="userSpaceOnUse">
<stop offset="0.19"/>
<stop offset="0.37" stop-color="#494949"/>
<stop offset="0.54" stop-color="#8A8A8A"/>
<stop offset="0.69" stop-color="#BCBCBC"/>
<stop offset="0.82" stop-color="#E1E1E1"/>
<stop offset="0.93" stop-color="#F7F7F7"/>
<stop offset="1" stop-color="white"/>
</linearGradient>
</defs>
</svg>
