<svg width="29" height="20" viewBox="0 0 29 20" fill="none" xmlns="http://www.w3.org/2000/svg">
<path d="M12.2283 17.4633L8.63477 13.3794L14.3891 19.9184L13.2776 18.6546L12.2283 17.4633Z" fill="#5A5B5D"/>
<path d="M7.10206 12.256L7.85159 11.6427L1.82532 9.392L0.347656 8.15454L1.82532 9.392L7.85159 11.6427L7.10206 12.256Z" fill="#A1A3A6"/>
<path d="M7.1029 12.2556L7.85243 12.6798L7.1029 12.2556L1.82617 9.3916L8.1137 14.658L7.6961 14.3085L7.1029 12.2556Z" fill="#A3A5A8"/>
<path d="M9.59961 11.6296L11.4585 12.0451L10.2935 13.3792L9.99151 13.7331L12.5528 13.1199L14.3902 12.6803L9.59961 11.6296Z" fill="#E4E5E6"/>
<path d="M13.5894 15.92H14.3903V14.2517L12.2295 15.92H13.5894Z" fill="#7D7E81"/>
<path d="M9.59477 11.6296L7.85156 11.6428L9.99096 13.7331L9.59477 11.6296Z" fill="#4D4D4F"/>
<path d="M9.77834 16.0565L14.3891 19.9184L8.63477 13.3794L9.77834 16.0565Z" fill="#9D9FA2"/>
<path d="M8.63447 13.3794L7.69434 14.3092L8.11194 14.6586L9.77806 16.0566L8.63447 13.3794Z" fill="#AFB1B4"/>
<path d="M7.69434 14.3084L8.63448 13.3787L7.85067 12.6797L7.69434 14.3084Z" fill="#8A8C8E"/>
<path d="M7.10156 12.2561L7.69477 14.309L7.8511 12.6803L7.10156 12.2561Z" fill="#5A5B5D"/>
<path d="M13.2783 18.6541L14.3898 19.9179V19.2739L13.2783 18.6541Z" fill="#D8D9DA"/>
<path d="M14.3898 19.2756V18.8083L13.2783 18.6541L14.3898 19.2756Z" fill="#B1B3B6"/>
<path d="M14.3898 18.8091V18.4807L13.2783 18.6548L14.3898 18.8091Z" fill="#D5D7D8"/>
<path d="M14.3898 18.4807V17.8872L13.2783 18.6543L14.3898 18.4807Z" fill="#656668"/>
<path d="M12.2295 17.4629L13.2788 18.6542V17.8871L12.2295 17.4629Z" fill="#696A6D"/>
<path d="M13.2783 18.6543L14.3898 17.8872H13.2783V18.6543Z" fill="#C2C4C6"/>
<path d="M13.2788 17.8883H14.3903L12.2295 17.4629L13.2788 17.8883Z" fill="#DCDDDE"/>
<path d="M7.85244 11.6423L1.82617 9.3916L7.10291 12.2556L7.85244 11.6423Z" fill="#9D9D9C"/>
<path d="M7.69515 10.5505L7.3418 10.4976L7.87504 10.5769L7.69515 10.5505Z" fill="#3B3B3C"/>
<path d="M10.604 10.9217L10.2764 10.8843L10.604 10.9217Z" fill="#636466"/>
<path d="M11.9739 11.0716L11.6826 11.0408L11.9739 11.0716Z" fill="#EDEDEE"/>
<path d="M13.5032 11.2207H13.4688L13.598 11.234H13.5054L13.5032 11.2207Z" fill="#9B9DA0"/>
<path d="M12.9553 11.1684L12.7959 11.1528L12.9553 11.1684Z" fill="#A9ABAE"/>
<path d="M12.3538 11.1087L12.0732 11.0801L12.3538 11.1087Z" fill="#9FA1A4"/>
<path d="M13.1877 11.1901L13.0391 11.1768L13.1877 11.1901Z" fill="#545456"/>
<path d="M12.62 11.1353L12.3545 11.1089L12.62 11.1353Z" fill="#939598"/>
<path d="M9.67173 10.8122L9.45703 10.7834L9.67173 10.8122Z" fill="#828487"/>
<path d="M11.1541 10.9901L10.9395 10.9658L11.1541 10.9901Z" fill="#8A8C8E"/>
<path d="M10.9355 10.9593L10.6035 10.9219L10.9355 10.9593Z" fill="#DADBDC"/>
<path d="M8.11602 10.6073L7.87402 10.5742L8.11602 10.6073Z" fill="#9FA1A4"/>
<path d="M8.47054 10.6559L8.11719 10.6074L8.47054 10.6559Z" fill="#636466"/>
<path d="M9.44846 10.7834L9.20801 10.7524L9.44846 10.7834Z" fill="#CFD1D2"/>
<path d="M7.00098 10.4426L7.15825 10.467L7.00098 10.4426Z" fill="#717375"/>
<path d="M6.91602 10.4319L6.98876 10.4429L6.91602 10.4319Z" fill="#B6B8BA"/>
<path d="M11.3661 11.0055L11.1514 10.9834L11.3661 11.0055Z" fill="#A7A9AC"/>
<path d="M9.07466 10.737L8.72559 10.6907L9.07466 10.737Z" fill="#5C5D60"/>
<path d="M9.60204 11.6306L9.5957 11.6274L9.60204 11.6306Z" fill="#363436"/>
<path d="M14.379 11.2955H14.3019H14.2398H14.1541H14.0556H14.0021L13.7194 11.2713H13.5994L13.471 11.2581L13.3318 11.2097L13.1861 11.1966L13.0384 11.1834H12.9548L12.7964 11.168H12.7064H12.6186L12.3531 11.1086L12.0725 11.0801H11.9762L11.6849 11.0493H11.5757L11.3616 11.0251L11.1474 11.0031L10.9332 10.979L10.6013 10.9416L10.2737 10.9042L9.91602 10.8603L9.79823 10.8471L9.66974 10.8317L9.45559 10.8031L9.21574 10.7723L9.08296 10.757L8.73389 10.7108L8.61397 10.6954L8.47905 10.6756L8.1257 10.6273L7.8837 10.5943L7.35046 10.5152H7.28836L7.15558 10.4954L6.99925 10.4426L6.92644 10.4317L6.82365 10.4163L6.481 10.3635H6.47029H6.43389L6.19618 10.324H6.1405H6.12122L5.84497 10.2756H5.80214H5.77858L5.61368 10.247L5.46592 10.2185H5.44236H5.38454L5.28603 10.1525L5.15754 10.1283H5.13398H5.11256L4.97979 10.102H4.95837H4.93696L4.81275 10.0778H4.79562L4.72066 10.0624H4.66712H4.63928L4.50651 10.0338H4.48938L4.36089 10.0052H4.3309L4.05465 9.89095H4.02252L3.90474 9.86458H3.89189L3.76554 9.8338H3.7377L3.63062 9.80743H3.60921L3.48928 9.77446H3.46358L3.35865 9.72171H3.33295L3.21945 9.69093H3.19803L3.10381 9.66456H3.07597L2.96889 9.63159H2.95604L2.86181 9.60301H2.83612L2.73332 9.57004L0.347656 8.15454L1.82745 9.39201L7.85586 11.6493L9.59907 11.6362L14.394 11.5988V11.2977L14.379 11.2955Z" fill="#DADADA"/>
<path d="M7.10156 12.2561L7.8511 12.6803V11.6428L7.10156 12.2561Z" fill="#A3A5A8"/>
<path d="M7.85156 12.6803L8.63537 13.3792L7.85156 11.6428V12.6803Z" fill="#EDEDEE"/>
<path d="M10.7062 14.4321L9.99095 13.7331L7.85156 11.6428L8.63536 13.3792L12.2289 15.9201L10.7062 14.4321Z" fill="#7E8083"/>
<path d="M8.63477 13.3794L10.5921 15.1576L12.2282 17.4633V15.9203L8.63477 13.3794Z" fill="#CBCCCE"/>
<path d="M8.63477 13.3794L12.2282 17.4633L10.5921 15.1576L8.63477 13.3794Z" fill="#E9E9EA"/>
<path d="M14.3902 12.68V11.5898L9.59961 11.6294L14.3902 12.68Z" fill="#A1A3A6"/>
<path d="M9.59999 11.6295L14.3906 11.5898L9.5957 11.6273L9.59999 11.6295Z" fill="#9FA1A4"/>
<path d="M10.2938 13.3792L11.4588 12.0451L9.59999 11.6296H9.5957L10.2938 13.3792Z" fill="#848689"/>
<path d="M9.60204 11.6306L9.5957 11.6274V11.6306H9.60204Z" fill="#3E3E3F"/>
<path d="M9.99188 13.7331L10.2938 13.3792L9.5957 11.6296L9.99188 13.7331Z" fill="#ABADB0"/>
<path d="M13.3581 16.9491L12.2295 15.9204V17.4634L14.3903 17.8876L13.3581 16.9491Z" fill="#B8BABC"/>
<path d="M14.3908 16.4758V15.9204H13.5898L14.3908 16.4758Z" fill="#4D4D4F"/>
<path d="M13.5894 15.9204H12.2295L13.3581 16.9491L13.5894 15.9204Z" fill="#E9E9EA"/>
<path d="M13.3584 16.9487L14.3906 17.8873L13.3584 16.9487Z" fill="#E6E7E8"/>
<path d="M14.3906 17.887V16.4736L13.3584 16.9484L14.3906 17.887Z" fill="#636466"/>
<path d="M13.3584 16.9491L14.3906 16.4743L13.5897 15.9204L13.3584 16.9491Z" fill="#7E8083"/>
<path d="M12.2297 15.9198L12.6216 13.9351L10.707 14.4318L12.2297 15.9198Z" fill="#6D6E71"/>
<path d="M10.707 14.4319L12.2297 15.9199L10.707 14.4319Z" fill="#F1F2F2"/>
<path d="M12.622 13.9356L9.99219 13.7332L10.7075 14.4328L12.622 13.9356Z" fill="#EBEBEC"/>
<path d="M10.7075 14.4328L9.99219 13.7332L10.7075 14.4328Z" fill="#636466"/>
<path d="M13.0711 15.2275L12.7028 15.555L12.6214 13.9351L12.2295 15.9198L14.3903 14.2516L12.6214 13.9351L13.0711 15.2275Z" fill="#919396"/>
<path d="M13.0698 15.2275L12.6201 13.9351L12.7015 15.555L13.0698 15.2275Z" fill="#8C8E90"/>
<path d="M12.5535 13.1193L9.99219 13.7325L12.622 13.9347L14.3909 14.2512V12.6797L13.7313 14.1326L12.5535 13.1193Z" fill="#8F9194"/>
<path d="M12.5527 13.1205L14.3902 12.6797L12.5527 13.1205Z" fill="#5C5D60"/>
<path d="M14.2638 12.9588L14.1503 13.2072L12.5527 13.1193L13.7306 14.1325L14.3902 12.6797L12.5527 13.1193L14.2638 12.9588Z" fill="#CBCCCE"/>
<path d="M14.1503 13.2083L14.2638 12.9592L12.5527 13.1201L14.1503 13.2083Z" fill="#8C8E90"/>
<path d="M3.76562 9.82495L3.89273 9.85599L3.76562 9.82495Z" fill="#C0C2C4"/>
<path d="M4.05469 9.89087L4.32024 9.95038L4.05469 9.89087Z" fill="#888A8C"/>
<path d="M6.8125 10.4163L6.91591 10.4318L6.987 10.4429L6.8125 10.4163Z" fill="#5A5B5D"/>
<path d="M4.35254 9.96118L4.4818 9.99L4.35254 9.96118Z" fill="#CDCFD0"/>
<path d="M14.3896 0H11.4578L6.90918 0.804456L14.3896 3.20244V0Z" fill="#C0C2C4"/>
<path d="M3.90527 9.85986L4.02376 9.88647L3.90527 9.85986Z" fill="#565759"/>
<path d="M3.22559 9.68457L3.33977 9.71561L3.22559 9.68457Z" fill="#EBEBEC"/>
<path d="M3.35742 9.72192L3.45437 9.74853L3.35742 9.72192Z" fill="#696A6D"/>
<path d="M2.74219 9.53467L2.84344 9.56793L2.74219 9.53467Z" fill="#7B7C7F"/>
<path d="M2.87012 9.57642L2.9606 9.60524L2.87012 9.57642Z" fill="#C4C6C8"/>
<path d="M3.48926 9.75439L3.6099 9.78544L3.48926 9.75439Z" fill="#DADBDC"/>
<path d="M2.97461 9.60962L3.08233 9.64288L2.97461 9.60962Z" fill="#E6E7E8"/>
<path d="M3.10938 9.65137L3.20201 9.67797L3.10938 9.65137Z" fill="#95979A"/>
<path d="M0.954102 7.22668L5.86036 5.21773L4.97162 4.34514L4.55616 3.93851L4.25849 3.64618L3.66743 3.06812L2.94359 5.56721L0.954102 7.22668Z" fill="#DEDFE0"/>
<path d="M2.2729 5.20508L0.347656 8.15472L0.953713 7.22719L2.2729 5.20508Z" fill="#545456"/>
<path d="M6.81335 10.4142L6.4707 10.3613L6.81335 10.4142Z" fill="#A7A9AC"/>
<path d="M7.69515 10.5505L7.3418 10.4976L7.69515 10.5505Z" fill="#C7C8CA"/>
<path d="M3.62988 9.79224L3.73545 9.81884L3.62988 9.79224Z" fill="#757679"/>
<path d="M14.0432 10.8866L14.3902 10.447V6.09717L11.5762 7.96765L14.0432 10.8866Z" fill="#BABCBE"/>
<path d="M14.3897 11.2974V10.4468L14.3555 11.2578L14.3897 11.2974Z" fill="#E4E5E6"/>
<path d="M13.9681 11.2623H13.9252H13.8503H13.801H13.7667L13.5098 11.2402H13.6019H13.7218L14.0045 11.2645H13.9723L13.9681 11.2623Z" fill="#5A5B5D"/>
<path d="M7.00098 10.4426L7.15731 10.4669L7.29008 10.4867H7.35219L7.00098 10.4426Z" fill="#D1D3D4"/>
<path d="M5.45508 10.1831L5.60284 10.2118L5.76774 10.2404L5.45508 10.1831Z" fill="#9B9DA0"/>
<path d="M7.69434 10.55L7.87422 10.5765L8.11622 10.6096L8.46957 10.658L8.60449 10.6779L8.72441 10.6933L9.07348 10.7396L9.20626 10.755L9.44611 10.7859L9.66026 10.8145L9.78875 10.83L9.90654 10.8432L10.2642 10.8873L10.5918 10.9247L10.9238 10.9622L11.1379 10.9864L11.3521 11.0085L11.5662 11.0327H11.6754L11.9667 11.0636H12.0631L12.3436 11.0922L12.6113 11.1187H12.6991H12.789L12.9475 11.1341H13.031L13.1788 11.1473L13.3244 11.1606L13.4615 11.1738H13.4957C12.2794 11.1099 9.97078 10.8784 7.69434 10.55Z" fill="#EBEBEC"/>
<path d="M2.74023 9.53674L3.23065 8.85791L2.74023 9.53674Z" fill="#333132"/>
<path d="M6.12988 10.3042H6.18556L6.42327 10.3439H6.45968L6.12988 10.3042Z" fill="#616264"/>
<path d="M8.80957 5.52127L14.3904 6.09714L10.6234 3.20239L8.80957 5.52127Z" fill="#515254"/>
<path d="M4.97168 10.0908L5.10525 10.1174L4.97168 10.0908Z" fill="#3E3E3F"/>
<path d="M4.49788 9.99416L4.63145 10.023L4.48926 9.99194L4.49788 9.99416Z" fill="#F1F2F2"/>
<path d="M4.65918 10.0271H4.71304L4.78629 10.0426L4.65918 10.0271Z" fill="#515254"/>
<path d="M4.80469 10.0581L4.92964 10.0825H4.95118L4.80469 10.0581Z" fill="#C7C8CA"/>
<path d="M5.37446 10.1679H5.43263L5.28613 10.1523L5.37446 10.1679Z" fill="#434345"/>
<path d="M5.79199 10.2449H5.83482L6.11108 10.2934L5.79199 10.2449Z" fill="#363436"/>
<path d="M7.69564 10.5479L5.88177 7.88393L6.71696 7.7059L7.69564 10.5479L5.86035 5.21777L5.88177 9.02689L7.69564 10.5479Z" fill="#848689"/>
<path d="M5.12793 10.1211H5.14947L5.27874 10.1455L5.12793 10.1211Z" fill="#9FA1A4"/>
<path d="M9.80114 10.827L9.67188 10.8115L9.80114 10.827Z" fill="#E6E7E8"/>
<path d="M10.2766 10.8844L9.91895 10.8403L10.2766 10.8844Z" fill="#A1A3A6"/>
<path d="M5.83398 10.2512L6.11024 10.2997L5.83398 10.2512Z" fill="#4D4D4F"/>
<path d="M3.76562 9.82495L3.89273 9.85599L3.76562 9.82495Z" fill="#9D9FA2"/>
<path d="M3.62988 9.79224L3.7376 9.81884L3.62988 9.79224Z" fill="#8F9194"/>
<path d="M3.90527 9.85986L4.02376 9.88647L3.90527 9.85986Z" fill="#5F6062"/>
<path d="M4.35254 9.96118L4.4818 9.99L4.35254 9.96118Z" fill="#515254"/>
<path d="M3.48926 9.75439L3.6099 9.78765L3.48926 9.75439Z" fill="#848689"/>
<path d="M4.05469 9.89087L4.32238 9.95038L4.05469 9.89087Z" fill="#A1A3A6"/>
<path d="M2.97461 9.60962L3.08233 9.64288L2.97461 9.60962Z" fill="#8C8E90"/>
<path d="M2.87012 9.57642L2.96491 9.60524L2.87012 9.57642Z" fill="#757679"/>
<path d="M2.74219 9.53467L2.8456 9.56793L2.74219 9.53467Z" fill="#434345"/>
<path d="M3.35742 9.72192L3.45652 9.74853L3.35742 9.72192Z" fill="#58595B"/>
<path d="M4.71191 10.0381L4.7868 10.0535L4.71191 10.0381Z" fill="#DEDFE0"/>
<path d="M3.22559 9.68457L3.33977 9.71561L3.22559 9.68457Z" fill="#BCBEC0"/>
<path d="M3.10938 9.65137L3.20417 9.67797L3.10938 9.65137Z" fill="#464547"/>
<path d="M8.60643 10.676L8.4707 10.656L8.60643 10.676Z" fill="#AFB1B4"/>
<path d="M5.60352 10.2117L5.7694 10.2405L5.60352 10.2117Z" fill="#828487"/>
<path d="M4.80469 10.0581L4.92964 10.0825L4.80469 10.0581Z" fill="#565759"/>
<path d="M6.8125 10.4163L6.91591 10.4318L6.8125 10.4163Z" fill="#3B3B3C"/>
<path d="M6.4707 10.3613L6.81335 10.4142L6.4707 10.3613Z" fill="#A1A3A6"/>
<path d="M5.14844 10.126L5.2777 10.1504L5.14844 10.126Z" fill="#DEDFE0"/>
<path d="M4.97168 10.0908L5.10525 10.1174L4.97168 10.0908Z" fill="#848689"/>
<path d="M9.20779 10.7531L9.07422 10.7375L9.20779 10.7531Z" fill="#C7C8CA"/>
<path d="M7.27908 10.4868L7.14551 10.4668L7.27908 10.4868Z" fill="#616264"/>
<path d="M5.28613 10.1523L5.36957 10.1678L5.28613 10.1523Z" fill="#D8D9DA"/>
<path d="M0.347656 8.15454L2.73976 9.53488L0.347656 8.15454Z" fill="#A9ABAE"/>
<path d="M6.9083 0.804688L3.66602 3.06864L6.2123 1.98941L6.9083 0.804688Z" fill="#AFB1B4"/>
<path d="M4.21211 3.60452L6.21231 1.98901L3.66602 3.06822L4.25708 3.64628L4.21211 3.60452Z" fill="#E2E3E4"/>
<path d="M5.04021 4.41338L4.97168 4.34524L5.86042 5.21783L6.21377 1.98901L5.04021 4.41338Z" fill="#ABADB0"/>
<path d="M4.25781 3.64673L4.55549 3.93986L4.25781 3.64673Z" fill="#B1B3B6"/>
<path d="M6.21407 1.98901L4.21387 3.60451L4.25884 3.64627L4.55651 3.9386L6.21407 1.98901Z" fill="#7D7E81"/>
<path d="M4.55566 3.93896L4.97112 4.3467L4.55566 3.93896Z" fill="#5C5D60"/>
<path d="M6.21322 1.98901L4.55566 3.93862L4.97112 4.34524L5.03965 4.41338L6.21322 1.98901Z" fill="#CDCFD0"/>
<path d="M3.66753 3.06812L0.513053 6.11672L0.442383 6.97613L3.66753 3.06812Z" fill="#808285"/>
<path d="M0.347656 8.15422L2.27289 5.20454L2.75474 4.46602L3.00744 4.07698L3.66703 3.06812L0.384062 7.70583L0.347656 8.15422Z" fill="#EFEFF0"/>
<path d="M0.383789 7.70586L3.66676 3.06812L0.441611 6.97613L0.383789 7.70586Z" fill="#636466"/>
<path d="M5.85997 5.21826L0.953711 7.2272L0.347656 8.15474L5.85997 5.21826Z" fill="#86888A"/>
<path d="M2.94359 5.5675L2.75514 4.46631L2.27329 5.20483L0.954102 7.22698L2.94359 5.5675Z" fill="#3E3E3F"/>
<path d="M2.75626 4.46631L2.27441 5.20484L2.75626 4.46631Z" fill="#A5A7AA"/>
<path d="M2.94334 5.56735L3.00759 4.07715L2.75488 4.46618L2.94334 5.56735Z" fill="#BABCBE"/>
<path d="M3.00758 4.07715L2.75488 4.46725L3.00758 4.07715Z" fill="#919396"/>
<path d="M3.00879 4.07697L3.66839 3.06812L3.00879 4.07697Z" fill="#6B6C6F"/>
<path d="M2.94336 5.56719L3.6672 3.06812L3.00761 4.07697L2.94336 5.56719Z" fill="#BCBEC0"/>
<path d="M3.00879 4.07697L3.66839 3.06812L3.00879 4.07697Z" fill="#434345"/>
<path d="M6.2137 1.98901L5.86035 5.21783L10.6231 3.20229L6.2137 1.98901Z" fill="#C6C6C6"/>
<path d="M14.389 6.09714V3.20239H10.6221L14.389 6.09714Z" fill="#F1F2F2"/>
<path d="M11.5764 7.96806L14.3904 6.09759L8.80957 5.52173L11.5764 7.96806Z" fill="#6F7173"/>
<path d="M9.77936 9.16314L8.80924 5.52109L6.9097 6.275L5.86035 5.21777L9.77936 9.16314Z" fill="#3E3E3F"/>
<path d="M10.6231 3.20239L5.86035 5.21794L8.80923 5.52126L10.6231 3.20239Z" fill="#393839"/>
<path d="M9.77936 9.16316L5.86035 5.21777L7.69565 10.5479L9.77936 9.16316Z" fill="#616264"/>
<path d="M8.80924 5.52192L5.86035 5.21777L8.80924 5.52192Z" fill="#393839"/>
<path d="M8.80923 5.52109L5.86035 5.21777L6.9097 6.27499L8.80923 5.52109Z" fill="#CBCCCE"/>
<path d="M8.80957 5.52173L9.77968 9.16376L10.7498 8.51756L8.80957 5.52173Z" fill="#9FA1A4"/>
<path d="M10.7498 8.51758L11.5764 7.96808L8.80957 5.52173L10.7498 8.51758Z" fill="#4D4D4F"/>
<path d="M1.36274 8.73941L2.73975 9.53507L2.8147 6.84036L4.15531 7.57668L5.85997 5.21826L0.347656 8.15475L1.36274 8.73941Z" fill="#A5A7AA"/>
<path d="M2.74028 9.53493L1.36328 8.73926L2.74028 9.53493Z" fill="#6B6C6F"/>
<path d="M0.347656 8.15454L1.36274 8.7408L0.347656 8.15454Z" fill="#8F9194"/>
<path d="M1.36275 8.7392L0.347656 8.15454L2.73976 9.53488L1.36275 8.7392Z" fill="#D3D5D6"/>
<path d="M4.15506 7.57618L2.81445 6.83984L3.47405 8.51692L4.15506 7.57618Z" fill="#67686B"/>
<path d="M3.25633 8.82227L2.74023 9.53439L3.23063 8.85743L3.25633 8.82227Z" fill="#393839"/>
<path d="M3.27776 8.79175L2.74023 9.5347L3.25634 8.82252L3.27776 8.79175Z" fill="#95979A"/>
<path d="M3.27775 8.79165L3.47476 8.5169L2.81519 6.83984L2.74023 9.53457L3.27775 8.79165Z" fill="#CFD1D2"/>
<path d="M14.3555 11.2963H14.3902L14.3555 11.2561V11.2963Z" fill="#565759"/>
<path d="M7.69434 10.5504C9.97079 10.8801 12.2794 11.1109 13.5022 11.223L13.7592 11.245L14.0397 10.8889L11.5748 7.96777L10.7482 8.51727L10.0864 8.95686L7.69434 10.5504Z" fill="#48484A"/>
<path d="M9.77805 9.1634L7.69434 10.5481L10.0864 8.95898L9.77805 9.1634Z" fill="#464547"/>
<path d="M9.77806 9.16333L7.69434 10.548L9.77806 9.16333Z" fill="#808285"/>
<path d="M10.0879 8.96009L10.7496 8.51709L10.0879 8.96009Z" fill="#5C5D60"/>
<path d="M10.0877 8.96009L10.7494 8.51709L9.7793 9.16506L10.0877 8.96009Z" fill="#939598"/>
<path d="M10.75 8.51877L11.5766 7.96777L10.75 8.51877Z" fill="#ABADB0"/>
<path d="M10.75 8.51877L11.5766 7.96777L10.75 8.51877Z" fill="#E6E7E8"/>
<path d="M5.79191 10.2445L6.111 10.2994H6.13027L6.46007 10.3544H6.47077L6.81342 10.4071L6.98688 10.4335L7.33809 10.4863L7.69144 10.539L4.93958 9.2312L2.74023 9.53453L2.84089 9.5675H2.86873L2.95867 9.59607H2.97366L3.08074 9.62904H3.10858L3.20066 9.65542H3.22422L3.33772 9.68619H3.36342L3.45979 9.71257H3.48763L3.60755 9.74334H3.62897L3.7339 9.76972H3.76388L3.89023 9.80049H3.90308L4.02087 9.82686H4.05299L4.31854 9.88621H4.35066L4.47915 9.91479L4.62049 9.94556H4.64833L4.77468 9.97193H4.79396L4.93958 10.0005H4.961L5.09377 10.0269H5.11733L5.26724 10.0555H5.28651L5.42785 10.0818H5.45141L5.76407 10.139L5.79191 10.2445Z" fill="#B1B3B6"/>
<path d="M3.23064 8.85778L2.74023 9.53476L4.93957 9.22264L3.47478 8.51709L3.23064 8.85778Z" fill="#9B9DA0"/>
<path d="M3.25617 8.82344L3.23047 8.85871L3.4746 8.51709L3.25617 8.82344Z" fill="#58595B"/>
<path d="M3.4743 8.51709L3.27727 8.79259L3.25586 8.82344L3.4743 8.51709Z" fill="#464547"/>
<path d="M3.47534 8.51709L3.27832 8.79259L3.47534 8.51709Z" fill="#5C5D60"/>
<path d="M4.15562 7.57666L5.75106 9.39219L3.47461 8.51739L4.93942 9.22294L7.69558 10.5483L5.88169 9.02732L4.15562 7.57666Z" fill="#67686B"/>
<path d="M3.47461 8.51709L4.93942 9.22265L3.47461 8.51709Z" fill="#67686B"/>
<path d="M3.47461 8.51739L5.75105 9.39217L4.15562 7.57666L3.47461 8.51739Z" fill="#737577"/>
<path d="M3.47461 8.51738L4.15562 7.57666L3.47461 8.51738Z" fill="#C4C6C8"/>
<path d="M3.47461 8.51738L4.15562 7.57666L3.47461 8.51738Z" fill="#AFB1B4"/>
<path d="M5.86851 6.77394L5.88136 9.02688L5.85994 5.21777L4.15527 7.57621L5.86851 6.77394Z" fill="#393839"/>
<path d="M4.15527 7.5762L5.85993 5.21777L4.15527 7.5762Z" fill="#363436"/>
<path d="M5.88136 9.02664L5.86851 6.77368L5.38452 8.60682L4.55574 7.91225L5.86851 6.77368L4.15527 7.57595L5.88136 9.02664Z" fill="#414042"/>
<path d="M4.15527 7.57666L5.88136 9.02734L4.15527 7.57666Z" fill="#333132"/>
<path d="M5.88086 7.88434L7.69473 10.5483L6.71606 7.7063L5.88086 7.88434Z" fill="#97999C"/>
<path d="M5.38445 8.60678L5.86844 6.77368L4.55566 7.91222L5.38445 8.60678Z" fill="#D8D9DA"/>
<path d="M14.3893 3.20228L6.21289 1.98901L10.6223 3.20228H14.3893Z" fill="#9B9DA0"/>
<path d="M14.3896 3.20271L6.90918 0.804688L8.3954 1.83555L14.3896 3.20271Z" fill="#B2B2B2"/>
<path d="M8.39513 1.83558L6.90889 0.804688L6.21289 1.98944L8.39513 1.83558Z" fill="#BEC0C2"/>
<path d="M8.39511 1.83545L6.21289 1.98931L14.3893 3.20264L8.39511 1.83545Z" fill="#BEC0C2"/>
<path d="M14.3566 11.2578L14.3909 10.4468L14.0439 10.8864L14.3566 11.2578Z" fill="#F1F2F2"/>
<path d="M13.7969 11.248H13.8526H13.9276H13.9704H14.0132L14.3045 11.2722H14.3452V11.2348L14.0325 10.8623L13.752 11.2194L13.7969 11.248Z" fill="#545456"/>
<path d="M16.2271 13.1199L18.7884 13.7331L18.4885 13.3792L17.3214 12.0451L19.1824 11.6296H19.1803L14.3896 12.6803L16.2271 13.1199Z" fill="#9D9FA2"/>
<path d="M16.4053 17.6281L20.1444 13.3794L16.5509 17.4633L16.4053 17.6281Z" fill="#D8D9DA"/>
<path d="M18.7881 13.7331L20.9275 11.6428L19.1864 11.6296L18.7881 13.7331Z" fill="#5F6062"/>
<path d="M16.5505 15.92L14.3896 14.2517V15.92H15.1927H16.5505Z" fill="#A7A9AC"/>
<path d="M28.4319 8.15479L26.9521 9.39225L20.9258 11.643L21.6753 12.2562L20.9258 11.643L26.9521 9.39225L28.4319 8.15479Z" fill="#B3B5B8"/>
<path d="M20.9291 12.6798L21.6786 12.2556L21.0854 14.3085L20.5586 14.7525L26.9554 9.3916L21.6786 12.2556L20.9291 12.6798Z" fill="#B1B3B6"/>
<path d="M20.144 13.3794L16.4048 17.6281L15.5011 18.6546L14.3896 19.9184L19.0004 16.0565L20.144 13.3794Z" fill="#B6B8BA"/>
<path d="M20.1445 13.3794L19.001 16.0566L20.5579 14.7532L21.0847 14.3092L20.1445 13.3794Z" fill="#4F4F51"/>
<path d="M21.0847 14.3084L20.9283 12.6797L20.1445 13.3787L21.0847 14.3084Z" fill="#8A8C8E"/>
<path d="M21.6753 12.2561L20.9258 12.6803L21.0821 14.309L21.6753 12.2561Z" fill="#828487"/>
<path d="M14.3896 19.2739V19.9179L15.5011 18.6541L14.3896 19.2739Z" fill="#6B6C6F"/>
<path d="M14.3896 19.9179L15.5011 18.6541L14.3896 19.9179Z" fill="#97999C"/>
<path d="M15.5011 18.6541L14.3896 18.8083V19.2756L15.5011 18.6541Z" fill="#A1A3A6"/>
<path d="M15.5011 18.6548L14.3896 18.4807V18.8091L15.5011 18.6548Z" fill="#B6B8BA"/>
<path d="M15.5011 18.6543L14.3896 17.8872V18.4807L15.5011 18.6543Z" fill="#77787B"/>
<path d="M15.501 17.8871V18.6542L16.4047 17.6277L16.5503 17.4629L15.501 17.8871Z" fill="#737577"/>
<path d="M15.501 18.6541L16.4047 17.6277L15.501 18.6541Z" fill="#C2C4C6"/>
<path d="M15.5011 18.6543V17.8872H14.3896L15.5011 18.6543Z" fill="#DEDFE0"/>
<path d="M16.5505 17.4629L14.3896 17.8883H15.5011L16.5505 17.4629Z" fill="#888A8C"/>
<path d="M21.6753 12.2556L26.9521 9.3916L20.9258 11.6423L21.6753 12.2556Z" fill="#9D9D9C"/>
<path d="M15.2738 11.2205L14.7812 11.2646L15.4494 11.2095L15.2759 11.2271L15.2738 11.2205Z" fill="#67686B"/>
<path d="M21.6367 10.467L21.7918 10.4426L21.6367 10.467Z" fill="#797A7D"/>
<path d="M21.086 10.5505L20.9082 10.5769L21.4414 10.4976L21.086 10.5505Z" fill="#A3A5A8"/>
<path d="M20.6621 10.6074L20.2959 10.6581L20.6621 10.6074Z" fill="#545456"/>
<path d="M17.105 11.0408L16.4219 11.1091L17.105 11.0408Z" fill="#E0E1E2"/>
<path d="M16.423 11.1089L16.1553 11.1353L16.423 11.1089Z" fill="#BABCBE"/>
<path d="M15.9939 11.1528L15.752 11.1771L15.9939 11.1528Z" fill="#E2E3E4"/>
<path d="M15.7498 11.1768L15.5947 11.1901L15.7498 11.1768Z" fill="#CDCFD0"/>
<path d="M17.628 10.9895L17.1055 11.0468L17.628 10.9895Z" fill="#EFEFF0"/>
<path d="M16.1626 11.135L15.9902 11.1527L16.1626 11.135Z" fill="#696A6D"/>
<path d="M20.0631 10.6907L19.7012 10.737L20.0631 10.6907Z" fill="#BCBEC0"/>
<path d="M20.9072 10.5742L20.6631 10.6073L20.9072 10.5742Z" fill="#8F9194"/>
<path d="M19.335 10.7834L19.0967 10.8122L19.335 10.7834Z" fill="#D3D5D6"/>
<path d="M18.1762 10.9219L17.6279 10.9902L18.1762 10.9219Z" fill="#DEDFE0"/>
<path d="M18.5163 10.8821L18.1758 10.9218L18.5163 10.8821Z" fill="#BABCBE"/>
<path d="M19.5723 10.7524L19.334 10.7834L19.5723 10.7524Z" fill="#DCDDDE"/>
<path d="M15.5936 11.1899L15.4492 11.2032L15.5936 11.1899Z" fill="#717375"/>
<path d="M21.793 10.4429L21.8636 10.4319L21.793 10.4429Z" fill="#717375"/>
<path d="M25.9393 9.56784H25.9115L25.8172 9.59641H25.8044L25.6973 9.62938H25.6695L25.5752 9.65576H25.556L25.4403 9.68653H25.4146L25.3183 9.7129H25.2904L25.1705 9.74587H25.1491L25.0441 9.77225H25.0142L24.8878 9.80302H24.8771L24.7572 9.8294H24.7272L24.4595 9.88874H24.4295L24.2989 9.91732H24.2818L24.149 9.94589H24.1211H24.0697L23.9948 9.96128H23.9777L23.8513 9.98545H23.8299H23.8085L23.6757 10.0118H23.6543H23.6307L23.5022 10.036L23.4166 10.0514H23.3588H23.3352L23.0225 10.1085H23.0011H22.9583L22.6799 10.1569H22.6606H22.6049L22.3308 10.2031H22.3201H22.2494L21.9796 10.2448L21.8768 10.2602L21.8061 10.2712L21.652 10.2954L21.517 10.3152H21.4549L20.9217 10.3943L20.6776 10.4272L20.3114 10.4778L20.0694 10.5108L19.7074 10.5569L19.5875 10.5723L19.3498 10.6031L19.1121 10.6317L18.5317 10.702L18.1912 10.7416L17.628 10.9899L17.1055 11.0471L16.4223 11.1086L16.1546 11.135L15.9833 11.1526L15.7413 11.1768L15.5871 11.1899L15.4437 11.2031L14.7755 11.2647H14.7198H14.6235H14.5378H14.4735H14.3857V11.557L19.1828 11.5944L20.9196 11.6493L26.9458 9.39859L28.4256 8.16113L26.0314 9.54146L25.9393 9.56784Z" fill="#DADADA"/>
<path d="M19.183 11.6298L19.1877 11.6274L19.1807 11.6298H19.183Z" fill="#D3D5D6"/>
<path d="M21.6753 12.2561L20.9258 11.6428V12.6803L21.6753 12.2561Z" fill="#3B3B3C"/>
<path d="M20.9283 12.6803V11.6428L20.1445 13.3792L20.9283 12.6803Z" fill="#4D4D4F"/>
<path d="M18.7887 13.7331L18.0756 14.4321L16.5508 15.9201L20.1443 13.3792L20.9281 11.6428L18.7887 13.7331Z" fill="#8D9092"/>
<path d="M16.5508 17.4633L18.1869 15.1576L20.1443 13.3794L16.5508 15.9203V17.4633Z" fill="#A7A9AC"/>
<path d="M16.5508 17.4633L20.1443 13.3794L18.1869 15.1576L16.5508 17.4633Z" fill="#9D9FA2"/>
<path d="M14.3896 11.5898V12.68L19.1803 11.6294L14.3896 11.5898Z" fill="#878787"/>
<path d="M19.1803 11.6295L19.1867 11.6273L14.3896 11.5898L19.1803 11.6295Z" fill="#ADAFB2"/>
<path d="M19.1823 11.6296L17.3213 12.0451L18.4884 13.3792L19.1866 11.6296H19.1823Z" fill="#B8BABC"/>
<path d="M19.189 11.6306V11.6274L19.1826 11.6306H19.189Z" fill="#3E3E3F"/>
<path d="M18.4893 13.3792L18.7891 13.7331L19.1874 11.6296L18.4893 13.3792Z" fill="#9FA1A4"/>
<path d="M16.5505 15.9204L14.3896 17.8876L16.5505 17.4634V15.9204Z" fill="#6F7173"/>
<path d="M14.3896 15.9204V16.4758L15.1927 15.9204H14.3896Z" fill="#EFEFF0"/>
<path d="M15.1927 15.9204L15.4219 16.9491L14.3896 17.8876L16.5505 15.9204H15.1927Z" fill="#565759"/>
<path d="M14.3896 16.4736V17.887L15.4219 16.9484L14.3896 16.4736Z" fill="#565759"/>
<path d="M15.1927 15.9204L14.3896 16.4743L15.4219 16.9491L15.1927 15.9204Z" fill="#AFB1B4"/>
<path d="M16.1602 13.9351L16.5499 15.9198L18.0747 14.4318L16.1602 13.9351Z" fill="#8D9092"/>
<path d="M16.5508 15.9199L18.0756 14.4319L16.5508 15.9199Z" fill="#E9E9EA"/>
<path d="M18.7878 13.7332L16.1602 13.9356L18.0747 14.4328L18.7878 13.7332Z" fill="#A5A7AA"/>
<path d="M18.0762 14.4328L18.7893 13.7332L18.0762 14.4328Z" fill="#DCDDDE"/>
<path d="M16.1607 13.9351L16.0772 15.555L15.7088 15.2275L16.1607 13.9351L14.3896 14.2516L16.5505 15.9198L16.1607 13.9351Z" fill="#A7A9AC"/>
<path d="M16.0773 15.555L16.1608 13.9351L15.709 15.2275L16.0773 15.555Z" fill="#CFD1D2"/>
<path d="M18.7884 13.7325L16.2271 13.1193L15.0514 14.1326L14.3896 12.6797V14.2512L16.1607 13.9347L18.7884 13.7325Z" fill="#EDEDEE"/>
<path d="M16.2271 13.1205L14.3896 12.6797L16.2271 13.1205Z" fill="#828487"/>
<path d="M16.2271 13.1193L14.6295 13.2072L14.5181 12.9588L16.2271 13.1193L14.3896 12.6797L15.0514 14.1325L16.2271 13.1193Z" fill="#B8BABC"/>
<path d="M14.5176 12.9592L14.6289 13.2083L16.2265 13.1201L14.5176 12.9592Z" fill="#CBCCCE"/>
<path d="M24.2263 3.93851L23.8108 4.34514L22.9199 5.21773L27.8283 7.22668L25.8367 5.56721L25.1129 3.06812L24.5239 3.64618L24.2263 3.93851Z" fill="#828487"/>
<path d="M26.0383 9.53674L25.5479 8.85791L26.0383 9.53674Z" fill="#C2C4C6"/>
<path d="M14.3896 6.09719V10.447V11.2976L14.4239 11.258L14.3896 10.447L14.7366 10.8866L17.2058 7.96767L14.3896 6.09719V3.20245L21.87 0.80446L17.3214 0H14.3896V3.20245V6.09719Z" fill="#95979A"/>
<path d="M21.0869 10.5505L21.4381 10.4976L21.0869 10.5505Z" fill="#919396"/>
<path d="M25.0148 9.82495L24.8877 9.85599L25.0148 9.82495Z" fill="#DCDDDE"/>
<path d="M24.7245 9.89087L24.459 9.95038L24.7245 9.89087Z" fill="#67686B"/>
<path d="M21.4395 10.4953H21.5016L21.6365 10.4754L21.7907 10.4512L21.4395 10.4953Z" fill="#393839"/>
<path d="M25.1485 9.79224L25.043 9.81884L25.1485 9.79224Z" fill="#97999C"/>
<path d="M24.8751 9.85986L24.7588 9.88647L24.8751 9.85986Z" fill="#434345"/>
<path d="M22.3193 10.3593L22.5935 10.313H22.6491L22.3193 10.3593Z" fill="#363436"/>
<path d="M23.8281 10.0869H23.8497L23.9746 10.0625L23.8281 10.0869Z" fill="#77787B"/>
<path d="M21.793 10.4429L21.8641 10.4318L21.9675 10.4163L21.793 10.4429Z" fill="#B8BABC"/>
<path d="M24.0705 10.0381H24.1222L23.9951 10.0647L24.0705 10.0381Z" fill="#B8BABC"/>
<path d="M23.502 10.1504L23.6312 10.126H23.6549L23.502 10.1504Z" fill="#B8BABC"/>
<path d="M24.1484 10.023L24.282 9.99414L24.1484 10.023Z" fill="#A3A5A8"/>
<path d="M23.6748 10.1111L23.8084 10.0845L23.6748 10.1111Z" fill="#B3B5B8"/>
<path d="M22.2386 10.3721H22.3093L21.9688 10.425L22.2386 10.3721Z" fill="#737577"/>
<path d="M25.2906 9.75439L25.1699 9.78544L25.2906 9.75439Z" fill="#EDEDEE"/>
<path d="M22.9483 10.2512H22.9912L22.6699 10.3063L22.9483 10.2512Z" fill="#4D4D4F"/>
<path d="M23.3496 10.1791H23.4078L23.4918 10.1636L23.3496 10.1791Z" fill="#9D9FA2"/>
<path d="M24.4279 9.96118L24.3008 9.99L24.4279 9.96118Z" fill="#5F6062"/>
<path d="M15.274 11.2207L15.0192 11.2427H14.9828H14.9656H14.9314H14.8629H14.8222H14.79L15.274 11.2207Z" fill="#828487"/>
<path d="M28.4342 8.15476L26.5068 5.20508L27.8282 7.22721L28.4342 8.15476Z" fill="#ADAFB2"/>
<path d="M19.9726 5.52127L18.1566 3.20239L14.3896 6.09714L19.9726 5.52127Z" fill="#656668"/>
<path d="M23.3244 10.1831L23.0117 10.2404L23.3244 10.1831Z" fill="#AFB1B4"/>
<path d="M25.912 9.57642L25.8193 9.60524L25.912 9.57642Z" fill="#EDEDEE"/>
<path d="M25.5554 9.68457L25.4434 9.71561L25.5554 9.68457Z" fill="#A5A7AA"/>
<path d="M25.6698 9.65137L25.5771 9.67797L25.6698 9.65137Z" fill="#DEDFE0"/>
<path d="M26.0397 9.53467L25.9385 9.56793L26.0397 9.53467Z" fill="#E0E1E2"/>
<path d="M25.805 9.60962L25.6973 9.64288L25.805 9.60962Z" fill="#E6E7E8"/>
<path d="M22.0636 7.7059L22.8988 7.88393L21.085 10.5479L22.8988 9.02689L22.9202 5.21777L21.085 10.5479L22.0636 7.7059Z" fill="#808285"/>
<path d="M25.4173 9.72192L25.3203 9.74853L25.4173 9.72192Z" fill="#DCDDDE"/>
<path d="M15.2764 11.2219L15.4498 11.2042L15.5933 11.191L15.7475 11.1778L15.9938 11.1536L16.1651 11.136L16.4221 11.1096L17.0988 11.0413L17.6278 10.9907L18.176 10.929L18.5165 10.8894L19.0969 10.8189L19.3346 10.7903L19.5723 10.7595L19.6922 10.7441L20.0541 10.6978L20.2961 10.6648L20.6623 10.6141L20.9065 10.5811L21.0842 10.5547C18.8099 10.8784 16.4992 11.1096 15.2764 11.2219Z" fill="#717375"/>
<path d="M22.6699 10.2997L22.9483 10.2512L22.6699 10.2997Z" fill="#BEC0C2"/>
<path d="M23.502 10.1504L23.6312 10.126L23.502 10.1504Z" fill="#C2C4C6"/>
<path d="M23.6748 10.1111L23.8084 10.0845L23.6748 10.1111Z" fill="#616264"/>
<path d="M23.9951 10.0535L24.07 10.0381L23.9951 10.0535Z" fill="#7B7C7F"/>
<path d="M25.5771 9.67138L25.6719 9.64478L25.5771 9.67138Z" fill="#CBCCCE"/>
<path d="M23.8506 10.0825L23.9777 10.0581L23.8506 10.0825Z" fill="#414042"/>
<path d="M25.6973 9.64288L25.805 9.60962L25.6973 9.64288Z" fill="#828487"/>
<path d="M21.8633 10.4318L21.9667 10.4163L21.8633 10.4318Z" fill="#48484A"/>
<path d="M23.4053 10.1678L23.4909 10.1523L23.4053 10.1678Z" fill="#DEDFE0"/>
<path d="M21.6387 10.4668L21.5029 10.4868L21.6387 10.4668Z" fill="#BCBEC0"/>
<path d="M26.0397 9.53467L25.9385 9.56793L26.0397 9.53467Z" fill="#D3D5D6"/>
<path d="M25.8193 9.60524L25.9141 9.57642L25.8193 9.60524Z" fill="#616264"/>
<path d="M21.9688 10.4139L22.2386 10.3721L21.9688 10.4139Z" fill="#3E3E3F"/>
<path d="M25.043 9.81884L25.1485 9.79224L25.043 9.81884Z" fill="#828487"/>
<path d="M24.459 9.95502L24.7267 9.89551L24.459 9.95502Z" fill="#EDEDEE"/>
<path d="M25.3184 9.74853L25.4153 9.72192L25.3184 9.74853Z" fill="#737577"/>
<path d="M24.8877 9.85599L25.0148 9.82495L24.8877 9.85599Z" fill="#ADAFB2"/>
<path d="M25.4434 9.71561L25.5597 9.68457L25.4434 9.71561Z" fill="#E4E5E6"/>
<path d="M25.1699 9.7857L25.2906 9.75244L25.1699 9.7857Z" fill="#717375"/>
<path d="M24.3008 9.99L24.4322 9.96118L24.3008 9.99Z" fill="#6D6E71"/>
<path d="M24.7588 9.89135L24.8794 9.86475L24.7588 9.89135Z" fill="#5A5B5D"/>
<path d="M26.0391 9.53512L28.4333 8.15479L26.0391 9.53512Z" fill="#6F7173"/>
<path d="M25.1124 3.06864L21.8701 0.804688L22.5683 1.98941L25.1124 3.06864Z" fill="#C2C4C6"/>
<path d="M23.8105 4.34524L23.7398 4.41338L22.5684 1.98901L22.9196 5.21783L23.8105 4.34524Z" fill="#58595B"/>
<path d="M24.5664 3.60452L24.5236 3.64628L25.1125 3.06822L22.5684 1.98901L24.5664 3.60452Z" fill="#B6B8BA"/>
<path d="M24.2266 3.93986L24.5242 3.64673L24.2266 3.93986Z" fill="#9D9FA2"/>
<path d="M24.5236 3.64627L24.5664 3.60451L22.5684 1.98901L24.2259 3.9386L24.5236 3.64627Z" fill="#434345"/>
<path d="M23.8096 4.3467L24.225 3.93896L23.8096 4.3467Z" fill="#CFD1D2"/>
<path d="M23.8105 4.34524L24.2259 3.93862L22.5684 1.98901L23.7398 4.41338L23.8105 4.34524Z" fill="#828487"/>
<path d="M28.2689 6.11672L25.1123 3.06812L28.3374 6.97613L28.2689 6.11672Z" fill="#A7A9AC"/>
<path d="M25.7719 4.07698L26.0246 4.46602L26.5064 5.20454L28.4338 8.15422L28.3974 7.70583L25.1123 3.06812L25.7719 4.07698Z" fill="#C7C8CA"/>
<path d="M28.3374 6.97613L25.1123 3.06812L28.3974 7.70586L28.3374 6.97613Z" fill="#6D6E71"/>
<path d="M28.4344 8.15425L27.8283 7.22671L22.9199 5.21777L28.4344 8.15425Z" fill="#A5A7AA"/>
<path d="M26.0254 4.46631L25.8369 5.5675L27.8285 7.22698L26.5072 5.20483L26.0254 4.46631Z" fill="#8A8C8E"/>
<path d="M26.5053 5.20484L26.0234 4.46631L26.5053 5.20484Z" fill="#6D6E71"/>
<path d="M25.7734 4.07715L25.8377 5.56735L26.0261 4.46618L25.7734 4.07715Z" fill="#7B7C7F"/>
<path d="M26.0261 4.46725L25.7734 4.07715L26.0261 4.46725Z" fill="#ADAFB2"/>
<path d="M25.7719 4.07697L25.1123 3.06812L25.7719 4.07697Z" fill="#E6E7E8"/>
<path d="M25.7719 4.07697L25.1123 3.06812L25.8361 5.56719L25.7719 4.07697Z" fill="#3B3B3C"/>
<path d="M25.7719 4.07697L25.1123 3.06812L25.7719 4.07697Z" fill="#9D9FA2"/>
<path d="M22.92 5.21783L22.5688 1.98901L18.1572 3.20229L22.92 5.21783Z" fill="#9FA1A4"/>
<path d="M14.3896 3.20239V6.09714L18.1566 3.20239H14.3896Z" fill="#6F7173"/>
<path d="M19.9732 5.52109L19.001 9.16314L22.92 5.21777L21.8706 6.275L19.9732 5.52109Z" fill="#E6E7E8"/>
<path d="M17.2058 7.96806L19.9726 5.52173L14.3896 6.09759L17.2058 7.96806Z" fill="#B8BABC"/>
<path d="M19.9732 5.52126L22.92 5.21794L18.1572 3.20239L19.9732 5.52126Z" fill="#EDEDEE"/>
<path d="M21.0847 10.5479L22.92 5.21777L19.001 9.16316L21.0847 10.5479Z" fill="#A3A5A8"/>
<path d="M19.9727 5.52192L22.9194 5.21777L19.9727 5.52192Z" fill="#A7A9AC"/>
<path d="M21.8701 6.27499L22.9194 5.21777L19.9727 5.52109L21.8701 6.27499Z" fill="#A7A9AC"/>
<path d="M18.0303 8.51756L19.0004 9.16376L19.9726 5.52173L18.0303 8.51756Z" fill="#B8BABC"/>
<path d="M19.9729 5.52173L17.2061 7.96808L18.0305 8.51758L19.9729 5.52173Z" fill="#67686B"/>
<path d="M25.9673 6.83987L26.0401 9.53459L27.4171 8.73892L28.4344 8.15426L22.9199 5.21777L24.6246 7.5762L25.9673 6.83987Z" fill="#E2E3E4"/>
<path d="M26.0391 9.53493L27.4161 8.73926L26.0391 9.53493Z" fill="#757679"/>
<path d="M28.4342 8.15479L27.417 8.74105L28.4342 8.15479Z" fill="#AFB1B4"/>
<path d="M27.4161 8.73945L26.0391 9.53512L28.4333 8.15479L27.4161 8.73945Z" fill="#797A7D"/>
<path d="M25.9677 6.83984L24.625 7.57618L25.306 8.51692L25.9677 6.83984Z" fill="#CBCCCE"/>
<path d="M25.5489 8.85743L26.0394 9.53439L25.5254 8.82227L25.5489 8.85743Z" fill="#8A8C8E"/>
<path d="M25.5255 8.82252L26.0395 9.5347L25.502 8.79175L25.5255 8.82252Z" fill="#636466"/>
<path d="M25.3057 8.5169L25.5027 8.79165L26.0402 9.53457L25.9674 6.83984L25.3057 8.5169Z" fill="#C2C4C6"/>
<path d="M15.2748 11.2208C16.4976 11.1087 18.8084 10.8779 21.0827 10.5482L18.9925 9.16347L18.0224 8.51727L17.1958 7.96777L14.7373 10.8867L15.02 11.2428L15.2748 11.2208Z" fill="#8A8C8E"/>
<path d="M14.409 11.2958H14.4263V11.2578L14.3916 11.298H14.4111L14.409 11.2958Z" fill="#B1B3B6"/>
<path d="M14.4775 11.2913H14.5396H14.6274H14.7238H14.7559L14.4668 11.3155L14.4775 11.2913Z" fill="#DEDFE0"/>
<path d="M19.001 9.16333L21.0847 10.548L19.001 9.16333Z" fill="#48484A"/>
<path d="M19.001 9.16333L21.0847 10.548L19.001 9.16333Z" fill="#D5D7D8"/>
<path d="M18.0303 8.51709L19.0004 9.16506L18.0303 8.51709Z" fill="#363436"/>
<path d="M18.0303 8.51709L19.0004 9.16506L18.0303 8.51709Z" fill="#C9CACC"/>
<path d="M17.2061 7.96777L18.0305 8.51877L17.2061 7.96777Z" fill="#C4C6C8"/>
<path d="M18.0305 8.51877L17.2061 7.96777L18.0305 8.51877Z" fill="#737577"/>
<path d="M24.3015 9.98953L24.4279 9.96095H24.46L24.7256 9.90161H24.7598L24.8755 9.87523H24.8883L25.0147 9.84446H25.0447L25.1496 9.81808H25.171L25.2909 9.78731H25.3188L25.4151 9.76093H25.443L25.5543 9.73016H25.5779L25.67 9.70378H25.6978L25.8049 9.67081H25.8199L25.912 9.64224H25.9398L26.0405 9.60927L23.8411 9.2312L21.085 10.55L21.4362 10.4973L21.7874 10.4445L21.9608 10.4181L22.3014 10.3654H22.3121L22.6419 10.3104H22.6611L22.9824 10.2555H23.0038L23.3164 10.1983H23.34L23.4813 10.172H23.4942L23.6462 10.1434H23.6677L23.8004 10.117H23.8218L23.9675 10.0884H23.9867L24.1131 10.0621H24.1409L24.2823 10.0313L24.3015 9.98953Z" fill="#656668"/>
<path d="M25.3056 8.51709L23.8408 9.22264L26.0402 9.53476L25.5498 8.85778L25.3056 8.51709Z" fill="#696A6D"/>
<path d="M25.3057 8.51709L25.5498 8.85871L25.5262 8.82344L25.3057 8.51709Z" fill="#DADBDC"/>
<path d="M25.3057 8.51709L25.5262 8.82344L25.5027 8.79259L25.3057 8.51709Z" fill="#7D7E81"/>
<path d="M25.5027 8.79259L25.3057 8.51709L25.5027 8.79259Z" fill="#848689"/>
<path d="M23.8411 9.22294L25.3059 8.51739L23.0295 9.39219L24.6249 7.57666L23.4728 8.54597L23.3978 8.60751L22.8988 9.02732L21.085 10.5483L23.8411 9.22294Z" fill="#D8D9DA"/>
<path d="M25.3056 8.51709L23.8408 9.22265L25.3056 8.51709Z" fill="#E4E5E6"/>
<path d="M25.3048 8.51739L24.6238 7.57666L23.0283 9.39217L25.3048 8.51739Z" fill="#B6B8BA"/>
<path d="M25.306 8.51738L24.625 7.57666L25.306 8.51738Z" fill="#656668"/>
<path d="M25.306 8.51738L24.625 7.57666L25.306 8.51738Z" fill="#4F4F51"/>
<path d="M22.8975 9.02688L22.9103 6.77394L24.6235 7.57621L22.9189 5.21777L22.8975 9.02688Z" fill="#58595B"/>
<path d="M24.6246 7.5762L22.9199 5.21777L24.6246 7.5762Z" fill="#464547"/>
<path d="M24.0687 8.04188L24.6234 7.57592L22.9102 6.77368L24.225 7.91221L24.0687 8.04188Z" fill="#95979A"/>
<path d="M22.9103 6.77368L22.8975 9.02664L23.3964 8.60682L22.9103 6.77368Z" fill="#E9E9EA"/>
<path d="M23.3964 8.60742L22.8975 9.02838L23.3964 8.60742Z" fill="#5A5B5D"/>
<path d="M24.0701 8.04264L23.4727 8.54599L24.6248 7.57666L24.0701 8.04264Z" fill="#9D9FA2"/>
<path d="M22.0636 7.7063L21.085 10.5483L22.8988 7.88434L22.0636 7.7063Z" fill="#616264"/>
<path d="M23.3965 8.60731L23.4714 8.54565L23.3965 8.60731Z" fill="#3B3B3C"/>
<path d="M24.0687 8.0419L24.225 7.91222L22.9102 6.77368L23.3963 8.60678L24.0687 8.0419Z" fill="#414042"/>
<path d="M23.3965 8.6089L23.4714 8.54719L24.0689 8.04248L23.3965 8.6089Z" fill="#E4E5E6"/>
<path d="M20.3838 1.83555L21.87 0.804688L14.3896 3.20271L20.3838 1.83555Z" fill="#919396"/>
<path d="M22.5682 1.98901L14.3896 3.20228H18.1566L22.5682 1.98901Z" fill="#A1A3A6"/>
<path d="M22.5681 1.98944L21.87 0.804688L20.3838 1.83558L22.5681 1.98944Z" fill="#AFB1B4"/>
<path d="M20.3838 1.83545L14.3896 3.20264L22.5682 1.98931L20.3838 1.83545Z" fill="#95979A"/>
<path d="M14.3896 10.4468L14.4239 11.2578L14.7366 10.8864L14.3896 10.4468Z" fill="#97999C"/>
<path d="M14.4477 11.2941H14.467L14.7561 11.2699H14.7968H14.8375H14.906H14.9402H14.9574H14.9938L14.7111 10.9128L14.3984 11.2853V11.3228L14.4477 11.2941Z" fill="#656668"/>
</svg>
