<svg width="29" height="20" viewBox="0 0 29 20" fill="none" xmlns="http://www.w3.org/2000/svg">
<path d="M12.0537 17.0108L8.46094 13.0327L14.2119 19.4024L13.1007 18.1713L12.0537 17.0108Z" fill="#5A5B5D"/>
<path d="M6.92679 11.941L7.67617 11.3415L1.65331 9.14903L0.173828 7.9436L1.65331 9.14903L7.67617 11.3415L6.92679 11.941Z" fill="#A1A3A6"/>
<path d="M6.9268 11.9407L7.67618 12.3517L6.9268 11.9407L1.65332 9.14868L7.93739 14.2787L7.51988 13.9383L6.9268 11.9407Z" fill="#A3A5A8"/>
<path d="M9.42383 11.3286L11.2844 11.7333L10.1175 13.0329L9.81565 13.3776L12.3785 12.7803L14.2134 12.3521L9.42383 11.3286Z" fill="#E4E5E6"/>
<path d="M13.4121 15.5077H14.2129V13.8826L12.0547 15.5077H13.4121Z" fill="#7D7E81"/>
<path d="M9.41862 11.3286L7.67578 11.3415L9.81472 13.3776L9.41862 11.3286Z" fill="#4D4D4F"/>
<path d="M9.60213 15.6405L14.2119 19.4024L8.46094 13.0327L9.60213 15.6405Z" fill="#9D9FA2"/>
<path d="M8.46161 13.0327L7.51953 13.9384L7.93704 14.2788L9.6028 15.6405L8.46161 13.0327Z" fill="#AFB1B4"/>
<path d="M7.51953 13.9381L8.46161 13.0324L7.67583 12.3516L7.51953 13.9381Z" fill="#8A8C8E"/>
<path d="M6.92676 11.9409L7.51984 13.9385L7.67614 12.352L6.92676 11.9409Z" fill="#5A5B5D"/>
<path d="M13.1016 18.1714L14.2128 19.4025V18.7752L13.1016 18.1714Z" fill="#D8D9DA"/>
<path d="M14.2128 18.7752V18.3213L13.1016 18.1714L14.2128 18.7752Z" fill="#B1B3B6"/>
<path d="M14.2128 18.3212V18.0022L13.1016 18.1713L14.2128 18.3212Z" fill="#D5D7D8"/>
<path d="M14.2128 18.0022V17.4263L13.1016 18.1714L14.2128 18.0022Z" fill="#656668"/>
<path d="M12.0547 17.0107L13.1017 18.1712V17.4261L12.0547 17.0107Z" fill="#696A6D"/>
<path d="M13.1016 18.1714L14.2128 17.4263H13.1016V18.1714Z" fill="#C2C4C6"/>
<path d="M13.1017 17.4261H14.2129L12.0547 17.0107L13.1017 17.4261Z" fill="#DCDDDE"/>
<path d="M7.67618 11.3411L1.65332 9.14868L6.9268 11.9407L7.67618 11.3411Z" fill="#9D9D9C"/>
<path d="M7.52027 10.2748L7.16699 10.2256L7.70012 10.3027L7.52241 10.277L7.52027 10.2748Z" fill="#3B3B3C"/>
<path d="M10.4293 10.6389L10.0996 10.6025L10.4293 10.6389Z" fill="#636466"/>
<path d="M11.798 10.7846L11.5068 10.7546L11.798 10.7846Z" fill="#EDEDEE"/>
<path d="M13.3272 10.9302H13.293L13.4214 10.943H13.3294L13.3272 10.9302Z" fill="#9B9DA0"/>
<path d="M12.7774 10.8788L12.6211 10.8638L12.7774 10.8788Z" fill="#A9ABAE"/>
<path d="M12.1723 10.821L11.8896 10.7932L12.1723 10.821Z" fill="#9FA1A4"/>
<path d="M13.0099 10.9044L12.8643 10.8916L13.0099 10.9044Z" fill="#545456"/>
<path d="M13.5429 10.9494L13.4209 10.9387L13.5429 10.9494Z" fill="#5C5D60"/>
<path d="M12.4434 10.8486L12.1758 10.8208L12.4434 10.8486Z" fill="#939598"/>
<path d="M9.49844 10.532L9.27148 10.5042L9.49844 10.532Z" fill="#828487"/>
<path d="M13.2933 10.926L13.1562 10.9153L13.2933 10.926Z" fill="#848689"/>
<path d="M10.9768 10.6903L10.7627 10.6667L10.9768 10.6903Z" fill="#8A8C8E"/>
<path d="M10.7616 10.6756L10.4297 10.6392L10.7616 10.6756Z" fill="#DADBDC"/>
<path d="M7.9433 10.3348L7.69922 10.3005L7.9433 10.3348Z" fill="#9FA1A4"/>
<path d="M8.29761 10.3821L7.94434 10.335L8.29761 10.3821Z" fill="#636466"/>
<path d="M9.27184 10.5041L9.03418 10.4741L9.27184 10.5041Z" fill="#CFD1D2"/>
<path d="M6.81934 10.1724L6.97563 10.1959L6.82148 10.1724H6.81934Z" fill="#717375"/>
<path d="M6.74121 10.1616L6.81401 10.1723L6.74121 10.1616Z" fill="#B6B8BA"/>
<path d="M11.1897 10.7225L10.9756 10.699L11.1897 10.7225Z" fill="#A7A9AC"/>
<path d="M8.90075 10.4595L8.55176 10.4146L8.90075 10.4595Z" fill="#5C5D60"/>
<path d="M9.42374 11.3291L9.41797 11.3262L9.42374 11.3291Z" fill="#363436"/>
<path d="M14.2014 11.0053H14.1244H14.0623H14.0173H13.983H13.8867H13.8332L13.5527 10.9818L13.4306 10.9711L13.3022 10.9582L13.1652 10.9475L13.0196 10.9326L12.874 10.9197H12.7883L12.632 10.9047H12.54H12.4543L12.1867 10.8769L11.9041 10.8491H11.8077L11.5165 10.8191H11.4073L11.1932 10.7977L10.9791 10.7741L10.765 10.7506L10.4331 10.7142L10.1034 10.6778L9.74585 10.6349L9.62809 10.6221L9.50176 10.6071L9.27481 10.5793L9.03715 10.5493L8.9044 10.5343L8.55541 10.4894L8.43336 10.4744L8.30062 10.4572L7.94734 10.4101L7.70326 10.3759L7.17013 10.2988H7.10804L6.97315 10.2795L6.81685 10.256L6.74405 10.2453L6.64342 10.2303L6.30299 10.1767H6.29014H6.25374L6.01608 10.1382H5.96042H5.94329L5.66495 10.0911H5.62213H5.59857L5.43371 10.0633L5.28812 10.0354H5.26457H5.20676L5.12111 10.0183L4.99265 9.99476H4.9691H4.94554L4.8128 9.96907H4.79353H4.76997L4.64579 9.94552H4.62867L4.55373 9.93053H4.50234H4.47236L4.33962 9.9027H4.32249L4.19403 9.87486H4.16405L3.89642 9.81705H3.8643L3.74654 9.78921L3.61808 9.75711H3.59024L3.48319 9.73141H3.46178L3.34187 9.69929H3.31618L3.21769 9.6736H3.192L3.07852 9.64362H3.05711L2.96505 9.61793H2.93721L2.82802 9.58582H2.81517L2.7231 9.55799H2.69527L2.5925 9.52587L0.181641 7.9436L1.66113 9.15118L7.67542 11.3329L9.41826 11.3201L14.2143 11.2837V10.9989L14.2014 11.0053Z" fill="#DADADA"/>
<path d="M6.92676 11.9408L7.67614 12.3519V11.3413L6.92676 11.9408Z" fill="#A3A5A8"/>
<path d="M7.67578 12.3519L8.46156 13.0328L7.67578 11.3413V12.3519Z" fill="#EDEDEE"/>
<path d="M10.5298 14.0583L9.81472 13.3775L7.67578 11.3413L8.46156 13.0328L12.0543 15.5079L10.5298 14.0583Z" fill="#7E8083"/>
<path d="M8.46094 13.0327L10.4179 14.7649L12.0537 17.0108V15.5078L8.46094 13.0327Z" fill="#CBCCCE"/>
<path d="M8.46094 13.0327L12.0537 17.0108L10.4179 14.7649L8.46094 13.0327Z" fill="#E9E9EA"/>
<path d="M14.2134 12.352V11.29L9.42383 11.3286L14.2134 12.352Z" fill="#A1A3A6"/>
<path d="M9.42225 11.3286L14.2118 11.29L9.41797 11.3264L9.42225 11.3286Z" fill="#9FA1A4"/>
<path d="M10.116 13.0329L11.2829 11.7333L9.42225 11.3286H9.41797L10.116 13.0329Z" fill="#848689"/>
<path d="M9.42374 11.3291L9.41797 11.3262V11.3291H9.42374Z" fill="#3E3E3F"/>
<path d="M9.81407 13.3776L10.116 13.0329L9.41797 11.3286L9.81407 13.3776Z" fill="#ABADB0"/>
<path d="M13.183 16.5098L12.0547 15.5078V17.0109L14.2129 17.4262L13.183 16.5098Z" fill="#B8BABC"/>
<path d="M14.2129 16.0495V15.5078H13.4121L14.2129 16.0495Z" fill="#4D4D4F"/>
<path d="M13.4121 15.5078H12.0547L13.183 16.5098L13.4121 15.5078Z" fill="#E9E9EA"/>
<path d="M13.1836 16.51L14.2135 17.4264L13.1836 16.51Z" fill="#E6E7E8"/>
<path d="M14.2135 17.4265V16.0498L13.1836 16.5101L14.2135 17.4265Z" fill="#636466"/>
<path d="M13.1836 16.5098L14.2135 16.0495L13.4127 15.5078L13.1836 16.5098Z" fill="#7E8083"/>
<path d="M12.0537 15.5079L12.4434 13.5745L10.5293 14.0583L12.0537 15.5079Z" fill="#6D6E71"/>
<path d="M10.5293 14.0583L12.0537 15.5079L10.5293 14.0583Z" fill="#F1F2F2"/>
<path d="M12.4437 13.5744L9.81445 13.3774L10.5296 14.0583L12.4437 13.5744Z" fill="#EBEBEC"/>
<path d="M10.5296 14.0583L9.81445 13.3774L10.5296 14.0583Z" fill="#636466"/>
<path d="M12.8961 14.8356L12.5279 15.1525L12.4444 13.5745L12.0547 15.5079L14.2129 13.8828L12.4444 13.5745L12.8961 14.8356Z" fill="#919396"/>
<path d="M12.8961 14.8356L12.4443 13.5745L12.5278 15.1525L12.8961 14.8356Z" fill="#8C8E90"/>
<path d="M12.3773 12.7798L9.81445 13.3771L12.4437 13.5741L14.2122 13.8824V12.3516L13.5528 13.7668L12.3773 12.7798Z" fill="#8F9194"/>
<path d="M12.3789 12.7798L14.2138 12.3516L12.3789 12.7798Z" fill="#5C5D60"/>
<path d="M14.0875 12.6235L13.974 12.8654L12.3789 12.7798L13.5544 13.7668L14.2138 12.3516L12.3789 12.7798L14.0875 12.6235Z" fill="#CBCCCE"/>
<path d="M13.974 12.8657L14.0875 12.6238L12.3789 12.7801L13.974 12.8657Z" fill="#8C8E90"/>
<path d="M3.59277 9.57275L3.71696 9.60058L3.59277 9.57275Z" fill="#C0C2C4"/>
<path d="M3.87988 9.63916L4.14752 9.69696L3.87988 9.63916Z" fill="#888A8C"/>
<path d="M6.63965 10.1467L6.74028 10.1617L6.81308 10.1724L6.63965 10.1467Z" fill="#5A5B5D"/>
<path d="M4.17773 9.70532L4.3062 9.73101L4.17773 9.70532Z" fill="#CDCFD0"/>
<path d="M14.212 0H11.283L6.73535 0.783636L14.212 3.11956V0Z" fill="#C0C2C4"/>
<path d="M3.73242 9.60498L3.84804 9.63067L3.73242 9.60498Z" fill="#565759"/>
<path d="M3.05176 9.43384L3.16523 9.46382L3.05176 9.43384Z" fill="#EBEBEC"/>
<path d="M3.19336 9.46997L3.28971 9.49566L3.19336 9.46997Z" fill="#696A6D"/>
<path d="M2.56836 9.28784L2.66899 9.31995L2.56836 9.28784Z" fill="#7B7C7F"/>
<path d="M2.69629 9.32861L2.78835 9.35645L2.69629 9.32861Z" fill="#C4C6C8"/>
<path d="M3.31738 9.5022L3.43514 9.53431L3.31738 9.5022Z" fill="#DADBDC"/>
<path d="M2.80078 9.3606L2.90998 9.39272L2.80078 9.3606Z" fill="#E6E7E8"/>
<path d="M2.9375 9.40552L3.02957 9.43121L2.9375 9.40552Z" fill="#95979A"/>
<path d="M0.780273 7.03993L5.68549 5.08298L4.79694 4.23511L4.38157 3.83687L4.08396 3.55211L3.49517 2.98901L2.77148 5.42342L0.780273 7.03993Z" fill="#DEDFE0"/>
<path d="M2.09866 5.07007L0.173828 7.94339L0.779751 7.03987L2.09866 5.07007Z" fill="#545456"/>
<path d="M6.63731 10.1468L6.29688 10.0933L6.63731 10.1468Z" fill="#A7A9AC"/>
<path d="M7.52027 10.2748L7.16699 10.2256L7.52027 10.2748Z" fill="#C7C8CA"/>
<path d="M3.45703 9.53833L3.56194 9.56402L3.45703 9.53833Z" fill="#757679"/>
<path d="M13.8659 10.6046L14.2128 10.1764V5.93921L11.3994 7.76127L13.8659 10.6046Z" fill="#BABCBE"/>
<path d="M14.2128 11.0049V10.1763L14.1807 10.9663L14.2128 11.0049Z" fill="#E4E5E6"/>
<path d="M13.7922 10.9709H13.7494H13.6744H13.6252H13.5909L13.334 10.9495H13.4261L13.5481 10.9602L13.8286 10.9837H13.7965L13.7922 10.9709Z" fill="#5A5B5D"/>
<path d="M6.81934 10.1724L6.97349 10.1959L7.10838 10.2152H7.16833L6.81934 10.1724Z" fill="#D1D3D4"/>
<path d="M5.28125 9.91943L5.42684 9.94727L5.59171 9.97509L5.28125 9.91943Z" fill="#9B9DA0"/>
<path d="M7.52148 10.2751L7.69919 10.3008L7.94328 10.3351L8.29655 10.3822L8.4293 10.3993L8.55134 10.4143L8.90034 10.4593L9.03309 10.4743L9.27075 10.5042L9.4977 10.5321L9.62403 10.5471L9.74178 10.5599L10.0993 10.6027L10.4291 10.6391L10.7609 10.6755L10.975 10.6991L11.1892 10.7226L11.4033 10.744H11.5125L11.8036 10.774H11.9L12.1826 10.8019L12.4503 10.8297H12.5359H12.628L12.7843 10.8447H12.8699L13.0155 10.8575L13.1611 10.8725L13.2981 10.8832H13.3324C12.1034 10.8211 9.79531 10.5963 7.52148 10.2751Z" fill="#EBEBEC"/>
<path d="M2.56543 9.28812L3.05574 8.62866L2.56543 9.28812Z" fill="#333132"/>
<path d="M5.96289 10.0483H6.01856L6.25622 10.0869H6.29262L5.96289 10.0483Z" fill="#616264"/>
<path d="M8.63281 5.37847L14.2125 5.93943L10.4484 3.11963L8.63281 5.37847Z" fill="#515254"/>
<path d="M4.79785 9.83423L4.92846 9.85992L4.79785 9.83423Z" fill="#3E3E3F"/>
<path d="M4.32283 9.73577L4.45558 9.76361L4.31641 9.73364L4.32283 9.73577Z" fill="#F1F2F2"/>
<path d="M4.48633 9.76758H4.53771L4.61265 9.78257L4.48633 9.76758Z" fill="#515254"/>
<path d="M4.62988 9.79761L4.75407 9.82116H4.77762L4.62988 9.79761Z" fill="#C7C8CA"/>
<path d="M5.20069 9.90705H5.2585L5.11719 9.88135L5.20069 9.90705Z" fill="#434345"/>
<path d="M5.61719 9.97949H5.66001L5.93835 10.0266L5.61719 9.97949Z" fill="#363436"/>
<path d="M7.52045 10.2754L5.7091 7.68038L6.54198 7.50696L7.52045 10.2754L5.68555 5.08325L5.7091 8.79375L7.52045 10.2754Z" fill="#848689"/>
<path d="M4.95312 9.85962H4.97668L5.103 9.88317L4.95312 9.85962Z" fill="#9FA1A4"/>
<path d="M9.62437 10.5472L9.49805 10.5322L9.62437 10.5472Z" fill="#E6E7E8"/>
<path d="M10.0998 10.6024L9.74219 10.5596L10.0998 10.6024Z" fill="#A1A3A6"/>
<path d="M5.65918 9.98608L5.93752 10.0332L5.65918 9.98608Z" fill="#4D4D4F"/>
<path d="M3.59277 9.57275L3.7191 9.60486L3.59277 9.57275Z" fill="#9D9FA2"/>
<path d="M3.45703 9.53833L3.56409 9.56402L3.45703 9.53833Z" fill="#8F9194"/>
<path d="M3.73242 9.60498L3.85018 9.63282L3.73242 9.60498Z" fill="#5F6062"/>
<path d="M4.17773 9.70532L4.3062 9.73316L4.17773 9.70532Z" fill="#515254"/>
<path d="M3.31738 9.5022L3.43728 9.53431L3.31738 9.5022Z" fill="#848689"/>
<path d="M3.87988 9.63916L4.14752 9.69696L3.87988 9.63916Z" fill="#A1A3A6"/>
<path d="M2.80078 9.3606L2.90998 9.39272L2.80078 9.3606Z" fill="#8C8E90"/>
<path d="M2.69629 9.32861L2.78835 9.35645L2.69629 9.32861Z" fill="#757679"/>
<path d="M2.56836 9.28784L2.67113 9.31995L2.56836 9.28784Z" fill="#434345"/>
<path d="M3.19336 9.46997L3.29185 9.49566L3.19336 9.46997Z" fill="#58595B"/>
<path d="M4.53711 9.77832L4.61205 9.79331L4.53711 9.77832Z" fill="#DEDFE0"/>
<path d="M3.05176 9.43384L3.16523 9.46382L3.05176 9.43384Z" fill="#BCBEC0"/>
<path d="M2.9375 9.40552L3.02957 9.43121L2.9375 9.40552Z" fill="#464547"/>
<path d="M8.4306 10.3992L8.29785 10.3821L8.4306 10.3992Z" fill="#AFB1B4"/>
<path d="M5.42773 9.94727L5.5926 9.97509L5.42773 9.94727Z" fill="#828487"/>
<path d="M4.62988 9.79761L4.75407 9.82116L4.62988 9.79761Z" fill="#565759"/>
<path d="M6.63965 10.1467L6.74028 10.1617L6.63965 10.1467Z" fill="#3B3B3C"/>
<path d="M6.29688 10.0933L6.63731 10.1468L6.29688 10.0933Z" fill="#A1A3A6"/>
<path d="M4.97656 9.86401L5.10503 9.88756L4.97656 9.86401Z" fill="#DEDFE0"/>
<path d="M4.79785 9.83423L4.92846 9.85992L4.79785 9.83423Z" fill="#848689"/>
<path d="M9.03314 10.4762L8.90039 10.4612L9.03314 10.4762Z" fill="#C7C8CA"/>
<path d="M7.10559 10.2151L6.9707 10.1958L7.10559 10.2151Z" fill="#616264"/>
<path d="M5.1084 9.88965L5.19404 9.90678L5.11054 9.88965H5.1084Z" fill="#D8D9DA"/>
<path d="M0.173828 7.9436L2.56541 9.28821L0.173828 7.9436Z" fill="#A9ABAE"/>
<path d="M6.73574 0.783691L3.49414 2.98901L6.03775 1.93773L6.73574 0.783691Z" fill="#AFB1B4"/>
<path d="M4.03797 3.51119L6.03775 1.9375L3.49414 2.98878L4.08294 3.55187L4.03797 3.51119Z" fill="#E2E3E4"/>
<path d="M4.86539 4.29912L4.79688 4.23488L5.68542 5.08275L6.0387 1.9375L4.86539 4.29912Z" fill="#ABADB0"/>
<path d="M4.08301 3.552L4.38062 3.83677L4.08301 3.552Z" fill="#B1B3B6"/>
<path d="M6.03786 1.9375L4.03809 3.51119L4.08305 3.55187L4.38066 3.83664L6.03786 1.9375Z" fill="#7D7E81"/>
<path d="M4.38086 3.83691L4.79623 4.23515L4.38086 3.83691Z" fill="#5C5D60"/>
<path d="M6.03806 1.9375L4.38086 3.83664L4.79623 4.23488L4.86474 4.29912L6.03806 1.9375Z" fill="#CDCFD0"/>
<path d="M3.494 2.98901L0.338044 5.95869L0.269531 6.79585L3.494 2.98901Z" fill="#808285"/>
<path d="M0.173828 7.94346L2.09866 5.07014L2.5804 4.35074L2.83519 3.97176L3.49464 2.98901L0.210226 7.50669L0.173828 7.94346Z" fill="#EFEFF0"/>
<path d="M0.209961 7.50669L3.49438 2.98901L0.269911 6.79585L0.209961 7.50669Z" fill="#636466"/>
<path d="M5.68497 5.08325L0.779751 7.0402L0.173828 7.94373L5.68497 5.08325Z" fill="#86888A"/>
<path d="M2.77148 5.42327L2.58092 4.35059L2.09918 5.06999L0.780273 7.03978L2.77148 5.42327Z" fill="#3E3E3F"/>
<path d="M2.58135 4.35059L2.09961 5.06999L2.58135 4.35059Z" fill="#A5A7AA"/>
<path d="M2.77063 5.42309L2.83487 3.97144L2.58008 4.35041L2.77063 5.42309Z" fill="#BABCBE"/>
<path d="M2.83487 3.97144L2.58008 4.35041L2.83487 3.97144Z" fill="#919396"/>
<path d="M2.83496 3.97176L3.49441 2.98901L2.83496 3.97176Z" fill="#6B6C6F"/>
<path d="M2.77051 5.42342L3.49419 2.98901L2.83474 3.97176L2.77051 5.42342Z" fill="#BCBEC0"/>
<path d="M2.83496 3.97176L3.49441 2.98901L2.83496 3.97176Z" fill="#434345"/>
<path d="M6.03883 1.9375L5.68555 5.08275L10.4495 3.11938L6.03883 1.9375Z" fill="#C6C6C6"/>
<path d="M14.2132 5.93943V3.11963H10.4492L14.2132 5.93943Z" fill="#F1F2F2"/>
<path d="M11.3991 7.76169L14.2125 5.93962L8.63281 5.37866L11.3991 7.76169Z" fill="#6F7173"/>
<path d="M9.60372 8.92649L8.63382 5.37872L6.73682 6.11311L5.68555 5.08325L9.60372 8.92649Z" fill="#3E3E3F"/>
<path d="M10.4495 3.11963L5.68555 5.083L8.63382 5.37847L10.4495 3.11963Z" fill="#393839"/>
<path d="M9.60372 8.92649L5.68555 5.08325L7.52045 10.2754L9.60372 8.92649Z" fill="#616264"/>
<path d="M8.63382 5.37872L5.68555 5.08325L8.63382 5.37872Z" fill="#393839"/>
<path d="M8.63382 5.37872L5.68555 5.08325L6.73682 6.11311L8.63382 5.37872Z" fill="#CBCCCE"/>
<path d="M8.63281 5.37866L9.60272 8.92643L10.5726 8.29696L8.63281 5.37866Z" fill="#9FA1A4"/>
<path d="M10.5726 8.29696L11.3991 7.76169L8.63281 5.37866L10.5726 8.29696Z" fill="#4D4D4F"/>
<path d="M1.19084 8.51541L2.56541 9.28834L2.64035 6.66337L3.98067 7.38063L5.68497 5.08325L0.173828 7.94373L1.19084 8.51541Z" fill="#A5A7AA"/>
<path d="M2.565 9.28806L1.19043 8.51514L2.565 9.28806Z" fill="#6B6C6F"/>
<path d="M0.173828 7.9436L1.19084 8.51528L0.173828 7.9436Z" fill="#8F9194"/>
<path d="M1.19084 8.51528L0.173828 7.9436L2.56541 9.28821L1.19084 8.51528Z" fill="#D3D5D6"/>
<path d="M3.98094 7.38034L2.64062 6.66309L3.30222 8.29673L3.98094 7.38034Z" fill="#67686B"/>
<path d="M3.08143 8.59424L2.56543 9.28795L3.05574 8.62849L3.08143 8.59424Z" fill="#393839"/>
<path d="M3.10284 8.56421L2.56543 9.2879L3.08143 8.59419L3.10284 8.56421Z" fill="#95979A"/>
<path d="M3.10284 8.56437L3.30196 8.29673L2.64037 6.66309L2.56543 9.28805L3.10284 8.56437Z" fill="#CFD1D2"/>
<path d="M14.1787 11.0031H14.2151L14.1809 10.9646L14.1787 11.0031Z" fill="#565759"/>
<path d="M7.52186 10.2749C9.79569 10.596 12.1038 10.8208 13.3263 10.93L13.5833 10.9514L13.8637 10.6046L11.3972 7.76123L10.5708 8.2965L9.90916 8.72472L7.51758 10.2727L7.52186 10.2749Z" fill="#48484A"/>
<path d="M9.6028 8.92593L7.51953 10.2748L9.91112 8.72681L9.6028 8.92593Z" fill="#464547"/>
<path d="M9.6028 8.92627L7.51953 10.2751L9.6028 8.92627Z" fill="#808285"/>
<path d="M9.91211 8.72723L10.5737 8.29688L9.91211 8.72723Z" fill="#5C5D60"/>
<path d="M9.91183 8.72723L10.5734 8.29688L9.60352 8.92635L9.91183 8.72723Z" fill="#939598"/>
<path d="M10.5723 8.2965L11.3987 7.76123L10.5723 8.2965Z" fill="#ABADB0"/>
<path d="M10.5723 8.2965L11.3987 7.76123L10.5723 8.2965Z" fill="#E6E7E8"/>
<path d="M7.16406 10.2236L7.16707 10.2266L7.16406 10.2236Z" fill="#D5D7D8"/>
<path d="M5.61606 9.97967L5.93722 10.0332H5.95435L6.28407 10.0867H6.29692L6.63735 10.1403L6.81078 10.1659L7.15977 10.2173L7.51305 10.2666L4.75962 8.98193L2.55859 9.28596L2.65922 9.31808H2.68706L2.77912 9.34591H2.79197L2.90116 9.37803H2.929L3.02106 9.40372H3.04248L3.15595 9.4337H3.18379L3.28014 9.45939H3.30797L3.42573 9.49151H3.44928L3.5542 9.5172H3.58417L3.70835 9.54504H3.72334L3.83896 9.57073H3.87107L4.13871 9.62853H4.16868L4.29715 9.65422H4.30786L4.44703 9.6842H4.477L4.60332 9.70989H4.62045L4.76819 9.73773H4.7896L4.92021 9.76342H4.94376L5.09363 9.79126H5.10862L5.24993 9.81695H5.27348L5.58394 9.87262L5.61606 9.97967Z" fill="#B1B3B6"/>
<path d="M3.05574 8.62874L2.56543 9.2882L4.76646 8.98417L3.30196 8.29688L3.05574 8.62874Z" fill="#9B9DA0"/>
<path d="M3.08038 8.59449L3.05469 8.62874L3.30091 8.29688L3.08038 8.59449Z" fill="#58595B"/>
<path d="M3.30159 8.29688L3.10247 8.56451L3.08105 8.59449L3.30159 8.29688Z" fill="#464547"/>
<path d="M3.30264 8.29688L3.10352 8.56451L3.30264 8.29688Z" fill="#5C5D60"/>
<path d="M3.98048 7.38013L5.57558 9.14866L3.30176 8.29652L4.76626 8.98381L7.51969 10.2749L5.70833 8.79325L3.98048 7.38013Z" fill="#67686B"/>
<path d="M3.30176 8.29688L4.76626 8.98417L3.30176 8.29688Z" fill="#67686B"/>
<path d="M3.30176 8.29652L5.57558 9.14866L3.98048 7.38013L3.30176 8.29652Z" fill="#737577"/>
<path d="M3.30176 8.29652L3.98048 7.38013L3.30176 8.29652Z" fill="#C4C6C8"/>
<path d="M3.30176 8.29652L3.98048 7.38013L3.30176 8.29652Z" fill="#AFB1B4"/>
<path d="M5.69547 6.59914L5.70832 8.79375L5.68477 5.08325L3.98047 7.38063L5.69547 6.59914Z" fill="#393839"/>
<path d="M3.98047 7.38063L5.68477 5.08325L3.98047 7.38063Z" fill="#363436"/>
<path d="M5.70832 8.79324L5.69547 6.59863L5.20945 8.38643L4.38085 7.70771L5.69547 6.59863L3.98047 7.38012L5.70832 8.79324Z" fill="#414042"/>
<path d="M3.98047 7.38013L5.70832 8.79325L3.98047 7.38013Z" fill="#333132"/>
<path d="M5.70801 7.68002L7.51936 10.275L6.54089 7.50659L5.70801 7.68002Z" fill="#97999C"/>
<path d="M5.20946 8.38643L5.69548 6.59863L4.38086 7.70771L5.20946 8.38643Z" fill="#D8D9DA"/>
<path d="M14.2137 3.11938L6.03906 1.9375L10.4497 3.11938H14.2137Z" fill="#9B9DA0"/>
<path d="M14.212 3.11961L6.73535 0.783691L8.22126 1.78786L14.212 3.11961Z" fill="#B2B2B2"/>
<path d="M8.22296 1.78786L6.73705 0.783691L6.03906 1.93773L8.22296 1.78786Z" fill="#BEC0C2"/>
<path d="M8.22296 1.78784L6.03906 1.93771L14.2137 3.11959L8.22296 1.78784Z" fill="#BEC0C2"/>
<path d="M14.181 10.9663L14.2131 10.1763L13.8662 10.6045L14.181 10.9663Z" fill="#F1F2F2"/>
<path d="M13.62 10.956H13.6714H13.7463H13.7891H13.7998H13.8405L14.1317 10.9795H14.1724V10.9431L13.8576 10.5813L13.5771 10.9282L13.62 10.956Z" fill="#545456"/>
<path d="M16.0499 12.7803L18.6128 13.3776L18.3109 13.0329L17.144 11.7333L19.0046 11.3286L14.2129 12.3521L16.0499 12.7803Z" fill="#9D9FA2"/>
<path d="M16.2275 17.1736L19.9659 13.0327L16.3753 17.0108L16.2275 17.1736Z" fill="#D8D9DA"/>
<path d="M18.6133 13.3776L20.7522 11.3415L19.0094 11.3286L18.6133 13.3776Z" fill="#5F6062"/>
<path d="M16.3754 15.5077L14.2129 13.8826V15.5077H15.0158H16.3754Z" fill="#A7A9AC"/>
<path d="M28.2533 7.9436L26.7738 9.14903L20.751 11.3415L21.5004 11.941L20.751 11.3415L26.7738 9.14903L28.2533 7.9436Z" fill="#B3B5B8"/>
<path d="M20.7524 12.3517L21.5018 11.9407L20.9087 13.9383L20.3799 14.3708L26.7753 9.14868L21.5018 11.9407L20.7524 12.3517Z" fill="#B1B3B6"/>
<path d="M19.966 13.0327L16.2276 17.1736L15.3263 18.1713L14.2129 19.4024L18.8248 15.6405L19.966 13.0327Z" fill="#B6B8BA"/>
<path d="M19.9664 13.0327L18.8252 15.6405L20.3796 14.3709L20.9085 13.9384L19.9664 13.0327Z" fill="#4F4F51"/>
<path d="M20.9069 13.9381L20.7506 12.3516L19.9648 13.0324L20.9069 13.9381Z" fill="#8A8C8E"/>
<path d="M21.5004 11.9409L20.751 12.352L20.9073 13.9385L21.5004 11.9409Z" fill="#828487"/>
<path d="M14.2129 18.7752V19.4025L15.3263 18.1714L14.2129 18.7752Z" fill="#6B6C6F"/>
<path d="M14.2129 19.4025L15.3263 18.1714L14.2129 19.4025Z" fill="#97999C"/>
<path d="M15.3263 18.1714L14.2129 18.3213V18.7752L15.3263 18.1714Z" fill="#A1A3A6"/>
<path d="M15.3263 18.1713L14.2129 18.0022V18.3212L15.3263 18.1713Z" fill="#B6B8BA"/>
<path d="M15.3263 18.1714L14.2129 17.4263V18.0022L15.3263 18.1714Z" fill="#77787B"/>
<path d="M15.3262 17.4261V18.1712L16.2276 17.1735L16.3753 17.0107L15.3262 17.4261Z" fill="#737577"/>
<path d="M15.3262 18.1716L16.2276 17.1738L15.3262 18.1716Z" fill="#C2C4C6"/>
<path d="M15.3263 18.1714V17.4263H14.2129L15.3263 18.1714Z" fill="#DEDFE0"/>
<path d="M16.3754 17.0107L14.2129 17.4261H15.3263L16.3754 17.0107Z" fill="#888A8C"/>
<path d="M21.5004 11.9407L26.7738 9.14868L20.751 11.3411L21.5004 11.9407Z" fill="#9D9D9C"/>
<path d="M15.1001 10.9303L14.6055 10.9731L15.2735 10.9153L15.1022 10.9303H15.1001Z" fill="#67686B"/>
<path d="M21.459 10.1959L21.6153 10.1724L21.459 10.1959Z" fill="#797A7D"/>
<path d="M20.9082 10.275L20.7305 10.3007L21.2636 10.2236L20.9082 10.275Z" fill="#A3A5A8"/>
<path d="M20.4841 10.335L20.1201 10.3821L20.4841 10.335Z" fill="#545456"/>
<path d="M16.9276 10.7546L16.251 10.821L16.9276 10.7546Z" fill="#E0E1E2"/>
<path d="M16.251 10.8208L15.9834 10.8486L16.251 10.8208Z" fill="#BABCBE"/>
<path d="M15.8124 10.8638L15.5684 10.8873L15.8124 10.8638Z" fill="#E2E3E4"/>
<path d="M15.569 10.8872L15.417 10.9001L15.569 10.8872Z" fill="#CDCFD0"/>
<path d="M17.4511 10.6902L16.9287 10.7459L17.4511 10.6902Z" fill="#EFEFF0"/>
<path d="M15.9836 10.8491L15.8145 10.8641L15.9836 10.8491Z" fill="#696A6D"/>
<path d="M19.8794 10.4146L19.5176 10.4595L19.8794 10.4146Z" fill="#BCBEC0"/>
<path d="M20.7363 10.3005L20.4922 10.3348L20.7363 10.3005Z" fill="#8F9194"/>
<path d="M19.1576 10.5042L18.9199 10.532L19.1576 10.5042Z" fill="#D3D5D6"/>
<path d="M17.9983 10.6392L17.4502 10.6991L17.9983 10.6392Z" fill="#DEDFE0"/>
<path d="M18.3385 10.6006L17.998 10.6391L18.3385 10.6006Z" fill="#BABCBE"/>
<path d="M19.3939 10.4766L19.1562 10.5065L19.3939 10.4766Z" fill="#DCDDDE"/>
<path d="M15.4181 10.9045L15.2725 10.9195L15.4181 10.9045Z" fill="#717375"/>
<path d="M21.6143 10.1723L21.6871 10.1616L21.6164 10.1723H21.6143Z" fill="#717375"/>
<path d="M25.76 9.32016H25.7343L25.6401 9.348H25.6272L25.518 9.38012H25.4902L25.3981 9.40581H25.3767L25.2632 9.43579H25.2375L25.139 9.46148H25.1134L24.9935 9.49359H24.972L24.865 9.51929H24.8372L24.7087 9.5514H24.698L24.5802 9.57924H24.5481L24.2805 9.63705H24.2505L24.122 9.66489H24.1049L23.9722 9.69272H23.9422H23.8908L23.8159 9.7077H23.7987L23.6745 9.73126H23.651H23.6317L23.499 9.75695H23.4754H23.4519L23.3234 9.7805H23.3063L23.2206 9.79763H23.165H23.1414L22.8288 9.8533H22.8053H22.7624L22.4841 9.9004H22.467H22.4113L22.1373 9.94537H22.1244H22.0537L21.784 9.98818L21.6833 10.0032L21.6105 10.0139L21.4542 10.0374L21.3194 10.0567H21.2573L20.7241 10.1338L20.4801 10.168L20.1161 10.2151L19.872 10.2473L19.5101 10.2922L19.3902 10.3072L19.1526 10.3372L18.9149 10.365L18.3347 10.4335L17.9943 10.4721L17.4461 10.532L16.9237 10.5877L16.2471 10.6541L15.9795 10.6819L15.8104 10.6969L15.5663 10.7204L15.4143 10.7333L15.2687 10.7483L14.6006 10.8061H14.5471H14.4508H14.4165H14.3716H14.3095H14.2217V11.0908L19.0156 11.1272L20.7584 11.1401L26.7813 8.94976L28.2607 7.74219L25.8692 9.08679L25.76 9.32016Z" fill="#DADADA"/>
<path d="M19.0049 11.3291L19.0106 11.3262L19.0049 11.3291Z" fill="#D3D5D6"/>
<path d="M21.5004 11.9408L20.751 11.3413V12.3519L21.5004 11.9408Z" fill="#3B3B3C"/>
<path d="M20.7506 12.3519V11.3413L19.9648 13.0328L20.7506 12.3519Z" fill="#4D4D4F"/>
<path d="M18.6124 13.3775L17.8973 14.0583L16.375 15.5079L19.9656 13.0328L20.7514 11.3413L18.6124 13.3775Z" fill="#8D9092"/>
<path d="M16.375 17.0108L18.0086 14.7649L19.9656 13.0327L16.375 15.5078V17.0108Z" fill="#A7A9AC"/>
<path d="M16.375 17.0108L19.9656 13.0327L18.0086 14.7649L16.375 17.0108Z" fill="#9D9FA2"/>
<path d="M14.2129 11.29V12.352L19.0046 11.3286L14.2129 11.29Z" fill="#878787"/>
<path d="M19.0046 11.3286L19.0089 11.3264L14.2129 11.29L19.0046 11.3286Z" fill="#ADAFB2"/>
<path d="M19.0051 11.3286L17.1445 11.7333L18.3114 13.0329L19.0094 11.3286H19.0051Z" fill="#B8BABC"/>
<path d="M19.0106 11.3291V11.3262L19.0049 11.3291H19.0106Z" fill="#3E3E3F"/>
<path d="M18.3105 13.0329L18.6124 13.3776L19.0085 11.3286L18.3105 13.0329Z" fill="#9FA1A4"/>
<path d="M16.3754 15.5078L14.2129 17.4262L16.3754 17.0109V15.5078Z" fill="#6F7173"/>
<path d="M14.2129 15.5078V16.0495L15.0158 15.5078H14.2129Z" fill="#EFEFF0"/>
<path d="M15.0158 15.5078L15.2449 16.5098L14.2129 17.4262L16.3754 15.5078H15.0158Z" fill="#565759"/>
<path d="M14.2129 16.0498V17.4265L15.2449 16.5101L14.2129 16.0498Z" fill="#565759"/>
<path d="M15.0158 15.5078L14.2129 16.0495L15.2449 16.5098L15.0158 15.5078Z" fill="#AFB1B4"/>
<path d="M15.9834 13.5745L16.3752 15.5079L17.8975 14.0583L15.9834 13.5745Z" fill="#8D9092"/>
<path d="M16.375 15.5079L17.8973 14.0583L16.375 15.5079Z" fill="#E9E9EA"/>
<path d="M18.6126 13.3774L15.9834 13.5744L17.8975 14.0583L18.6126 13.3774Z" fill="#A5A7AA"/>
<path d="M17.8975 14.0583L18.6126 13.3774L17.8975 14.0583Z" fill="#DCDDDE"/>
<path d="M15.9836 13.5745L15.9001 15.1525L15.5318 14.8356L15.9836 13.5745L14.2129 13.8828L16.3754 15.5079L15.9836 13.5745Z" fill="#A7A9AC"/>
<path d="M15.9005 15.1525L15.984 13.5745L15.5322 14.8356L15.9005 15.1525Z" fill="#CFD1D2"/>
<path d="M18.6128 13.3771L16.0499 12.7798L14.8745 13.7668L14.2129 12.3516V13.8824L15.9836 13.5741L18.6128 13.3771Z" fill="#EDEDEE"/>
<path d="M16.0499 12.7798L14.2129 12.3516L16.0499 12.7798Z" fill="#828487"/>
<path d="M16.0499 12.7798L14.4548 12.8654L14.3414 12.6235L16.0499 12.7798L14.2129 12.3516L14.8745 13.7668L16.0499 12.7798Z" fill="#B8BABC"/>
<path d="M14.3408 12.6238L14.4543 12.8657L16.0494 12.7801L14.3408 12.6238Z" fill="#CBCCCE"/>
<path d="M24.0471 3.83687L23.6317 4.23511L22.7432 5.08298L27.6484 7.03993L25.6572 5.42342L24.9356 2.98901L24.3447 3.55211L24.0471 3.83687Z" fill="#828487"/>
<path d="M25.8624 9.28812L25.3721 8.62866L25.8624 9.28812Z" fill="#C2C4C6"/>
<path d="M14.2129 5.93936V10.1765V11.0051L14.2471 10.9666L14.2129 10.1765L14.5619 10.6048L17.0284 7.76142L14.2129 5.93936V3.11956L21.6917 0.783636L17.144 0H14.2129V3.11956V5.93936Z" fill="#95979A"/>
<path d="M20.9082 10.2748L21.2615 10.2256L20.9082 10.2748Z" fill="#919396"/>
<path d="M24.8341 9.57275L24.71 9.60058L24.8341 9.57275Z" fill="#DCDDDE"/>
<path d="M24.5469 9.63916L24.2793 9.69696L24.5469 9.63916Z" fill="#67686B"/>
<path d="M21.2646 10.2235H21.3246L21.4595 10.2042L21.6136 10.1807L21.2646 10.2235Z" fill="#393839"/>
<path d="M24.9701 9.53833L24.8652 9.56402L24.9701 9.53833Z" fill="#97999C"/>
<path d="M24.6957 9.60498L24.5801 9.63067L24.6957 9.60498Z" fill="#434345"/>
<path d="M22.1436 10.0909L22.4176 10.0459H22.4733L22.1436 10.0909Z" fill="#363436"/>
<path d="M23.6504 9.8341H23.6739L23.7981 9.81055L23.6504 9.8341Z" fill="#77787B"/>
<path d="M21.6172 10.1724L21.6878 10.1617L21.7885 10.1467L21.6172 10.1724Z" fill="#B8BABC"/>
<path d="M23.8904 9.77832H23.9418L23.8154 9.80401L23.8904 9.77832Z" fill="#B8BABC"/>
<path d="M23.3252 9.88756L23.4515 9.86401H23.4751L23.3252 9.88756Z" fill="#B8BABC"/>
<path d="M23.9717 9.76319L24.1044 9.73535L23.9717 9.76319Z" fill="#A3A5A8"/>
<path d="M23.499 9.85553L23.6296 9.82983L23.499 9.85553Z" fill="#B3B5B8"/>
<path d="M22.0608 10.1038H22.1314L21.791 10.1573L22.0608 10.1038Z" fill="#737577"/>
<path d="M25.114 9.5022L24.9941 9.53431L25.114 9.5022Z" fill="#EDEDEE"/>
<path d="M22.7676 9.98608H22.8104L22.4893 10.0396L22.7676 9.98608Z" fill="#4D4D4F"/>
<path d="M23.1699 9.91533H23.2256L23.3091 9.89819L23.1699 9.91533Z" fill="#9D9FA2"/>
<path d="M24.2505 9.70532L24.1221 9.73101L24.2505 9.70532Z" fill="#5F6062"/>
<path d="M15.0995 10.9302L14.8426 10.9516H14.8083H14.7569H14.6863H14.6434H14.6113L15.0995 10.9302Z" fill="#828487"/>
<path d="M28.2549 7.94339L26.3301 5.07007L27.649 7.03987L28.2549 7.94339Z" fill="#ADAFB2"/>
<path d="M19.7947 5.37847L17.9791 3.11963L14.2129 5.93943L19.7947 5.37847Z" fill="#656668"/>
<path d="M23.1476 9.91943L22.835 9.97509L23.1476 9.91943Z" fill="#AFB1B4"/>
<path d="M25.7317 9.32861L25.6396 9.35645L25.7317 9.32861Z" fill="#EDEDEE"/>
<path d="M25.3762 9.43384L25.2627 9.46382L25.3762 9.43384Z" fill="#A5A7AA"/>
<path d="M25.4905 9.40552L25.3984 9.43121L25.4905 9.40552Z" fill="#DEDFE0"/>
<path d="M25.8604 9.28784L25.7598 9.31995L25.8604 9.28784Z" fill="#E0E1E2"/>
<path d="M25.6276 9.3606L25.5205 9.39272L25.6276 9.3606Z" fill="#E6E7E8"/>
<path d="M21.8867 7.50696L22.7196 7.68038L20.9082 10.2754L22.7196 8.79375L22.7431 5.08325L20.9082 10.2754L21.8867 7.50696Z" fill="#808285"/>
<path d="M25.2331 9.46997L25.1367 9.49566L25.2331 9.46997Z" fill="#DCDDDE"/>
<path d="M15.1016 10.9303L15.2728 10.9153L15.4184 10.9003L15.5705 10.8875L15.8145 10.8639L15.9837 10.849L16.2513 10.8211L16.9279 10.7547L17.4503 10.6991L17.9984 10.6391L18.3389 10.6006L18.9191 10.5321L19.1568 10.5042L19.3944 10.4743L19.5143 10.4593L19.8762 10.4143L20.1203 10.3822L20.4842 10.3351L20.7283 10.3008L20.906 10.2751C18.6322 10.5963 16.3241 10.8211 15.1016 10.9303Z" fill="#717375"/>
<path d="M22.4893 10.0332L22.7676 9.98608L22.4893 10.0332Z" fill="#BEC0C2"/>
<path d="M23.3232 9.88756L23.4517 9.86401L23.3254 9.88756H23.3232Z" fill="#C2C4C6"/>
<path d="M23.499 9.85553L23.6318 9.82983L23.499 9.85553Z" fill="#616264"/>
<path d="M23.8154 9.79331L23.8904 9.77832L23.8154 9.79331Z" fill="#7B7C7F"/>
<path d="M25.3984 9.42706L25.4905 9.40137L25.3984 9.42706Z" fill="#CBCCCE"/>
<path d="M23.6748 9.82116L23.799 9.79761L23.6748 9.82116Z" fill="#414042"/>
<path d="M25.5205 9.39272L25.6297 9.3606L25.5205 9.39272Z" fill="#828487"/>
<path d="M21.6875 10.1617L21.7881 10.1467L21.6875 10.1617Z" fill="#48484A"/>
<path d="M23.2275 9.90678L23.3132 9.88965L23.2275 9.90678Z" fill="#DEDFE0"/>
<path d="M21.4581 10.1958L21.3232 10.2151L21.4581 10.1958Z" fill="#BCBEC0"/>
<path d="M25.8623 9.28784L25.7617 9.31995L25.8645 9.28784H25.8623Z" fill="#D3D5D6"/>
<path d="M25.6396 9.35645L25.7339 9.32861L25.6396 9.35645Z" fill="#616264"/>
<path d="M21.791 10.1466L22.0608 10.1038L21.791 10.1466Z" fill="#3E3E3F"/>
<path d="M24.8652 9.56402L24.9723 9.53833L24.8652 9.56402Z" fill="#828487"/>
<path d="M24.2793 9.69696L24.5469 9.63916L24.2793 9.69696Z" fill="#EDEDEE"/>
<path d="M25.1387 9.49566L25.2372 9.46997L25.1387 9.49566Z" fill="#737577"/>
<path d="M24.71 9.60071L24.8384 9.5686L24.71 9.60071Z" fill="#ADAFB2"/>
<path d="M25.2627 9.46382L25.3762 9.43384L25.2627 9.46382Z" fill="#E4E5E6"/>
<path d="M24.9941 9.53431L25.114 9.5022L24.9941 9.53431Z" fill="#717375"/>
<path d="M24.1221 9.7312L24.2505 9.70337L24.1221 9.7312Z" fill="#6D6E71"/>
<path d="M24.5908 9.63062L24.7086 9.60278L24.5908 9.63062Z" fill="#5A5B5D"/>
<path d="M25.8633 9.28821L28.2549 7.9436L25.8633 9.28821Z" fill="#6F7173"/>
<path d="M24.9361 2.98901L21.6924 0.783691L22.3904 1.93773L24.9361 2.98901Z" fill="#C2C4C6"/>
<path d="M23.6315 4.23488L23.563 4.29912L22.3896 1.9375L22.7429 5.08275L23.6315 4.23488Z" fill="#58595B"/>
<path d="M24.3894 3.51119L24.3445 3.55187L24.9354 2.98878L22.3896 1.9375L24.3894 3.51119Z" fill="#B6B8BA"/>
<path d="M24.0469 3.83677L24.3445 3.552L24.0469 3.83677Z" fill="#9D9FA2"/>
<path d="M24.3445 3.55187L24.3894 3.51119L22.3896 1.9375L24.0468 3.83664L24.3445 3.55187Z" fill="#434345"/>
<path d="M23.6318 4.23515L24.0472 3.83691L23.6318 4.23515Z" fill="#CFD1D2"/>
<path d="M23.6315 4.23488L24.0468 3.83664L22.3896 1.9375L23.563 4.29912L23.6315 4.23488Z" fill="#828487"/>
<path d="M28.0894 5.95869L24.9355 2.98901L28.16 6.79585L28.0894 5.95869Z" fill="#A7A9AC"/>
<path d="M25.5929 3.97176L25.8476 4.35074L26.3294 5.07014L28.2542 7.94346L28.2178 7.50669L24.9355 2.98901L25.5929 3.97176Z" fill="#C7C8CA"/>
<path d="M28.16 6.79585L24.9355 2.98901L28.2178 7.50669L28.16 6.79585Z" fill="#6D6E71"/>
<path d="M28.2543 7.94373L27.6484 7.0402L22.7432 5.08325L28.2543 7.94373Z" fill="#A5A7AA"/>
<path d="M25.8478 4.35059L25.6572 5.42327L27.6484 7.03978L26.3295 5.06999L25.8478 4.35059Z" fill="#8A8C8E"/>
<path d="M26.3294 5.06999L25.8477 4.35059L26.3294 5.06999Z" fill="#6D6E71"/>
<path d="M25.5928 3.97144L25.657 5.42309L25.8476 4.35041L25.5928 3.97144Z" fill="#7B7C7F"/>
<path d="M25.8476 4.35041L25.5928 3.97144L25.8476 4.35041Z" fill="#ADAFB2"/>
<path d="M25.5929 3.97176L24.9355 2.98901L25.5929 3.97176Z" fill="#E6E7E8"/>
<path d="M25.5929 3.97176L24.9355 2.98901L25.6571 5.42342L25.5929 3.97176Z" fill="#3B3B3C"/>
<path d="M25.5929 3.97176L24.9355 2.98901L25.5929 3.97176Z" fill="#9D9FA2"/>
<path d="M22.7424 5.08275L22.3891 1.9375L17.9785 3.11938L22.7424 5.08275Z" fill="#9FA1A4"/>
<path d="M14.2129 3.11963V5.93943L17.9791 3.11963H14.2129Z" fill="#6F7173"/>
<path d="M19.7951 5.37872L18.8252 8.92649L22.7434 5.08325L21.6921 6.11311L19.7951 5.37872Z" fill="#E6E7E8"/>
<path d="M17.0284 7.76169L19.7947 5.37866L14.2129 5.93962L17.0284 7.76169Z" fill="#B8BABC"/>
<path d="M19.7942 5.37847L22.7424 5.083L17.9785 3.11963L19.7942 5.37847Z" fill="#EDEDEE"/>
<path d="M20.9085 10.2754L22.7434 5.08325L18.8252 8.92649L20.9085 10.2754Z" fill="#A3A5A8"/>
<path d="M19.7949 5.37872L22.7432 5.08325L19.7949 5.37872Z" fill="#A7A9AC"/>
<path d="M21.6919 6.11311L22.7432 5.08325L19.7949 5.37872L21.6919 6.11311Z" fill="#A7A9AC"/>
<path d="M17.8555 8.29696L18.8254 8.92643L19.7953 5.37866L17.8555 8.29696Z" fill="#B8BABC"/>
<path d="M19.7946 5.37866L17.0283 7.76169L17.8548 8.29696L19.7946 5.37866Z" fill="#67686B"/>
<path d="M25.7878 6.66337L25.8627 9.28834L27.2394 8.51541L28.2543 7.94373L22.7432 5.08325L24.4475 7.38063L25.7878 6.66337Z" fill="#E2E3E4"/>
<path d="M25.8633 9.28806L27.24 8.51514L25.8633 9.28806Z" fill="#757679"/>
<path d="M28.2551 7.9436L27.2402 8.51528L28.2551 7.9436Z" fill="#AFB1B4"/>
<path d="M27.24 8.51528L25.8633 9.28821L28.2549 7.9436L27.24 8.51528Z" fill="#797A7D"/>
<path d="M25.7886 6.66309L24.4482 7.38034L25.127 8.29673L25.7886 6.66309Z" fill="#CBCCCE"/>
<path d="M25.3724 8.62849L25.8627 9.28795L25.3467 8.59424L25.3724 8.62849Z" fill="#8A8C8E"/>
<path d="M25.3476 8.59419L25.8636 9.2879L25.3262 8.56421L25.3476 8.59419Z" fill="#636466"/>
<path d="M25.126 8.29673L25.3251 8.56437L25.8625 9.28805L25.7876 6.66309L25.126 8.29673Z" fill="#C2C4C6"/>
<path d="M15.0999 10.93C16.3225 10.8208 18.6306 10.596 20.9044 10.2749L18.8211 8.92598L17.8512 8.2965L17.0247 7.76123L14.5625 10.6046L14.843 10.9514L15.0999 10.93Z" fill="#8A8C8E"/>
<path d="M14.2318 11.003H14.2489V10.9666L14.2168 11.0051H14.2339L14.2318 11.003Z" fill="#B1B3B6"/>
<path d="M14.3142 10.9985H14.3763H14.4212H14.4555H14.5519H14.584L14.2949 11.0221H14.3142V10.9985Z" fill="#DEDFE0"/>
<path d="M18.8252 8.92627L20.9085 10.2751L18.8252 8.92627Z" fill="#48484A"/>
<path d="M18.8252 8.92627L20.9085 10.2751L18.8252 8.92627Z" fill="#D5D7D8"/>
<path d="M17.8555 8.29688L18.8254 8.92635L17.8555 8.29688Z" fill="#363436"/>
<path d="M17.8555 8.29688L18.8254 8.92635L17.8555 8.29688Z" fill="#C9CACC"/>
<path d="M17.0283 7.76123L17.8548 8.2965L17.0283 7.76123Z" fill="#C4C6C8"/>
<path d="M17.8548 8.2965L17.0283 7.76123L17.8548 8.2965Z" fill="#737577"/>
<path d="M21.2617 10.2266L21.2647 10.2236L21.2617 10.2266Z" fill="#BCBEC0"/>
<path d="M24.122 9.7312L24.2504 9.70551H24.2804L24.548 9.6477H24.5802L24.6958 9.62201H24.7108L24.835 9.59417H24.8649L24.9698 9.56848H24.9934L25.1133 9.53636H25.139L25.2353 9.51067H25.2632L25.3766 9.48069H25.398L25.4901 9.455H25.5201L25.6271 9.42289H25.64L25.7321 9.39505H25.7599L25.8605 9.36293L23.6616 8.97754L20.9082 10.2622L21.2615 10.2129L21.6105 10.1616L21.7818 10.1359L22.1222 10.0823H22.135L22.4648 10.0288H22.4819L22.8031 9.97528H22.8266L23.1392 9.91962H23.1628L23.3019 9.89393H23.3169L23.4668 9.86609H23.4903L23.621 9.8404H23.6424L23.7901 9.81257H23.8072L23.9336 9.78687H23.9635L24.1048 9.7569L24.122 9.7312Z" fill="#656668"/>
<path d="M25.1256 8.29688L23.6611 8.98417L25.8622 9.2882L25.3719 8.62874L25.1256 8.29688Z" fill="#696A6D"/>
<path d="M25.126 8.29688L25.3722 8.62874L25.3465 8.59449L25.126 8.29688Z" fill="#DADBDC"/>
<path d="M25.126 8.29688L25.3465 8.59449L25.3251 8.56451L25.126 8.29688Z" fill="#7D7E81"/>
<path d="M25.3251 8.56451L25.126 8.29688L25.3251 8.56451Z" fill="#848689"/>
<path d="M23.6616 8.98381L25.1261 8.29652L22.8523 9.14866L24.4474 7.38013L23.2934 8.32435L23.2184 8.38644L22.7196 8.79325L20.9082 10.2749L23.6616 8.98381Z" fill="#D8D9DA"/>
<path d="M25.1256 8.29688L23.6611 8.98417L25.1256 8.29688Z" fill="#E4E5E6"/>
<path d="M25.1264 8.29652L24.4476 7.38013L22.8525 9.14866L25.1264 8.29652Z" fill="#B6B8BA"/>
<path d="M25.127 8.29652L24.4482 7.38013L25.127 8.29652Z" fill="#656668"/>
<path d="M25.127 8.29652L24.4482 7.38013L25.127 8.29652Z" fill="#4F4F51"/>
<path d="M22.7188 8.79375L22.7316 6.59914L24.4466 7.38063L22.7423 5.08325L22.7188 8.79375Z" fill="#58595B"/>
<path d="M24.4475 7.38063L22.7432 5.08325L24.4475 7.38063Z" fill="#464547"/>
<path d="M23.8907 7.83403L24.4474 7.38012L22.7324 6.59863L24.047 7.70771L23.8907 7.83403Z" fill="#95979A"/>
<path d="M22.7316 6.59863L22.7188 8.79324L23.2176 8.38643L22.7316 6.59863Z" fill="#E9E9EA"/>
<path d="M23.2176 8.38647L22.7188 8.79329L23.2176 8.38647Z" fill="#5A5B5D"/>
<path d="M23.8913 7.83403L23.2939 8.32435L24.448 7.38013L23.8913 7.83403Z" fill="#9D9FA2"/>
<path d="M21.8867 7.50659L20.9082 10.275L22.7196 7.68002L21.8867 7.50659Z" fill="#616264"/>
<path d="M23.2188 8.38655L23.2937 8.32446L23.2188 8.38655Z" fill="#3B3B3C"/>
<path d="M23.8907 7.83403L24.047 7.70771L22.7324 6.59863L23.2184 8.38643L23.8907 7.83403Z" fill="#414042"/>
<path d="M23.2188 8.38639L23.2937 8.3243L23.8911 7.83398L23.2188 8.38639Z" fill="#E4E5E6"/>
<path d="M20.2058 1.78786L21.6917 0.783691L14.2129 3.11961L20.2058 1.78786Z" fill="#919396"/>
<path d="M22.3897 1.9375L14.2129 3.11938H17.9791L22.3897 1.9375Z" fill="#A1A3A6"/>
<path d="M22.389 1.93773L21.691 0.783691L20.2051 1.78786L22.389 1.93773Z" fill="#AFB1B4"/>
<path d="M20.2058 1.78784L14.2129 3.11959L22.3897 1.93771L20.2058 1.78784Z" fill="#95979A"/>
<path d="M14.2129 10.1763L14.2471 10.9663L14.5619 10.6045L14.2129 10.1763Z" fill="#97999C"/>
<path d="M14.2707 11.001H14.29L14.5791 10.9775H14.6197H14.6626H14.7332H14.7846H14.8189L14.5384 10.6306L14.2236 10.9925V11.0289L14.2707 11.001Z" fill="#656668"/>
<g style="mix-blend-mode:color-burn">
<path d="M28.1801 7.03608L28.1609 6.79628L28.0902 5.95912L24.9364 2.98944L21.6927 0.784124L17.145 0.000488281H14.2139H11.2849L6.73721 0.784124L3.49562 2.98944L0.339666 5.95912L0.271153 6.79628L0.249741 7.03608L0.174805 7.94389L0.949875 8.57551L1.65429 9.14932L7.52085 13.9389L7.93836 14.2794L9.60412 15.6411L14.2139 19.403L18.8258 15.6411L20.3802 14.3714L20.909 13.9389L26.7756 9.14932L27.48 8.57551L28.2551 7.94389L28.1801 7.03608Z" fill="#009640"/>
</g>
<g style="mix-blend-mode:overlay">
<path d="M28.1801 7.03608L28.1609 6.79628L28.0902 5.95912L24.9364 2.98944L21.6927 0.784124L17.145 0.000488281H14.2139H11.2849L6.73721 0.784124L3.49562 2.98944L0.339666 5.95912L0.271153 6.79628L0.249741 7.03608L0.174805 7.94389L0.949875 8.57551L1.65429 9.14932L7.52085 13.9389L7.93836 14.2794L9.60412 15.6411L14.2139 19.403L18.8258 15.6411L20.3802 14.3714L20.909 13.9389L26.7756 9.14932L27.48 8.57551L28.2551 7.94389L28.1801 7.03608Z" fill="#009640"/>
</g>
<path style="mix-blend-mode:screen" opacity="0.54" d="M21.6908 0.783636L17.1431 0H14.212H11.283L6.73535 0.783636L8.22126 1.7878L14.212 3.11956L20.2049 1.7878L21.6908 0.783636Z" fill="url(#paint0_linear)"/>
<defs>
<linearGradient id="paint0_linear" x1="3096.68" y1="1588.95" x2="4141.32" y2="1588.95" gradientUnits="userSpaceOnUse">
<stop offset="0.19"/>
<stop offset="0.37" stop-color="#494949"/>
<stop offset="0.54" stop-color="#8A8A8A"/>
<stop offset="0.69" stop-color="#BCBCBC"/>
<stop offset="0.82" stop-color="#E1E1E1"/>
<stop offset="0.93" stop-color="#F7F7F7"/>
<stop offset="1" stop-color="white"/>
</linearGradient>
</defs>
</svg>
