<svg width="29" height="20" viewBox="0 0 29 20" fill="none" xmlns="http://www.w3.org/2000/svg">
<path d="M11.8826 17.4633L8.28906 13.3794L14.0413 19.9184L12.9298 18.6546L11.8826 17.4633Z" fill="#5A5B5D"/>
<path d="M6.75445 12.256L7.504 11.6427L1.47981 9.392L0 8.15454L1.47981 9.392L7.504 11.6427L6.75445 12.256Z" fill="#A1A3A6"/>
<path d="M6.75511 12.2556L7.50465 12.6798L6.75511 12.2556L1.48047 9.3916L7.76592 14.658L7.34832 14.3085L6.75511 12.2556Z" fill="#A3A5A8"/>
<path d="M9.25195 11.6294L11.113 12.0448L9.94581 13.379L9.64386 13.7329L12.2073 13.1196L14.0426 12.68L9.25195 11.6294Z" fill="#E4E5E6"/>
<path d="M13.2415 15.92H14.0425V14.2517L11.8838 15.92H13.2415Z" fill="#7D7E81"/>
<path d="M9.24713 11.6294L7.50391 11.6426L9.64331 13.7329L9.24713 11.6294Z" fill="#4D4D4F"/>
<path d="M9.43051 16.0565L14.0413 19.9184L8.28906 13.3794L9.43051 16.0565Z" fill="#9D9FA2"/>
<path d="M8.28993 13.3794L7.34766 14.3092L7.76526 14.6586L9.43138 16.0566L8.28993 13.3794Z" fill="#AFB1B4"/>
<path d="M7.34766 14.3084L8.28994 13.3787L7.50399 12.6797L7.34766 14.3084Z" fill="#8A8C8E"/>
<path d="M6.75391 12.2559L7.34712 14.3088L7.50345 12.6801L6.75391 12.2559Z" fill="#5A5B5D"/>
<path d="M12.9307 18.6541L14.0421 19.9179V19.2739L12.9307 18.6541Z" fill="#D8D9DA"/>
<path d="M14.0421 19.2756V18.8083L12.9307 18.6541L14.0421 19.2756Z" fill="#B1B3B6"/>
<path d="M14.0421 18.8091V18.4807L12.9307 18.6548L14.0421 18.8091Z" fill="#D5D7D8"/>
<path d="M14.0421 18.4807V17.8872L12.9307 18.6543L14.0421 18.4807Z" fill="#656668"/>
<path d="M11.8838 17.4629L12.931 18.6542V17.8871L11.8838 17.4629Z" fill="#696A6D"/>
<path d="M12.9307 18.6543L14.0421 17.8872H12.9307V18.6543Z" fill="#C2C4C6"/>
<path d="M12.931 17.8883H14.0425L11.8838 17.4629L12.931 17.8883Z" fill="#DCDDDE"/>
<path d="M7.50465 11.6423L1.48047 9.3916L6.75511 12.2556L7.50465 11.6423Z" fill="#9D9D9C"/>
<path d="M7.3475 10.5505L6.99414 10.4976L7.52739 10.5769L7.34964 10.5505H7.3475Z" fill="#3B3B3C"/>
<path d="M10.2566 10.9217L9.92676 10.8843L10.2566 10.9217Z" fill="#636466"/>
<path d="M11.6262 11.0716L11.335 11.0408L11.6262 11.0716Z" fill="#EDEDEE"/>
<path d="M13.1565 11.2207H13.1221L13.2513 11.234H13.1587L13.1565 11.2207Z" fill="#9B9DA0"/>
<path d="M12.6075 11.1684L12.4502 11.1528L12.6075 11.1684Z" fill="#A9ABAE"/>
<path d="M12.0005 11.1087L11.7178 11.0801L12.0005 11.1087Z" fill="#9FA1A4"/>
<path d="M12.8399 11.1901L12.6934 11.1768L12.8399 11.1901Z" fill="#545456"/>
<path d="M12.272 11.1353L12 11.1089L12.272 11.1353Z" fill="#939598"/>
<path d="M9.32621 10.8122L9.09863 10.7834L9.32621 10.8122Z" fill="#828487"/>
<path d="M13.1223 11.2096L12.9844 11.1963L13.1223 11.2096Z" fill="#848689"/>
<path d="M10.8075 10.9901L10.5928 10.9658L10.8075 10.9901Z" fill="#8A8C8E"/>
<path d="M10.5898 10.9591L10.2578 10.9216L10.5898 10.9591Z" fill="#DADBDC"/>
<path d="M7.7705 10.607L7.52637 10.574L7.7705 10.607Z" fill="#9FA1A4"/>
<path d="M8.12582 10.6559L7.77246 10.6074L8.12582 10.6559Z" fill="#636466"/>
<path d="M9.10062 10.7834L8.8623 10.7524L9.10062 10.7834Z" fill="#CFD1D2"/>
<path d="M6.64648 10.4426L6.80375 10.467L6.64864 10.4426H6.64648Z" fill="#717375"/>
<path d="M6.56836 10.4319L6.6411 10.4429L6.56836 10.4319Z" fill="#B6B8BA"/>
<path d="M11.0184 11.0055L10.8037 10.9834L11.0184 11.0055Z" fill="#A7A9AC"/>
<path d="M8.72896 10.7367L8.37988 10.6904L8.72896 10.7367Z" fill="#5C5D60"/>
<path d="M9.25243 11.6304L9.24609 11.6272L9.25243 11.6304Z" fill="#363436"/>
<path d="M14.0307 11.2955H13.9536H13.8915H13.8058H13.7094H13.6559L13.3754 11.2713H13.2533L13.1248 11.2581L12.9877 11.2449L12.8421 11.2317L12.6965 11.2185H12.6108L12.4545 11.2031H12.3624H12.2768L12.0005 11.1086L11.7178 11.0801H11.6214L11.3302 11.0493H11.221L11.0068 11.0251L10.7927 11.0031L10.5785 10.979L10.2466 10.9416L9.91677 10.9042L9.55913 10.8603L9.44134 10.8471L9.31499 10.8317L9.08798 10.8031L8.85027 10.7723L8.7175 10.757L8.36842 10.7108L8.24636 10.6954L8.11358 10.6756L7.76022 10.6273L7.51609 10.5943L6.98284 10.5152H6.92074L6.78582 10.4954L6.62949 10.4712L6.55667 10.4602L6.45602 10.4448L6.11551 10.3921H6.10267H6.06626L5.82854 10.3525H5.77287H5.75573L5.47733 10.3042H5.4345H5.41094L5.24605 10.2756L5.10042 10.247H5.07686H5.01904L4.93338 10.2316L4.80488 10.2075H4.78133H4.75777L4.62499 10.1811H4.60572H4.58216L4.45795 10.1569H4.44082L4.36587 10.1415H4.31447H4.28449L4.15171 10.1129H4.13458L4.00609 10.0844H3.9761L3.70627 9.89095H3.67415L3.55636 9.86458L3.42787 9.8338H3.40003L3.29295 9.80743H3.27154L3.15161 9.77446H3.12591L3.0274 9.74808H3.0017L2.8882 9.71731H2.86678L2.77469 9.69093H2.74685L2.63764 9.65796H2.62479L2.5327 9.62939H2.50486L2.40206 9.59642L0.0078125 8.15454L1.48762 9.39201L7.50324 11.6493L9.24646 11.6362L14.0435 11.5988V11.2977L14.0307 11.2955Z" fill="#DADADA"/>
<path d="M6.75391 12.2558L7.50345 12.68V11.6426L6.75391 12.2558Z" fill="#A3A5A8"/>
<path d="M7.50391 12.68L8.28985 13.379L7.50391 11.6426V12.68Z" fill="#EDEDEE"/>
<path d="M10.3586 14.4318L9.64332 13.7329L7.50391 11.6426L8.28985 13.379L11.8834 15.9199L10.3586 14.4318Z" fill="#7E8083"/>
<path d="M8.28906 13.3794L10.2464 15.1576L11.8826 17.4633V15.9203L8.28906 13.3794Z" fill="#CBCCCE"/>
<path d="M8.28906 13.3794L11.8826 17.4633L10.2464 15.1576L8.28906 13.3794Z" fill="#E9E9EA"/>
<path d="M14.0426 12.6798V11.5896L9.25195 11.6292L14.0426 12.6798Z" fill="#A1A3A6"/>
<path d="M9.25038 11.6293L14.041 11.5896L9.24609 11.6271L9.25038 11.6293Z" fill="#9FA1A4"/>
<path d="M9.94424 13.379L11.1114 12.0448L9.25038 11.6294H9.24609L9.94424 13.379Z" fill="#848689"/>
<path d="M9.25243 11.6304L9.24609 11.6272V11.6304H9.25243Z" fill="#3E3E3F"/>
<path d="M9.64228 13.7329L9.94424 13.379L9.24609 11.6294L9.64228 13.7329Z" fill="#ABADB0"/>
<path d="M13.0124 16.9491L11.8838 15.9204V17.4634L14.0425 17.8876L13.0124 16.9491Z" fill="#B8BABC"/>
<path d="M14.0431 16.4758V15.9204H13.2422L14.0431 16.4758Z" fill="#4D4D4F"/>
<path d="M13.2415 15.9204H11.8838L13.0124 16.9491L13.2415 15.9204Z" fill="#E9E9EA"/>
<path d="M13.0117 16.9485L14.0418 17.887L13.0117 16.9485Z" fill="#E6E7E8"/>
<path d="M14.0418 17.887V16.4736L13.0117 16.9484L14.0418 17.887Z" fill="#636466"/>
<path d="M13.0117 16.9491L14.0418 16.4743L13.2409 15.9204L13.0117 16.9491Z" fill="#7E8083"/>
<path d="M11.8842 15.9198L12.2739 13.9351L10.3594 14.4318L11.8842 15.9198Z" fill="#6D6E71"/>
<path d="M10.3594 14.4319L11.8842 15.9199L10.3594 14.4319Z" fill="#F1F2F2"/>
<path d="M12.2734 13.9353L9.64355 13.7329L10.3588 14.4325L12.2734 13.9353Z" fill="#EBEBEC"/>
<path d="M10.3588 14.4325L9.64355 13.7329L10.3588 14.4325Z" fill="#636466"/>
<path d="M12.7254 15.2275L12.3571 15.555L12.2736 13.9351L11.8838 15.9198L14.0425 14.2516L12.2736 13.9351L12.7254 15.2275Z" fill="#919396"/>
<path d="M12.7243 15.2275L12.2725 13.9351L12.356 15.555L12.7243 15.2275Z" fill="#8C8E90"/>
<path d="M12.207 13.1193L9.64355 13.7325L12.2734 13.9347L14.0423 14.2512V12.6797L13.3827 14.1326L12.207 13.1193Z" fill="#8F9194"/>
<path d="M12.207 13.1205L14.0423 12.6797L12.207 13.1205Z" fill="#5C5D60"/>
<path d="M13.916 12.9588L13.8025 13.2072L12.207 13.1193L13.3827 14.1325L14.0423 12.6797L12.207 13.1193L13.916 12.9588Z" fill="#CBCCCE"/>
<path d="M13.8025 13.2083L13.916 12.9592L12.207 13.1201L13.8025 13.2083Z" fill="#8C8E90"/>
<path d="M3.41992 9.82495L3.54488 9.85599L3.41992 9.82495Z" fill="#C0C2C4"/>
<path d="M3.70703 9.89087L3.97473 9.95038L3.70703 9.89087Z" fill="#888A8C"/>
<path d="M6.4668 10.4163L6.56805 10.4318L6.6413 10.4429L6.4668 10.4163Z" fill="#5A5B5D"/>
<path d="M4.00488 9.96094L4.13414 9.98976L4.00488 9.96094Z" fill="#CDCFD0"/>
<path d="M14.0428 0H11.1131L6.56445 0.804456L14.0428 3.20244V0Z" fill="#C0C2C4"/>
<path d="M3.55957 9.85986L3.67591 9.88647L3.55957 9.85986Z" fill="#565759"/>
<path d="M2.87793 9.68433L2.99211 9.71537L2.87793 9.68433Z" fill="#EBEBEC"/>
<path d="M3.02051 9.72192L3.11745 9.74853L3.02051 9.72192Z" fill="#696A6D"/>
<path d="M2.39453 9.53467L2.49579 9.56793L2.39453 9.53467Z" fill="#7B7C7F"/>
<path d="M2.52246 9.57642L2.6151 9.60524L2.52246 9.57642Z" fill="#C4C6C8"/>
<path d="M3.14453 9.75439L3.26302 9.78544L3.14453 9.75439Z" fill="#DADBDC"/>
<path d="M2.62891 9.60962L2.73878 9.64288L2.62891 9.60962Z" fill="#E6E7E8"/>
<path d="M2.76465 9.65137L2.85729 9.67797L2.76465 9.65137Z" fill="#95979A"/>
<path d="M0.606445 7.22668L5.51274 5.21773L4.624 4.34514L4.20854 3.93851L3.91086 3.64618L3.32193 3.06812L2.59809 5.56721L0.606445 7.22668Z" fill="#DEDFE0"/>
<path d="M1.92526 5.20508L0 8.15472L0.606057 7.22719L1.92526 5.20508Z" fill="#545456"/>
<path d="M6.46551 10.4142L6.125 10.3613L6.46551 10.4142Z" fill="#A7A9AC"/>
<path d="M7.3475 10.5505L6.99414 10.4976L7.3475 10.5505Z" fill="#C7C8CA"/>
<path d="M3.28418 9.79224L3.38974 9.81884L3.28418 9.79224Z" fill="#757679"/>
<path d="M13.6956 10.8868L14.0425 10.4472V6.09741L11.2285 7.96789L13.6956 10.8868Z" fill="#BABCBE"/>
<path d="M14.0429 11.2974V10.4468L14.0107 11.2578L14.0429 11.2974Z" fill="#E4E5E6"/>
<path d="M13.6204 11.2623H13.5776H13.5026H13.4534H13.4191L13.1621 11.2402H13.2542H13.3763L13.6568 11.2645H13.6247L13.6204 11.2623Z" fill="#5A5B5D"/>
<path d="M6.64648 10.4426L6.80068 10.4669L6.9356 10.4867H6.99556L6.64648 10.4426Z" fill="#D1D3D4"/>
<path d="M5.11035 10.1831L5.25598 10.2118L5.42088 10.2404L5.11035 10.1831Z" fill="#9B9DA0"/>
<path d="M7.35059 10.55L7.52834 10.5765L7.77247 10.6096L8.12583 10.658L8.2586 10.6779L8.38067 10.6933L8.72975 10.7396L8.86252 10.755L9.10023 10.7859L9.32724 10.8145L9.45359 10.83L9.57137 10.8432L9.92902 10.8873L10.2588 10.9247L10.5908 10.9622L10.8049 10.9864L11.0191 11.0085L11.2332 11.0327H11.3424L11.6337 11.0636H11.7301L12.0127 11.0922L12.2804 11.1187H12.3661H12.4582L12.6145 11.1341H12.7002L12.8458 11.1473L12.9914 11.1606L13.1285 11.1738H13.1628C11.9335 11.1099 9.62491 10.8784 7.35059 10.55Z" fill="#EBEBEC"/>
<path d="M2.3916 9.53674L2.88202 8.85791L2.3916 9.53674Z" fill="#333132"/>
<path d="M5.79004 10.304H5.84572L6.08343 10.3436H6.11984L5.79004 10.304Z" fill="#616264"/>
<path d="M8.46191 5.52127L14.0428 6.09714L10.2779 3.20239L8.46191 5.52127Z" fill="#515254"/>
<path d="M4.62598 10.0908L4.75739 10.1174L4.62598 10.0908Z" fill="#3E3E3F"/>
<path d="M4.15002 9.99416L4.28359 10.023L4.14355 9.99194L4.15002 9.99416Z" fill="#F1F2F2"/>
<path d="M4.31348 10.0269H4.36518L4.44058 10.0424L4.31348 10.0269Z" fill="#515254"/>
<path d="M4.45605 10.0581L4.58101 10.0825H4.60471L4.45605 10.0581Z" fill="#C7C8CA"/>
<path d="M5.02836 10.1682H5.08653L4.94434 10.1416L5.02836 10.1682Z" fill="#434345"/>
<path d="M5.44434 10.2449H5.48717L5.76557 10.2934L5.44434 10.2449Z" fill="#363436"/>
<path d="M7.34801 10.5479L5.53625 7.88393L6.36932 7.7059L7.34801 10.5479L5.5127 5.21777L5.53625 9.02689L7.34801 10.5479Z" fill="#848689"/>
<path d="M4.78027 10.1213H4.80397L4.93108 10.1457L4.78027 10.1213Z" fill="#9FA1A4"/>
<path d="M9.45231 10.827L9.3252 10.8115L9.45231 10.827Z" fill="#E6E7E8"/>
<path d="M9.92893 10.8844L9.57129 10.8403L9.92893 10.8844Z" fill="#A1A3A6"/>
<path d="M5.48633 10.2512L5.76473 10.2997L5.48633 10.2512Z" fill="#4D4D4F"/>
<path d="M3.41992 9.82495L3.54703 9.85599L3.41992 9.82495Z" fill="#9D9FA2"/>
<path d="M3.28418 9.79224L3.3919 9.81884L3.28418 9.79224Z" fill="#8F9194"/>
<path d="M3.55957 9.85986L3.67806 9.88647L3.55957 9.85986Z" fill="#5F6062"/>
<path d="M4.00488 9.96094L4.13414 9.98976L4.00488 9.96094Z" fill="#515254"/>
<path d="M3.14453 9.75439L3.26518 9.78765L3.14453 9.75439Z" fill="#848689"/>
<path d="M3.70703 9.89087L3.97473 9.95038L3.70703 9.89087Z" fill="#A1A3A6"/>
<path d="M2.62891 9.60962L2.73878 9.64288L2.62891 9.60962Z" fill="#8C8E90"/>
<path d="M2.52246 9.57642L2.6151 9.60524L2.52246 9.57642Z" fill="#757679"/>
<path d="M2.39453 9.53467L2.49794 9.56793L2.39453 9.53467Z" fill="#434345"/>
<path d="M3.02051 9.72192L3.11961 9.74853L3.02051 9.72192Z" fill="#58595B"/>
<path d="M4.36426 10.0383L4.43914 10.0537L4.36426 10.0383Z" fill="#DEDFE0"/>
<path d="M2.87793 9.68433L2.99211 9.71537L2.87793 9.68433Z" fill="#BCBEC0"/>
<path d="M2.76465 9.65137L2.85729 9.67797L2.76465 9.65137Z" fill="#464547"/>
<path d="M8.25955 10.676L8.12598 10.656L8.25955 10.676Z" fill="#AFB1B4"/>
<path d="M5.25586 10.2117L5.42175 10.2405L5.25586 10.2117Z" fill="#828487"/>
<path d="M4.45605 10.0581L4.58101 10.0825L4.45605 10.0581Z" fill="#565759"/>
<path d="M6.4668 10.4163L6.56805 10.4318L6.4668 10.4163Z" fill="#3B3B3C"/>
<path d="M6.125 10.3613L6.46551 10.4142L6.125 10.3613Z" fill="#A1A3A6"/>
<path d="M4.80371 10.1262L4.93298 10.1506L4.80371 10.1262Z" fill="#DEDFE0"/>
<path d="M4.62598 10.0908L4.75739 10.1174L4.62598 10.0908Z" fill="#848689"/>
<path d="M8.86306 10.7528L8.72949 10.7373L8.86306 10.7528Z" fill="#C7C8CA"/>
<path d="M6.93358 10.4865L6.79785 10.4666L6.93358 10.4865Z" fill="#616264"/>
<path d="M4.93457 10.1523L5.02015 10.1678L4.93671 10.1523H4.93457Z" fill="#D8D9DA"/>
<path d="M0 8.15454L2.39211 9.53488L0 8.15454Z" fill="#A9ABAE"/>
<path d="M6.56262 0.804688L3.32031 3.06864L5.86447 1.98941L6.56262 0.804688Z" fill="#AFB1B4"/>
<path d="M3.86426 3.60452L5.86447 1.98901L3.32031 3.06822L3.90924 3.64628L3.86426 3.60452Z" fill="#E2E3E4"/>
<path d="M4.69255 4.41338L4.62402 4.34524L5.51276 5.21783L5.86612 1.98901L4.69255 4.41338Z" fill="#ABADB0"/>
<path d="M3.91016 3.64648L4.20783 3.93961L3.91016 3.64648Z" fill="#B1B3B6"/>
<path d="M5.86643 1.98901L3.86621 3.60451L3.91119 3.64627L4.20886 3.9386L5.86643 1.98901Z" fill="#7D7E81"/>
<path d="M4.20801 3.93872L4.62347 4.34646L4.20801 3.93872Z" fill="#5C5D60"/>
<path d="M5.86556 1.98901L4.20801 3.93862L4.62347 4.34524L4.69199 4.41338L5.86556 1.98901Z" fill="#CDCFD0"/>
<path d="M3.32088 3.06812L0.164231 6.11672L0.0957031 6.97613L3.32088 3.06812Z" fill="#808285"/>
<path d="M0 8.15422L1.92525 5.20454L2.4071 4.46602L2.66194 4.07698L3.32154 3.06812L0.036406 7.70583L0 8.15422Z" fill="#EFEFF0"/>
<path d="M0.0361328 7.70586L3.32128 3.06812L0.0960961 6.97613L0.0361328 7.70586Z" fill="#636466"/>
<path d="M5.51235 5.21777L0.606056 7.22671L0 8.15425L5.51235 5.21777Z" fill="#86888A"/>
<path d="M2.59809 5.5675L2.40749 4.46631L1.92564 5.20483L0.606445 7.22698L2.59809 5.5675Z" fill="#3E3E3F"/>
<path d="M2.4086 4.46631L1.92676 5.20484L2.4086 4.46631Z" fill="#A5A7AA"/>
<path d="M2.59685 5.56735L2.6611 4.07715L2.40625 4.46618L2.59685 5.56735Z" fill="#BABCBE"/>
<path d="M2.6611 4.07715L2.40625 4.46725L2.6611 4.07715Z" fill="#919396"/>
<path d="M2.66211 4.07697L3.32172 3.06812L2.66211 4.07697Z" fill="#6B6C6F"/>
<path d="M2.59766 5.56719L3.3215 3.06812L2.6619 4.07697L2.59766 5.56719Z" fill="#BCBEC0"/>
<path d="M2.66211 4.07697L3.32172 3.06812L2.66211 4.07697Z" fill="#434345"/>
<path d="M5.86605 1.98901L5.5127 5.21783L10.2776 3.20229L5.86605 1.98901Z" fill="#C6C6C6"/>
<path d="M14.0422 6.09714V3.20239H10.2773L14.0422 6.09714Z" fill="#F1F2F2"/>
<path d="M11.2288 7.96806L14.0428 6.09759L8.46191 5.52173L11.2288 7.96806Z" fill="#6F7173"/>
<path d="M9.43174 9.16314L8.46162 5.52109L6.5642 6.275L5.5127 5.21777L9.43174 9.16314Z" fill="#3E3E3F"/>
<path d="M10.2776 3.20239L5.5127 5.21794L8.46161 5.52126L10.2776 3.20239Z" fill="#393839"/>
<path d="M9.43174 9.16316L5.5127 5.21777L7.34801 10.5479L9.43174 9.16316Z" fill="#616264"/>
<path d="M8.46161 5.52192L5.5127 5.21777L8.46161 5.52192Z" fill="#393839"/>
<path d="M8.46161 5.52109L5.5127 5.21777L6.5642 6.27499L8.46161 5.52109Z" fill="#CBCCCE"/>
<path d="M8.46191 5.52173L9.43204 9.16376L10.4022 8.51756L8.46191 5.52173Z" fill="#9FA1A4"/>
<path d="M10.4022 8.51758L11.2288 7.96808L8.46191 5.52173L10.4022 8.51758Z" fill="#4D4D4F"/>
<path d="M1.01724 8.73892L2.39211 9.53459L2.46706 6.83987L3.80768 7.5762L5.51235 5.21777L0 8.15426L1.01724 8.73892Z" fill="#A5A7AA"/>
<path d="M2.39246 9.53493L1.01758 8.73926L2.39246 9.53493Z" fill="#6B6C6F"/>
<path d="M0 8.15454L1.01724 8.7408L0 8.15454Z" fill="#8F9194"/>
<path d="M1.01724 8.7392L0 8.15454L2.39211 9.53488L1.01724 8.7392Z" fill="#D3D5D6"/>
<path d="M3.80741 7.57618L2.4668 6.83984L3.12854 8.51692L3.80741 7.57618Z" fill="#67686B"/>
<path d="M2.90771 8.82251L2.3916 9.53464L2.88202 8.85768L2.90771 8.82251Z" fill="#393839"/>
<path d="M2.92913 8.79175L2.3916 9.5347L2.90771 8.82252L2.92913 8.79175Z" fill="#95979A"/>
<path d="M2.92913 8.79165L3.12829 8.5169L2.46655 6.83984L2.3916 9.53457L2.92913 8.79165Z" fill="#CFD1D2"/>
<path d="M14.0078 11.296H14.0447L14.01 11.2559L14.0078 11.296Z" fill="#565759"/>
<path d="M7.3498 10.5504C9.62412 10.8801 11.9327 11.1109 13.1555 11.223L13.4125 11.245L13.6931 10.8889L11.2281 7.96777L10.4015 8.51727L9.73977 8.95686L7.34766 10.5504H7.3498Z" fill="#48484A"/>
<path d="M9.43138 9.16291L7.34766 10.5476L9.73977 8.9585L9.43138 9.16291Z" fill="#464547"/>
<path d="M9.43138 9.16333L7.34766 10.548L9.43138 9.16333Z" fill="#808285"/>
<path d="M9.74023 8.96009L10.402 8.51709L9.74023 8.96009Z" fill="#5C5D60"/>
<path d="M9.74002 8.96009L10.4018 8.51709L9.43164 9.16506L9.74002 8.96009Z" fill="#939598"/>
<path d="M10.4014 8.51877L11.228 7.96777L10.4014 8.51877Z" fill="#ABADB0"/>
<path d="M10.4014 8.51877L11.228 7.96777L10.4014 8.51877Z" fill="#E6E7E8"/>
<path d="M5.44388 10.2447L5.76511 10.2996H5.78224L6.11204 10.3546H6.12489L6.4654 10.4073L6.63887 10.4337L6.98794 10.4865L7.34129 10.5392L4.58726 9.22046L2.38574 9.53256L2.4864 9.56553H2.51423L2.60632 9.59411H2.61917L2.72839 9.62707H2.75623L2.84832 9.65345H2.86973L2.98323 9.68422H3.01108L3.10744 9.7106H3.13529L3.25307 9.74137H3.27663L3.38156 9.76774H3.41154L3.53575 9.79851H3.55074L3.66639 9.82489H3.69851L3.96621 9.88423H3.99619L4.12468 9.9128H4.13539L4.27459 9.94358H4.30457L4.43092 9.96995H4.44805L4.59582 9.99852H4.61724L4.74787 10.0249H4.77143L4.92134 10.0535H4.93633L5.07767 10.0798H5.10123L5.41175 10.137L5.44388 10.2447Z" fill="#B1B3B6"/>
<path d="M2.88201 8.85778L2.3916 9.53476L4.59311 9.22264L3.12829 8.51709L2.88201 8.85778Z" fill="#9B9DA0"/>
<path d="M2.90851 8.82344L2.88281 8.85871L3.12909 8.51709L2.90851 8.82344Z" fill="#58595B"/>
<path d="M3.12879 8.51709L2.92962 8.79259L2.9082 8.82344L3.12879 8.51709Z" fill="#464547"/>
<path d="M3.12983 8.51709L2.93066 8.79259L3.12983 8.51709Z" fill="#5C5D60"/>
<path d="M3.80778 7.57666L5.40323 9.39219L3.12891 8.51739L4.59373 9.22294L7.34776 10.5483L5.53601 9.02732L3.80778 7.57666Z" fill="#67686B"/>
<path d="M3.12891 8.51709L4.59373 9.22265L3.12891 8.51709Z" fill="#67686B"/>
<path d="M3.12891 8.51739L5.40323 9.39217L3.80778 7.57666L3.12891 8.51739Z" fill="#737577"/>
<path d="M3.12891 8.51738L3.80778 7.57666L3.12891 8.51738Z" fill="#C4C6C8"/>
<path d="M3.12891 8.51738L3.80778 7.57666L3.12891 8.51738Z" fill="#AFB1B4"/>
<path d="M5.523 6.77394L5.53585 9.02688L5.51229 5.21777L3.80762 7.57621L5.523 6.77394Z" fill="#393839"/>
<path d="M3.80762 7.5762L5.51229 5.21777L3.80762 7.5762Z" fill="#363436"/>
<path d="M5.53585 9.02664L5.523 6.77368L5.03686 8.60682L4.20809 7.91225L5.523 6.77368L3.80762 7.57595L5.53585 9.02664Z" fill="#414042"/>
<path d="M3.80762 7.57666L5.53585 9.02734L3.80762 7.57666Z" fill="#333132"/>
<path d="M5.53516 7.88434L7.34691 10.5483L6.36822 7.7063L5.53516 7.88434Z" fill="#97999C"/>
<path d="M5.03678 8.60678L5.52291 6.77368L4.20801 7.91222L5.03678 8.60678Z" fill="#D8D9DA"/>
<path d="M14.0417 3.20228L5.86523 1.98901L10.2768 3.20228H14.0417Z" fill="#9B9DA0"/>
<path d="M14.0428 3.20271L6.56445 0.804688L8.05069 1.83555L14.0428 3.20271Z" fill="#B2B2B2"/>
<path d="M8.04961 1.83558L6.56338 0.804688L5.86523 1.98944L8.04961 1.83558Z" fill="#BEC0C2"/>
<path d="M8.04962 1.83545L5.86523 1.98931L14.0417 3.20264L8.04962 1.83545Z" fill="#BEC0C2"/>
<path d="M14.0101 11.2578L14.0422 10.4468L13.6953 10.8864L14.0101 11.2578Z" fill="#F1F2F2"/>
<path d="M13.4491 11.248H13.5005H13.5754H13.6183H13.629H13.6697L13.9609 11.2722H14.0016V11.2348L13.6868 10.8623L13.4062 11.2194L13.4491 11.248Z" fill="#545456"/>
<path d="M15.8794 13.1196L18.4429 13.7329L18.1409 13.379L16.9738 12.0448L18.8348 11.6294L14.042 12.68L15.8794 13.1196Z" fill="#9D9FA2"/>
<path d="M16.0576 17.6281L19.7968 13.3794L16.2054 17.4633L16.0576 17.6281Z" fill="#D8D9DA"/>
<path d="M18.4424 13.7329L20.5818 11.6426L18.8386 11.6294L18.4424 13.7329Z" fill="#5F6062"/>
<path d="M16.205 15.92L14.042 14.2517V15.92H14.8451H16.205Z" fill="#A7A9AC"/>
<path d="M28.087 8.15479L26.6072 9.39225L20.583 11.643L21.3326 12.2562L20.583 11.643L26.6072 9.39225L28.087 8.15479Z" fill="#B3B5B8"/>
<path d="M20.5836 12.6798L21.3331 12.2556L20.7399 14.3085L20.2109 14.7525L26.6078 9.3916L21.3331 12.2556L20.5836 12.6798Z" fill="#B1B3B6"/>
<path d="M19.7963 13.3794L16.0572 17.6281L15.1556 18.6546L14.042 19.9184L18.6549 16.0565L19.7963 13.3794Z" fill="#B6B8BA"/>
<path d="M19.7967 13.3794L18.6553 16.0566L20.21 14.7532L20.739 14.3092L19.7967 13.3794Z" fill="#4F4F51"/>
<path d="M20.7392 14.3084L20.5828 12.6797L19.7969 13.3787L20.7392 14.3084Z" fill="#8A8C8E"/>
<path d="M21.3325 12.2559L20.583 12.6801L20.7393 14.3088L21.3325 12.2559Z" fill="#828487"/>
<path d="M14.042 19.2739V19.9179L15.1556 18.6541L14.042 19.2739Z" fill="#6B6C6F"/>
<path d="M14.042 19.9179L15.1556 18.6541L14.042 19.9179Z" fill="#97999C"/>
<path d="M15.1556 18.6541L14.042 18.8083V19.2756L15.1556 18.6541Z" fill="#A1A3A6"/>
<path d="M15.1556 18.6548L14.042 18.4807V18.8091L15.1556 18.6548Z" fill="#B6B8BA"/>
<path d="M15.1556 18.6543L14.042 17.8872V18.4807L15.1556 18.6543Z" fill="#77787B"/>
<path d="M15.1553 17.8871V18.6542L16.0569 17.6277L16.2046 17.4629L15.1553 17.8871Z" fill="#737577"/>
<path d="M15.1553 18.6541L16.0569 17.6277L15.1553 18.6541Z" fill="#C2C4C6"/>
<path d="M15.1556 18.6543V17.8872H14.042L15.1556 18.6543Z" fill="#DEDFE0"/>
<path d="M16.205 17.4629L14.042 17.8883H15.1556L16.205 17.4629Z" fill="#888A8C"/>
<path d="M21.3326 12.2556L26.6072 9.3916L20.583 11.6423L21.3326 12.2556Z" fill="#9D9D9C"/>
<path d="M14.9283 11.2205L14.4336 11.2646L15.1018 11.2029L14.9304 11.2205H14.9283Z" fill="#67686B"/>
<path d="M21.2891 10.467L21.4463 10.4426L21.2891 10.467Z" fill="#797A7D"/>
<path d="M20.7383 10.5505L20.5605 10.5769L21.0938 10.4976L20.7383 10.5505Z" fill="#A3A5A8"/>
<path d="M20.3143 10.6074L19.9502 10.6581L20.3143 10.6074Z" fill="#545456"/>
<path d="M16.7578 11.0408L16.0811 11.1091L16.7578 11.0408Z" fill="#E0E1E2"/>
<path d="M16.0812 11.1089L15.8135 11.1353L16.0812 11.1089Z" fill="#BABCBE"/>
<path d="M15.6416 11.1528L15.3975 11.1771L15.6416 11.1528Z" fill="#E2E3E4"/>
<path d="M15.402 11.1768L15.249 11.1901L15.402 11.1768Z" fill="#CDCFD0"/>
<path d="M17.2794 10.9895L16.7568 11.0468L17.2794 10.9895Z" fill="#EFEFF0"/>
<path d="M15.8147 11.135L15.6445 11.1527L15.8147 11.135Z" fill="#696A6D"/>
<path d="M19.7115 10.6904L19.3496 10.7367L19.7115 10.6904Z" fill="#BCBEC0"/>
<path d="M20.5674 10.574L20.3232 10.607L20.5674 10.574Z" fill="#8F9194"/>
<path d="M18.9873 10.7834L18.749 10.8122L18.9873 10.7834Z" fill="#D3D5D6"/>
<path d="M17.8285 10.9216L17.2803 10.9833L17.8285 10.9216Z" fill="#DEDFE0"/>
<path d="M18.1686 10.8821L17.8281 10.9218L18.1686 10.8821Z" fill="#BABCBE"/>
<path d="M19.2246 10.7524L18.9863 10.7834L19.2246 10.7524Z" fill="#DCDDDE"/>
<path d="M15.2481 11.1899L15.1016 11.2032L15.2481 11.1899Z" fill="#717375"/>
<path d="M21.4453 10.4429L21.5181 10.4319L21.4474 10.4429H21.4453Z" fill="#717375"/>
<path d="M25.5912 9.56808H25.5655L25.4713 9.59666H25.4584L25.3492 9.62963H25.3214L25.2293 9.656H25.2079L25.0944 9.68677H25.0686L24.9701 9.71315H24.9444L24.8245 9.74612H24.8031L24.696 9.77249H24.6682L24.5397 9.80326H24.529L24.4219 9.89118H24.3898L24.1221 9.95053H24.0921L23.9636 9.9791H23.9465L23.8137 10.0077H23.7837H23.7323L23.6574 10.0231H23.6402L23.516 10.0472H23.4925H23.4732L23.3404 10.0736H23.3169H23.2933L23.1648 10.0978H23.137L23.0513 10.1132H22.9956H22.9721L22.6594 10.1703H22.6358H22.593L22.3146 10.2187H22.2975H22.2418L21.9677 10.2648H21.9548H21.8842L21.6143 10.3066L21.5137 10.322L21.4409 10.333L21.2845 10.3572L21.1496 10.3769H21.0875L20.5543 10.4561L20.3101 10.489L19.9461 10.5396L19.7019 10.5726L19.34 10.6187L19.2201 10.6341L18.9824 10.6649L18.7446 10.6934L18.1643 10.7638L17.8238 10.8033L17.2755 10.8649L16.753 10.922L16.0763 10.9902L15.8086 11.0165L15.6394 11.0341L15.3953 11.0583L15.2432 11.0715L15.0976 11.0847L14.4294 11.1462H14.3759H14.2795H14.1939H14.1317H14.0439V11.4386L18.8389 11.4759L20.5821 11.4891L26.6063 9.39224L28.0861 8.15479L25.694 9.53511L25.5912 9.56808Z" fill="#DADADA"/>
<path d="M18.835 11.6304L18.8413 11.6272L18.835 11.6304Z" fill="#D3D5D6"/>
<path d="M21.3325 12.2558L20.583 11.6426V12.68L21.3325 12.2558Z" fill="#3B3B3C"/>
<path d="M20.5828 12.68V11.6426L19.7969 13.379L20.5828 12.68Z" fill="#4D4D4F"/>
<path d="M18.443 13.7329L17.7277 14.4318L16.2051 15.9199L19.7965 13.379L20.5824 11.6426L18.443 13.7329Z" fill="#8D9092"/>
<path d="M16.2051 17.4633L17.8391 15.1576L19.7965 13.3794L16.2051 15.9203V17.4633Z" fill="#A7A9AC"/>
<path d="M16.2051 17.4633L19.7965 13.3794L17.8391 15.1576L16.2051 17.4633Z" fill="#9D9FA2"/>
<path d="M14.042 11.5896V12.6798L18.8348 11.6292L14.042 11.5896Z" fill="#878787"/>
<path d="M18.8348 11.6293L18.8391 11.6271L14.042 11.5896L18.8348 11.6293Z" fill="#ADAFB2"/>
<path d="M18.8346 11.6294L16.9736 12.0448L18.1408 13.379L18.8389 11.6294H18.8346Z" fill="#B8BABC"/>
<path d="M18.8413 11.6304V11.6272L18.835 11.6304H18.8413Z" fill="#3E3E3F"/>
<path d="M18.1416 13.379L18.4436 13.7329L18.8397 11.6294L18.1416 13.379Z" fill="#9FA1A4"/>
<path d="M16.205 15.9204L14.042 17.8876L16.205 17.4634V15.9204Z" fill="#6F7173"/>
<path d="M14.042 15.9204V16.4758L14.8451 15.9204H14.042Z" fill="#EFEFF0"/>
<path d="M14.8451 15.9204L15.0742 16.9491L14.042 17.8876L16.205 15.9204H14.8451Z" fill="#565759"/>
<path d="M14.042 16.4736V17.887L15.0742 16.9484L14.042 16.4736Z" fill="#565759"/>
<path d="M14.8451 15.9204L14.042 16.4743L15.0742 16.9491L14.8451 15.9204Z" fill="#AFB1B4"/>
<path d="M15.8135 13.9351L16.2054 15.9198L17.728 14.4318L15.8135 13.9351Z" fill="#8D9092"/>
<path d="M16.2051 15.9199L17.7277 14.4319L16.2051 15.9199Z" fill="#E9E9EA"/>
<path d="M18.4433 13.7329L15.8135 13.9353L17.728 14.4325L18.4433 13.7329Z" fill="#A5A7AA"/>
<path d="M17.7285 14.4325L18.4438 13.7329L17.7285 14.4325Z" fill="#DCDDDE"/>
<path d="M15.8131 13.9351L15.7295 15.555L15.3612 15.2275L15.8131 13.9351L14.042 14.2516L16.205 15.9198L15.8131 13.9351Z" fill="#A7A9AC"/>
<path d="M15.7297 15.555L15.8132 13.9351L15.3613 15.2275L15.7297 15.555Z" fill="#CFD1D2"/>
<path d="M18.4429 13.7325L15.8794 13.1193L14.7037 14.1326L14.042 12.6797V14.2512L15.8131 13.9347L18.4429 13.7325Z" fill="#EDEDEE"/>
<path d="M15.8794 13.1205L14.042 12.6797L15.8794 13.1205Z" fill="#828487"/>
<path d="M15.8794 13.1193L14.284 13.2072L14.1705 12.9588L15.8794 13.1193L14.042 12.6797L14.7037 14.1325L15.8794 13.1193Z" fill="#B8BABC"/>
<path d="M14.1699 12.9592L14.2834 13.2083L15.8789 13.1201L14.1699 12.9592Z" fill="#CBCCCE"/>
<path d="M23.8794 3.93851L23.4639 4.34514L22.5752 5.21773L27.4815 7.22668L25.4898 5.56721L24.7681 3.06812L24.1771 3.64618L23.8794 3.93851Z" fill="#828487"/>
<path d="M25.6945 9.53674L25.2041 8.85791L25.6945 9.53674Z" fill="#C2C4C6"/>
<path d="M14.042 6.09719V10.447V11.2976L14.0763 11.258L14.042 10.447L14.3911 10.8866L16.8581 7.96767L14.042 6.09719V3.20245L21.5224 0.80446L16.9738 0H14.042V3.20245V6.09719Z" fill="#95979A"/>
<path d="M20.7393 10.5505L21.0926 10.4976L20.7393 10.5505Z" fill="#919396"/>
<path d="M24.667 9.82495L24.542 9.85599L24.667 9.82495Z" fill="#DCDDDE"/>
<path d="M24.379 9.89087L24.1113 9.95038L24.379 9.89087Z" fill="#67686B"/>
<path d="M21.0947 10.4953H21.1547L21.2896 10.4754L21.4438 10.4512L21.0947 10.4953Z" fill="#393839"/>
<path d="M24.8009 9.79224L24.6953 9.81884L24.8009 9.79224Z" fill="#97999C"/>
<path d="M24.5274 9.85986L24.4219 9.8909L24.5274 9.85986Z" fill="#434345"/>
<path d="M21.9746 10.3593L22.2487 10.313H22.3044L21.9746 10.3593Z" fill="#363436"/>
<path d="M23.4824 10.0871H23.5061L23.6311 10.0627L23.4824 10.0871Z" fill="#77787B"/>
<path d="M21.4482 10.4429L21.5193 10.4318L21.6206 10.4163L21.4482 10.4429Z" fill="#B8BABC"/>
<path d="M23.7229 10.0383H23.7746L23.6475 10.0649L23.7229 10.0383Z" fill="#B8BABC"/>
<path d="M23.1562 10.1506L23.2834 10.1262H23.3071L23.1562 10.1506Z" fill="#B8BABC"/>
<path d="M23.8037 10.0232L23.9373 9.99438L23.8037 10.0232Z" fill="#A3A5A8"/>
<path d="M23.3301 10.1111L23.4615 10.0845L23.3301 10.1111Z" fill="#B3B5B8"/>
<path d="M21.8909 10.3721H21.9616L21.6211 10.425L21.8909 10.3721Z" fill="#737577"/>
<path d="M24.9468 9.75439L24.8262 9.78544L24.9468 9.75439Z" fill="#EDEDEE"/>
<path d="M22.6007 10.2512H22.6435L22.3223 10.3063L22.6007 10.2512Z" fill="#4D4D4F"/>
<path d="M23.0029 10.1791H23.0589L23.143 10.1636L23.0029 10.1791Z" fill="#9D9FA2"/>
<path d="M24.0824 9.96094L23.9531 9.98976L24.0824 9.96094Z" fill="#5F6062"/>
<path d="M14.9287 11.2207L14.6717 11.2427H14.6375H14.6182H14.5861H14.5154H14.4726H14.4404L14.9287 11.2207Z" fill="#828487"/>
<path d="M28.0864 8.15476L26.1611 5.20508L27.4803 7.22721L28.0864 8.15476Z" fill="#ADAFB2"/>
<path d="M19.625 5.52127L17.809 3.20239L14.042 6.09714L19.625 5.52127Z" fill="#656668"/>
<path d="M22.9787 10.1831L22.666 10.2404L22.9787 10.1831Z" fill="#AFB1B4"/>
<path d="M25.5653 9.57642L25.4727 9.60524L25.5653 9.57642Z" fill="#EDEDEE"/>
<path d="M25.2099 9.68433L25.0957 9.71537L25.2099 9.68433Z" fill="#A5A7AA"/>
<path d="M25.3221 9.65137L25.2295 9.67797L25.3221 9.65137Z" fill="#DEDFE0"/>
<path d="M25.6921 9.53467L25.5908 9.56793L25.6921 9.53467Z" fill="#E0E1E2"/>
<path d="M25.4593 9.60962L25.3516 9.64288L25.4593 9.60962Z" fill="#E6E7E8"/>
<path d="M21.7179 7.7059L22.551 7.88393L20.7393 10.5479L22.551 9.02689L22.5746 5.21777L20.7393 10.5479L21.7179 7.7059Z" fill="#808285"/>
<path d="M25.0657 9.72192L24.9688 9.74853L25.0657 9.72192Z" fill="#DCDDDE"/>
<path d="M14.9307 11.2228L15.102 11.2051L15.2476 11.1919L15.3997 11.1787L15.6438 11.1544L15.813 11.1368L16.0807 11.1104L16.7574 11.042L17.2799 10.9847L17.8282 10.923L18.1687 10.8833L18.7491 10.8128L18.9868 10.7842L19.2245 10.7533L19.3444 10.7379L19.7063 10.6916L19.9505 10.6585L20.3145 10.6078L20.5587 10.5748L20.7364 10.5483C18.4621 10.8789 16.1535 11.1104 14.9307 11.2228Z" fill="#717375"/>
<path d="M22.3223 10.2997L22.6007 10.2512L22.3223 10.2997Z" fill="#BEC0C2"/>
<path d="M23.1543 10.1506L23.2836 10.1262L23.1565 10.1506H23.1543Z" fill="#C2C4C6"/>
<path d="M23.3301 10.1111L23.4636 10.0845L23.3301 10.1111Z" fill="#616264"/>
<path d="M23.6475 10.0537L23.7223 10.0383L23.6475 10.0537Z" fill="#7B7C7F"/>
<path d="M25.2295 9.67138L25.3221 9.64478L25.2295 9.67138Z" fill="#CBCCCE"/>
<path d="M23.5059 10.0825L23.6308 10.0581L23.5059 10.0825Z" fill="#414042"/>
<path d="M25.3516 9.64288L25.4614 9.60962L25.3516 9.64288Z" fill="#828487"/>
<path d="M21.5195 10.4318L21.6208 10.4163L21.5195 10.4318Z" fill="#48484A"/>
<path d="M23.0576 10.1678L23.1432 10.1523L23.0576 10.1678Z" fill="#DEDFE0"/>
<path d="M21.291 10.4666L21.1553 10.4865L21.291 10.4666Z" fill="#BCBEC0"/>
<path d="M25.694 9.53467L25.5928 9.56793L25.6962 9.53467H25.694Z" fill="#D3D5D6"/>
<path d="M25.4727 9.60524L25.5674 9.57642L25.4727 9.60524Z" fill="#616264"/>
<path d="M21.6211 10.4139L21.8909 10.3721L21.6211 10.4139Z" fill="#3E3E3F"/>
<path d="M24.6953 9.81884L24.803 9.79224L24.6953 9.81884Z" fill="#828487"/>
<path d="M24.1113 9.95478L24.379 9.89087L24.1113 9.95478Z" fill="#EDEDEE"/>
<path d="M24.9707 9.74853L25.0698 9.72192L24.9707 9.74853Z" fill="#737577"/>
<path d="M24.542 9.85599L24.6713 9.82495L24.542 9.85599Z" fill="#ADAFB2"/>
<path d="M25.0957 9.71537L25.2099 9.68433L25.0957 9.71537Z" fill="#E4E5E6"/>
<path d="M24.8262 9.7857L24.9468 9.75244L24.8262 9.7857Z" fill="#717375"/>
<path d="M23.9531 9.98976L24.0824 9.96094L23.9531 9.98976Z" fill="#6D6E71"/>
<path d="M24.4219 9.89135L24.5404 9.86475L24.4219 9.89135Z" fill="#5A5B5D"/>
<path d="M25.6934 9.53512L28.0855 8.15479L25.6934 9.53512Z" fill="#6F7173"/>
<path d="M24.7679 3.06864L21.5234 0.804688L22.2216 1.98941L24.7679 3.06864Z" fill="#C2C4C6"/>
<path d="M23.4628 4.34524L23.3943 4.41338L22.2207 1.98901L22.5741 5.21783L23.4628 4.34524Z" fill="#58595B"/>
<path d="M24.2209 3.60452L24.1759 3.64628L24.767 3.06822L22.2207 1.98901L24.2209 3.60452Z" fill="#B6B8BA"/>
<path d="M23.8789 3.93961L24.1766 3.64648L23.8789 3.93961Z" fill="#9D9FA2"/>
<path d="M24.1759 3.64627L24.2209 3.60451L22.2207 1.98901L23.8783 3.9386L24.1759 3.64627Z" fill="#434345"/>
<path d="M23.4619 4.34646L23.8774 3.93872L23.4619 4.34646Z" fill="#CFD1D2"/>
<path d="M23.4628 4.34524L23.8783 3.93862L22.2207 1.98901L23.3943 4.41338L23.4628 4.34524Z" fill="#828487"/>
<path d="M27.9211 6.11672L24.7666 3.06812L27.9918 6.97613L27.9211 6.11672Z" fill="#A7A9AC"/>
<path d="M25.4241 4.07698L25.6789 4.46602L26.1608 5.20454L28.086 8.15422L28.0496 7.70583L24.7666 3.06812L25.4241 4.07698Z" fill="#C7C8CA"/>
<path d="M27.9918 6.97613L24.7666 3.06812L28.0496 7.70586L27.9918 6.97613Z" fill="#6D6E71"/>
<path d="M28.0875 8.15425L27.4815 7.22671L22.5752 5.21777L28.0875 8.15425Z" fill="#A5A7AA"/>
<path d="M25.6799 4.46631L25.4893 5.5675L27.4809 7.22698L26.1617 5.20483L25.6799 4.46631Z" fill="#8A8C8E"/>
<path d="M26.1615 5.20484L25.6797 4.46631L26.1615 5.20484Z" fill="#6D6E71"/>
<path d="M25.4248 4.07715L25.4891 5.56735L25.6797 4.46618L25.4248 4.07715Z" fill="#7B7C7F"/>
<path d="M25.6796 4.46725L25.4248 4.07715L25.6796 4.46725Z" fill="#ADAFB2"/>
<path d="M25.4241 4.07697L24.7666 3.06812L25.4241 4.07697Z" fill="#E6E7E8"/>
<path d="M25.4241 4.07697L24.7666 3.06812L25.4883 5.56719L25.4241 4.07697Z" fill="#3B3B3C"/>
<path d="M25.4241 4.07697L24.7666 3.06812L25.4241 4.07697Z" fill="#9D9FA2"/>
<path d="M22.5745 5.21783L22.2212 1.98901L17.8096 3.20229L22.5745 5.21783Z" fill="#9FA1A4"/>
<path d="M14.042 3.20239V6.09714L17.809 3.20239H14.042Z" fill="#6F7173"/>
<path d="M19.6254 5.52109L18.6553 9.16314L22.5743 5.21777L21.5228 6.275L19.6254 5.52109Z" fill="#E6E7E8"/>
<path d="M16.8581 7.96806L19.625 5.52173L14.042 6.09759L16.8581 7.96806Z" fill="#B8BABC"/>
<path d="M19.6256 5.52126L22.5745 5.21794L17.8096 3.20239L19.6256 5.52126Z" fill="#EDEDEE"/>
<path d="M20.739 10.5479L22.5743 5.21777L18.6553 9.16316L20.739 10.5479Z" fill="#A3A5A8"/>
<path d="M19.626 5.52192L22.5749 5.21777L19.626 5.52192Z" fill="#A7A9AC"/>
<path d="M21.5234 6.27499L22.5749 5.21777L19.626 5.52109L21.5234 6.27499Z" fill="#A7A9AC"/>
<path d="M17.6846 8.51756L18.6547 9.16376L19.6248 5.52173L17.6846 8.51756Z" fill="#B8BABC"/>
<path d="M19.6253 5.52173L16.8584 7.96808L17.685 8.51758L19.6253 5.52173Z" fill="#67686B"/>
<path d="M25.6205 6.83987L25.6954 9.53459L27.0725 8.73892L28.0875 8.15426L22.5752 5.21777L24.2799 7.5762L25.6205 6.83987Z" fill="#E2E3E4"/>
<path d="M25.6934 9.53493L27.0704 8.73926L25.6934 9.53493Z" fill="#757679"/>
<path d="M28.0864 8.15479L27.0713 8.74105L28.0864 8.15479Z" fill="#AFB1B4"/>
<path d="M27.0704 8.73945L25.6934 9.53512L28.0855 8.15479L27.0704 8.73945Z" fill="#797A7D"/>
<path d="M25.6199 6.83984L24.2793 7.57618L24.9582 8.51692L25.6199 6.83984Z" fill="#CBCCCE"/>
<path d="M25.2034 8.85768L25.6938 9.53464L25.1777 8.82251L25.2034 8.85768Z" fill="#8A8C8E"/>
<path d="M25.1786 8.82252L25.6948 9.5347L25.1572 8.79175L25.1786 8.82252Z" fill="#636466"/>
<path d="M24.958 8.5169L25.1572 8.79165L25.6947 9.53457L25.6197 6.83984L24.958 8.5169Z" fill="#C2C4C6"/>
<path d="M14.9291 11.2208C16.152 11.1087 18.4606 10.8779 20.7349 10.5482L18.6511 9.16347L17.681 8.51727L16.8544 7.96777L14.3916 10.8867L14.6721 11.2428L14.9291 11.2208Z" fill="#8A8C8E"/>
<path d="M14.0621 11.2958H14.0794V11.2578L14.0469 11.298H14.0642L14.0621 11.2958Z" fill="#B1B3B6"/>
<path d="M14.1427 11.2908H14.2048H14.2905H14.3869H14.419L14.1299 11.315H14.1427V11.2908Z" fill="#DEDFE0"/>
<path d="M18.6553 9.16333L20.739 10.548L18.6553 9.16333Z" fill="#48484A"/>
<path d="M18.6553 9.16333L20.739 10.548L18.6553 9.16333Z" fill="#D5D7D8"/>
<path d="M17.6846 8.51709L18.6547 9.16506L17.6846 8.51709Z" fill="#363436"/>
<path d="M17.6846 8.51709L18.6547 9.16506L17.6846 8.51709Z" fill="#C9CACC"/>
<path d="M16.8584 7.96777L17.685 8.51877L16.8584 7.96777Z" fill="#C4C6C8"/>
<path d="M17.685 8.51877L16.8584 7.96777L17.685 8.51877Z" fill="#737577"/>
<path d="M23.9537 9.98953L24.0822 9.96095H24.1122L24.3799 9.89062H24.412L24.5277 9.86424H24.5427L24.6669 9.83347H24.6968L24.8018 9.80709H24.8253L24.9453 9.77632H24.971L25.0673 9.74994H25.0952L25.2087 9.71917H25.2301L25.3222 9.69279H25.3522L25.4592 9.65982H25.4721L25.5642 9.63125H25.592L25.6927 9.59828L23.4933 9.2312L20.7393 10.55L21.0926 10.4973L21.4417 10.4445L21.613 10.4181L21.9535 10.3654H21.9664L22.2962 10.3104H22.3133L22.6345 10.2555H22.6581L22.9708 10.1983H22.9943L23.1335 10.172H23.1485L23.2984 10.1434H23.322L23.4526 10.117H23.474L23.6218 10.0884H23.6389L23.7653 10.0621H23.7953L23.9366 10.0313L23.9537 9.98953Z" fill="#656668"/>
<path d="M24.958 8.51709L23.4932 9.22264L25.6947 9.53476L25.2043 8.85778L24.958 8.51709Z" fill="#696A6D"/>
<path d="M24.958 8.51709L25.2043 8.85871L25.1786 8.82344L24.958 8.51709Z" fill="#DADBDC"/>
<path d="M24.958 8.51709L25.1786 8.82344L25.1572 8.79259L24.958 8.51709Z" fill="#7D7E81"/>
<path d="M25.1572 8.79259L24.958 8.51709L25.1572 8.79259Z" fill="#848689"/>
<path d="M23.4933 9.22294L24.9581 8.51739L22.6838 9.39219L24.2792 7.57666L23.125 8.54597L23.05 8.60751L22.551 9.02732L20.7393 10.5483L23.4933 9.22294Z" fill="#D8D9DA"/>
<path d="M24.958 8.51709L23.4932 9.22265L24.958 8.51709Z" fill="#E4E5E6"/>
<path d="M24.9579 8.51739L24.279 7.57666L22.6836 9.39217L24.9579 8.51739Z" fill="#B6B8BA"/>
<path d="M24.9582 8.51738L24.2793 7.57666L24.9582 8.51738Z" fill="#656668"/>
<path d="M24.9582 8.51738L24.2793 7.57666L24.9582 8.51738Z" fill="#4F4F51"/>
<path d="M22.5498 9.02688L22.5627 6.77394L24.278 7.57621L22.5734 5.21777L22.5498 9.02688Z" fill="#58595B"/>
<path d="M24.2799 7.5762L22.5752 5.21777L24.2799 7.5762Z" fill="#464547"/>
<path d="M23.7221 8.04188L24.2789 7.57592L22.5635 6.77368L23.8784 7.91221L23.7221 8.04188Z" fill="#95979A"/>
<path d="M22.5627 6.77368L22.5498 9.02664L23.0488 8.60682L22.5627 6.77368Z" fill="#E9E9EA"/>
<path d="M23.0488 8.60742L22.5498 9.02838L23.0488 8.60742Z" fill="#5A5B5D"/>
<path d="M23.7225 8.04264L23.125 8.54599L24.2793 7.57666L23.7225 8.04264Z" fill="#9D9FA2"/>
<path d="M21.718 7.7063L20.7393 10.5483L22.551 7.88434L21.718 7.7063Z" fill="#616264"/>
<path d="M23.0488 8.60731L23.1237 8.54565L23.0488 8.60731Z" fill="#3B3B3C"/>
<path d="M23.7221 8.0419L23.8784 7.91222L22.5635 6.77368L23.0496 8.60678L23.7221 8.0419Z" fill="#414042"/>
<path d="M23.0488 8.6089L23.1238 8.54719L23.7213 8.04248L23.0488 8.6089Z" fill="#E4E5E6"/>
<path d="M20.0362 1.83555L21.5224 0.804688L14.042 3.20271L20.0362 1.83555Z" fill="#919396"/>
<path d="M22.2206 1.98901L14.042 3.20228H17.809L22.2206 1.98901Z" fill="#A1A3A6"/>
<path d="M22.2205 1.98944L21.5224 0.804688L20.0361 1.83558L22.2205 1.98944Z" fill="#AFB1B4"/>
<path d="M20.0362 1.83545L14.042 3.20264L22.2206 1.98931L20.0362 1.83545Z" fill="#95979A"/>
<path d="M14.042 10.4468L14.0763 11.2578L14.3911 10.8864L14.042 10.4468Z" fill="#97999C"/>
<path d="M14.0998 11.2941H14.1191L14.4082 11.2699H14.4489H14.4918H14.5624H14.5945H14.6138H14.6481L14.3675 10.9128L14.0527 11.2853V11.3228L14.0998 11.2941Z" fill="#656668"/>
<g style="mix-blend-mode:color-burn">
<path d="M28.0115 7.22281L27.9922 6.97664L27.9215 6.11723L24.767 3.06863L21.5226 0.804706L16.9739 0.000244141H14.0421H11.1125L6.56385 0.804706L3.32154 3.06863L0.164897 6.11723L0.0963691 6.97664L0.0749523 7.22281L0 8.15476L0.77524 8.80316L1.47981 9.39222L7.34766 14.3091L7.76526 14.6586L9.43139 16.0565L14.0421 19.9184L18.655 16.0565L20.2098 14.7531L20.7388 14.3091L26.6066 9.39222L27.3112 8.80316L28.0864 8.15476L28.0115 7.22281Z" fill="#E30613"/>
</g>
<path style="mix-blend-mode:screen" opacity="0.54" d="M21.5232 0.804456L16.9745 0H14.0427H11.1131L6.56445 0.804456L8.05069 1.8353L14.0427 3.20244L20.0369 1.8353L21.5232 0.804456Z" fill="url(#paint0_linear)"/>
<defs>
<linearGradient id="paint0_linear" x1="6.56445" y1="1.60012" x2="21.5232" y2="1.60012" gradientUnits="userSpaceOnUse">
<stop offset="0.19"/>
<stop offset="0.37" stop-color="#494949"/>
<stop offset="0.54" stop-color="#8A8A8A"/>
<stop offset="0.69" stop-color="#BCBCBC"/>
<stop offset="0.82" stop-color="#E1E1E1"/>
<stop offset="0.93" stop-color="#F7F7F7"/>
<stop offset="1" stop-color="white"/>
</linearGradient>
</defs>
</svg>
