<svg width="29" height="20" viewBox="0 0 29 20" fill="none" xmlns="http://www.w3.org/2000/svg">
<path d="M11.9675 17.4633L8.37402 13.3794L14.1282 19.9184L13.0168 18.6546L11.9675 17.4633Z" fill="#5A5B5D"/>
<path d="M6.8412 12.2582L7.59073 11.6427L1.56455 9.3942L0.0869141 8.15454L1.56455 9.3942L7.59073 11.6427L6.8412 12.2582Z" fill="#A1A3A6"/>
<path d="M6.84208 12.258L7.59161 12.68L6.84208 12.258L1.56543 9.39404L7.85287 14.6604L7.43528 14.311L6.84208 12.258Z" fill="#A3A5A8"/>
<path d="M9.33887 11.6296L11.1977 12.0473L10.0327 13.3793L9.73076 13.7331L12.292 13.1199L14.1294 12.6803L9.33887 11.6296Z" fill="#E4E5E6"/>
<path d="M13.3276 15.92H14.1285V14.2539L11.9678 15.92H13.3276Z" fill="#7D7E81"/>
<path d="M9.334 11.6296L7.59082 11.6428L9.73018 13.7331L9.334 11.6296Z" fill="#4D4D4F"/>
<path d="M9.51758 16.0565L14.1282 19.9184L8.37402 13.3794L9.51758 16.0565Z" fill="#9D9FA2"/>
<path d="M8.37371 13.3794L7.43359 14.3114L7.85119 14.6608L9.51727 16.0566L8.37371 13.3794Z" fill="#AFB1B4"/>
<path d="M7.43359 14.3106L8.37371 13.3786L7.58992 12.6797L7.43359 14.3106Z" fill="#8A8C8E"/>
<path d="M6.84082 12.2581L7.43402 14.311L7.59035 12.6801L6.84082 12.2581Z" fill="#5A5B5D"/>
<path d="M13.0176 18.6541L14.129 19.9179V19.2761L13.0176 18.6541Z" fill="#D8D9DA"/>
<path d="M14.129 19.2778V18.8105L13.0176 18.6541L14.129 19.2778Z" fill="#B1B3B6"/>
<path d="M14.129 18.8113V18.4807L13.0176 18.6548L14.129 18.8113Z" fill="#D5D7D8"/>
<path d="M14.129 18.4807V17.8894L13.0176 18.6543L14.129 18.4807Z" fill="#656668"/>
<path d="M11.9678 17.4629L13.0171 18.6542V17.8893L11.9678 17.4629Z" fill="#696A6D"/>
<path d="M13.0176 18.6543L14.129 17.8894H13.0176V18.6543Z" fill="#C2C4C6"/>
<path d="M13.0171 17.8905H14.1285L11.9678 17.4629L13.0171 17.8905Z" fill="#DCDDDE"/>
<path d="M7.5916 11.6426L1.56543 9.39404L6.84208 12.258L7.5916 11.6426Z" fill="#9D9D9C"/>
<path d="M7.4344 10.5463L7.08105 10.4956L7.61429 10.5727L7.4344 10.5485V10.5463Z" fill="#3B3B3C"/>
<path d="M10.3433 10.9217L10.0156 10.8843L10.3433 10.9217Z" fill="#636466"/>
<path d="M11.7131 11.0716L11.4219 11.0408L11.7131 11.0716Z" fill="#EDEDEE"/>
<path d="M13.2425 11.2207H13.208L13.3373 11.2318H13.2446L13.2425 11.2207Z" fill="#9B9DA0"/>
<path d="M12.6946 11.1703L12.5352 11.1548L12.6946 11.1703Z" fill="#A9ABAE"/>
<path d="M12.093 11.1109L11.8125 11.0823L12.093 11.1109Z" fill="#9FA1A4"/>
<path d="M12.926 11.1923L12.7773 11.1768L12.926 11.1923Z" fill="#545456"/>
<path d="M12.3593 11.137L12.0938 11.1106L12.3593 11.137Z" fill="#939598"/>
<path d="M9.41098 10.8122L9.19629 10.7834L9.41098 10.8122Z" fill="#828487"/>
<path d="M13.2092 11.2189L13.0713 11.2056L13.2092 11.2189Z" fill="#848689"/>
<path d="M10.8934 10.9857L10.6787 10.9614L10.8934 10.9857Z" fill="#8A8C8E"/>
<path d="M10.6747 10.9593L10.3428 10.9219L10.6747 10.9593Z" fill="#DADBDC"/>
<path d="M7.85527 10.6095L7.61328 10.5742L7.85527 10.6095Z" fill="#9FA1A4"/>
<path d="M8.20979 10.6579L7.85645 10.6094L8.20979 10.6579Z" fill="#636466"/>
<path d="M9.18772 10.7833L8.94727 10.7656L9.18772 10.7833Z" fill="#CFD1D2"/>
<path d="M6.74023 10.4426L6.8975 10.467L6.74023 10.4426Z" fill="#717375"/>
<path d="M6.65527 10.4319L6.72802 10.4429L6.65527 10.4319Z" fill="#B6B8BA"/>
<path d="M11.1053 11.0077L10.8906 10.9834L11.1053 11.0077Z" fill="#A7A9AC"/>
<path d="M8.81391 10.737L8.46484 10.6907L8.81391 10.737Z" fill="#5C5D60"/>
<path d="M14.118 11.2979H14.0409H13.9788H13.8932H13.7946H13.7411L13.4584 11.2737H13.3385L13.21 11.2627L13.073 11.2496L12.9273 11.2364L12.7796 11.221H12.6961L12.5376 11.2056H12.4476H12.3598L12.0922 11.1111L11.8116 11.0825L11.7153 11.0715L11.424 11.0407L11.3148 11.0298L11.1006 11.0078L10.8865 10.9836L10.6723 10.9594L10.3404 10.9221L10.0128 10.8847L9.65513 10.8429L9.53735 10.8275L9.40886 10.8122L9.19471 10.7836L8.9463 10.766L8.81352 10.7484L8.46446 10.7023L8.34453 10.6869L8.20962 10.6693L7.85627 10.6209L7.61428 10.5858L7.08105 10.5088H7.01895L6.88617 10.4868L6.72984 10.4627L6.65703 10.4517L6.55424 10.4363L6.2116 10.3813H6.20089H6.16449L5.92678 10.3418H5.8711H5.85183L5.57558 10.2934H5.53275H5.50919L5.34429 10.2648L5.19653 10.2385H5.17297L5.11515 10.2275L5.03163 10.2099H5.02521L4.89672 10.1835H4.87316H4.85175L4.71898 10.1571H4.69756H4.67615L4.55194 10.1308H4.53481L4.45985 10.1154H4.40632H4.37848L4.24571 10.0868H4.22857L4.10008 10.0604H4.0701L3.79385 9.88679H3.76173L3.64394 9.85822H3.63109L3.50475 9.82745H3.47691L3.36983 9.80107H3.34842L3.22849 9.7703H3.20279L3.10429 9.74392H3.07859L2.96509 9.71315H2.94367L2.84945 9.68677H2.82161L2.71453 9.65381H2.70168L2.60746 9.62303H2.58176L2.47897 9.58786L0.0869141 8.20752L1.56669 9.44719L7.59501 11.6452L9.33819 11.632L14.133 11.5924V11.3001L14.118 11.2979Z" fill="#DADADA"/>
<path d="M6.84082 12.2583L7.59035 12.6803V11.6428L6.84082 12.2583Z" fill="#A3A5A8"/>
<path d="M7.59082 12.6803L8.37461 13.3792L7.59082 11.6428V12.6803Z" fill="#EDEDEE"/>
<path d="M10.4454 14.432L9.73018 13.7331L7.59082 11.6428L8.37461 13.3792L11.968 15.9201L10.4454 14.432Z" fill="#7E8083"/>
<path d="M8.37402 13.3794L10.3313 15.1576L11.9675 17.4633V15.9203L8.37402 13.3794Z" fill="#CBCCCE"/>
<path d="M8.37402 13.3794L11.9675 17.4633L10.3313 15.1576L8.37402 13.3794Z" fill="#E9E9EA"/>
<path d="M14.1294 12.68V11.5898L9.33887 11.6294L14.1294 12.68Z" fill="#A1A3A6"/>
<path d="M9.33729 11.6295L14.1278 11.5898L9.33301 11.6295H9.33729Z" fill="#9FA1A4"/>
<path d="M10.0311 13.3792L11.1961 12.0473L9.33729 11.6296H9.33301L10.0311 13.3792Z" fill="#848689"/>
<path d="M9.72919 13.7331L10.0311 13.3793L9.33301 11.6296L9.72919 13.7331Z" fill="#ABADB0"/>
<path d="M13.0963 16.9491L11.9678 15.9204V17.4634L14.1285 17.8898L13.0963 16.9491Z" fill="#B8BABC"/>
<path d="M14.13 16.478V15.9204H13.3291L14.13 16.478Z" fill="#4D4D4F"/>
<path d="M13.3276 15.9204H11.9678L13.0963 16.9491L13.3276 15.9204Z" fill="#E9E9EA"/>
<path d="M13.0977 16.9487L14.1299 17.8895L13.0977 16.9487Z" fill="#E6E7E8"/>
<path d="M14.1299 17.8894V16.4761L13.0977 16.9486L14.1299 17.8894Z" fill="#636466"/>
<path d="M13.0977 16.9491L14.1299 16.4765L13.3289 15.9204L13.0977 16.9491Z" fill="#7E8083"/>
<path d="M11.9689 15.9198L12.3608 13.9351L10.4463 14.4318L11.9689 15.9198Z" fill="#6D6E71"/>
<path d="M10.4463 14.4319L11.9689 15.9199L10.4463 14.4319Z" fill="#F1F2F2"/>
<path d="M12.3602 13.9359L9.73047 13.7332L10.4457 14.434L12.3602 13.9359Z" fill="#EBEBEC"/>
<path d="M10.4457 14.434L9.73047 13.7332L10.4457 14.434Z" fill="#636466"/>
<path d="M12.8094 15.2297L12.441 15.555L12.3597 13.9351L11.9678 15.9198L14.1285 14.2538L12.3597 13.9351L12.8094 15.2297Z" fill="#919396"/>
<path d="M12.8091 15.2297L12.3594 13.9351L12.4408 15.555L12.8091 15.2297Z" fill="#8C8E90"/>
<path d="M12.2917 13.1193L9.73047 13.7325L12.3602 13.9347L14.1291 14.2534V12.6797L13.4695 14.1347L12.2917 13.1193Z" fill="#8F9194"/>
<path d="M12.292 13.1205L14.1294 12.6797L12.292 13.1205Z" fill="#5C5D60"/>
<path d="M14.0031 12.9588L13.8896 13.2094L12.292 13.1193L13.4698 14.1347L14.1294 12.6797L12.292 13.1193L14.0031 12.9588Z" fill="#CBCCCE"/>
<path d="M13.8896 13.2105L14.003 12.9592L12.292 13.1201L13.8896 13.2105Z" fill="#8C8E90"/>
<path d="M3.50488 9.8269L3.63199 9.85794L3.50488 9.8269Z" fill="#C0C2C4"/>
<path d="M3.79395 9.88672L4.05949 9.94843L3.79395 9.88672Z" fill="#888A8C"/>
<path d="M6.55176 10.4163L6.65517 10.4318L6.72626 10.4429L6.55176 10.4163Z" fill="#5A5B5D"/>
<path d="M4.0918 9.96338L4.22106 9.98998L4.0918 9.96338Z" fill="#CDCFD0"/>
<path d="M14.1287 0H11.197L6.64844 0.804454L14.1287 3.20244V0Z" fill="#C0C2C4"/>
<path d="M3.64453 9.85986L3.76302 9.88868L3.64453 9.85986Z" fill="#565759"/>
<path d="M2.96484 9.68457L3.07902 9.71561L2.96484 9.68457Z" fill="#EBEBEC"/>
<path d="M3.09668 9.72363L3.19362 9.74802L3.09668 9.72363Z" fill="#696A6D"/>
<path d="M2.48145 9.53711L2.5827 9.56815L2.48145 9.53711Z" fill="#7B7C7F"/>
<path d="M2.60938 9.57642L2.69986 9.60746L2.60938 9.57642Z" fill="#C4C6C8"/>
<path d="M3.22852 9.75708L3.34916 9.78812L3.22852 9.75708Z" fill="#DADBDC"/>
<path d="M2.71484 9.61182L2.82256 9.64286L2.71484 9.61182Z" fill="#E6E7E8"/>
<path d="M2.84863 9.65137L2.94127 9.67798L2.84863 9.65137Z" fill="#95979A"/>
<path d="M0.693359 7.22714L5.59953 5.2182L4.71081 4.34781L4.29536 3.93899L3.99769 3.64886L3.40664 3.0708L2.68281 5.56768L0.693359 7.22714Z" fill="#DEDFE0"/>
<path d="M2.01212 5.20508L0.0869141 8.15472L0.692959 7.22719L2.01212 5.20508Z" fill="#545456"/>
<path d="M6.5526 10.4164L6.20996 10.3613L6.5526 10.4164Z" fill="#A7A9AC"/>
<path d="M7.4344 10.5463L7.08105 10.4956L7.4344 10.5463Z" fill="#C7C8CA"/>
<path d="M3.36914 9.79224L3.4747 9.81884L3.36914 9.79224Z" fill="#757679"/>
<path d="M13.7815 10.8888L14.1284 10.447V6.09717L11.3145 7.96985L13.7815 10.8888Z" fill="#BABCBE"/>
<path d="M14.128 11.2974V10.4468L14.0938 11.2578L14.128 11.2974Z" fill="#E4E5E6"/>
<path d="M13.7073 11.2623H13.6645H13.5895H13.506L13.249 11.238H13.3411H13.461L13.7437 11.2623H13.7116H13.7073Z" fill="#5A5B5D"/>
<path d="M6.74023 10.4426L6.89656 10.4669L7.02934 10.4889H7.09144L6.74023 10.4426Z" fill="#D1D3D4"/>
<path d="M5.19434 10.1853L5.3421 10.2117L5.50699 10.2404L5.19434 10.1853Z" fill="#9B9DA0"/>
<path d="M7.43359 10.5459L7.61348 10.5701L7.85547 10.6054L8.20882 10.6539L8.34373 10.6715L8.46366 10.687L8.81272 10.7332L8.94549 10.7509L9.18534 10.7795L9.39949 10.8082L9.52798 10.8236L9.64576 10.839L10.0034 10.8809L10.331 10.9184L10.663 10.9558L10.8771 10.9801L11.0913 11.0043L11.3054 11.0264L11.4146 11.0374L11.7059 11.0682L11.8023 11.0793L12.0828 11.1079L12.3505 11.1344H12.4383H12.5282L12.6867 11.1498H12.7702L12.918 11.1652L13.0636 11.1784L13.2007 11.1917H13.2349C12.0185 11.1101 9.71001 10.8787 7.43359 10.5459Z" fill="#EBEBEC"/>
<path d="M2.47852 9.53673L2.96892 8.85791L2.47852 9.53673Z" fill="#333132"/>
<path d="M5.86914 10.3042H5.92482L6.16253 10.3439H6.19893L5.86914 10.3042Z" fill="#616264"/>
<path d="M8.54883 5.52127L14.1296 6.09714L10.3627 3.20239L8.54883 5.52127Z" fill="#515254"/>
<path d="M4.71094 10.0908L4.84451 10.1174L4.71094 10.0908Z" fill="#3E3E3F"/>
<path d="M4.23713 9.99416L4.3707 10.023L4.22852 9.99194L4.23713 9.99416Z" fill="#F1F2F2"/>
<path d="M4.39844 10.0293H4.4523L4.52554 10.0426L4.39844 10.0293Z" fill="#515254"/>
<path d="M4.54395 10.0581L4.6689 10.0847H4.69044L4.54395 10.0581Z" fill="#C7C8CA"/>
<path d="M5.11332 10.1703L5.17148 10.1814L5.0293 10.1548L5.11332 10.1703Z" fill="#434345"/>
<path d="M5.53125 10.2449H5.57408L5.85033 10.2934L5.53125 10.2449Z" fill="#363436"/>
<path d="M7.43488 10.5479L5.62102 7.88393L6.45621 7.7059L7.43488 10.5479L5.59961 5.21777L5.62102 9.02689L7.43488 10.5479Z" fill="#848689"/>
<path d="M4.86719 10.1211H4.88873L5.01799 10.1455L4.86719 10.1211Z" fill="#9FA1A4"/>
<path d="M9.54039 10.827L9.41113 10.8115L9.54039 10.827Z" fill="#E6E7E8"/>
<path d="M10.0158 10.8842L9.6582 10.8423L10.0158 10.8842Z" fill="#A1A3A6"/>
<path d="M11.4224 11.0409L11.3125 11.0298L11.4224 11.0409Z" fill="#464547"/>
<path d="M5.57324 10.2537L5.84949 10.3022L5.57324 10.2537Z" fill="#4D4D4F"/>
<path d="M3.50488 9.8269L3.63199 9.85794L3.50488 9.8269Z" fill="#9D9FA2"/>
<path d="M3.36914 9.79224L3.47686 9.81884L3.36914 9.79224Z" fill="#8F9194"/>
<path d="M3.64453 9.85986L3.76302 9.88868L3.64453 9.85986Z" fill="#5F6062"/>
<path d="M4.0918 9.96338L4.22106 9.98998L4.0918 9.96338Z" fill="#515254"/>
<path d="M3.22852 9.75708L3.34916 9.78812L3.22852 9.75708Z" fill="#848689"/>
<path d="M3.79395 9.88672L4.06163 9.94843L3.79395 9.88672Z" fill="#A1A3A6"/>
<path d="M2.71484 9.61182L2.82256 9.64507L2.71484 9.61182Z" fill="#8C8E90"/>
<path d="M2.60938 9.57642L2.70417 9.60746L2.60938 9.57642Z" fill="#757679"/>
<path d="M2.48145 9.53711L2.58485 9.57259L2.48145 9.53711Z" fill="#434345"/>
<path d="M3.09668 9.72363L3.19578 9.75024L3.09668 9.72363Z" fill="#58595B"/>
<path d="M4.45117 10.0405L4.52605 10.0559L4.45117 10.0405Z" fill="#DEDFE0"/>
<path d="M2.96484 9.68457L3.07902 9.71561L2.96484 9.68457Z" fill="#BCBEC0"/>
<path d="M2.84863 9.65137L2.94342 9.67798L2.84863 9.65137Z" fill="#464547"/>
<path d="M8.34568 10.6759L8.20996 10.6582L8.34568 10.6759Z" fill="#AFB1B4"/>
<path d="M5.34082 10.2117L5.5067 10.2405L5.34082 10.2117Z" fill="#828487"/>
<path d="M4.54395 10.0581L4.6689 10.0847L4.54395 10.0581Z" fill="#565759"/>
<path d="M6.55176 10.4163L6.65517 10.4318L6.55176 10.4163Z" fill="#3B3B3C"/>
<path d="M6.20996 10.3613L6.5526 10.4164L6.20996 10.3613Z" fill="#A1A3A6"/>
<path d="M4.8877 10.126L5.01696 10.1526L4.8877 10.126Z" fill="#DEDFE0"/>
<path d="M4.71094 10.0908L4.84451 10.1174L4.71094 10.0908Z" fill="#848689"/>
<path d="M8.94705 10.7658L8.81348 10.748L8.94705 10.7658Z" fill="#C7C8CA"/>
<path d="M7.01833 10.489L6.88477 10.4668L7.01833 10.489Z" fill="#616264"/>
<path d="M5.02539 10.1523L5.10883 10.17L5.02539 10.1545V10.1523Z" fill="#D8D9DA"/>
<path d="M0.0869141 8.15454L2.47897 9.53488L0.0869141 8.15454Z" fill="#A9ABAE"/>
<path d="M6.6475 0.804688L3.40527 3.07085L5.95152 1.98942L6.6475 0.804688Z" fill="#AFB1B4"/>
<path d="M3.95136 3.60453L5.95152 1.98901L3.40527 3.07042L3.99633 3.64849L3.95136 3.60453Z" fill="#E2E3E4"/>
<path d="M4.77947 4.41557L4.71094 4.34744L5.59966 5.21783L5.95301 1.98901L4.77947 4.41557Z" fill="#ABADB0"/>
<path d="M3.99707 3.64844L4.29474 3.93937L3.99707 3.64844Z" fill="#B1B3B6"/>
<path d="M5.95329 1.98901L3.95312 3.60451L3.9981 3.64847L4.29576 3.9386L5.95329 1.98901Z" fill="#7D7E81"/>
<path d="M4.29492 3.93896L4.71037 4.34891L4.29492 3.93896Z" fill="#5C5D60"/>
<path d="M5.95245 1.98901L4.29492 3.93861L4.71037 4.34743L4.7789 4.41557L5.95245 1.98901Z" fill="#CDCFD0"/>
<path d="M3.40674 3.0708L0.25231 6.11941L0.181641 6.97663L3.40674 3.0708Z" fill="#808285"/>
<path d="M0.0869141 8.15473L2.01212 5.20504L2.49396 4.46652L2.74666 4.07967L3.40624 3.0708L0.12332 7.70635L0.0869141 8.15473Z" fill="#EFEFF0"/>
<path d="M0.123047 7.70636L3.40597 3.0708L0.180868 6.97662L0.123047 7.70636Z" fill="#636466"/>
<path d="M5.59913 5.21826L0.692958 7.2272L0.0869141 8.15474L5.59913 5.21826Z" fill="#86888A"/>
<path d="M2.68281 5.5675L2.49435 4.46631L2.01252 5.20483L0.693359 7.22698L2.68281 5.5675Z" fill="#3E3E3F"/>
<path d="M2.49551 4.46631L2.01367 5.20484L2.49551 4.46631Z" fill="#A5A7AA"/>
<path d="M2.68259 5.56738L2.74683 4.07935L2.49414 4.46619L2.68259 5.56738Z" fill="#BABCBE"/>
<path d="M2.74684 4.07935L2.49414 4.46725L2.74684 4.07935Z" fill="#919396"/>
<path d="M2.74805 4.07969L3.40763 3.0708L2.74805 4.07969Z" fill="#6B6C6F"/>
<path d="M2.68262 5.5677L3.40644 3.0708L2.74686 4.07967L2.68262 5.5677Z" fill="#BCBEC0"/>
<path d="M2.74805 4.07969L3.40763 3.0708L2.74805 4.07969Z" fill="#434345"/>
<path d="M5.95296 1.98901L5.59961 5.21783L10.3623 3.20229L5.95296 1.98901Z" fill="#C6C6C6"/>
<path d="M14.1282 6.09714V3.20239H10.3613L14.1282 6.09714Z" fill="#F1F2F2"/>
<path d="M11.3156 7.97027L14.1296 6.0976L8.54883 5.52173L11.3156 7.97027Z" fill="#6F7173"/>
<path d="M9.51856 9.16316L8.54846 5.5211L6.64895 6.27501L5.59961 5.21777L9.51856 9.16316Z" fill="#3E3E3F"/>
<path d="M10.3623 3.20239L5.59961 5.21793L8.54846 5.52126L10.3623 3.20239Z" fill="#393839"/>
<path d="M9.51856 9.16317L5.59961 5.21777L7.43488 10.5479L9.51856 9.16317Z" fill="#616264"/>
<path d="M8.54845 5.52192L5.59961 5.21777L8.54845 5.52192Z" fill="#393839"/>
<path d="M8.54846 5.5211L5.59961 5.21777L6.64895 6.27501L8.54846 5.5211Z" fill="#CBCCCE"/>
<path d="M8.54883 5.52173L9.51893 9.16376L10.489 8.51976L8.54883 5.52173Z" fill="#9FA1A4"/>
<path d="M10.489 8.51975L11.3156 7.97026L8.54883 5.52173L10.489 8.51975Z" fill="#4D4D4F"/>
<path d="M1.10198 8.74161L2.47897 9.53507L2.55392 6.84036L3.8945 7.57669L5.59913 5.21826L0.0869141 8.15475L1.10198 8.74161Z" fill="#A5A7AA"/>
<path d="M2.47952 9.53467L1.10254 8.74121L2.47952 9.53467Z" fill="#6B6C6F"/>
<path d="M0.0869141 8.15454L1.10198 8.743L0.0869141 8.15454Z" fill="#8F9194"/>
<path d="M1.10198 8.7414L0.0869141 8.15454L2.47897 9.53488L1.10198 8.7414Z" fill="#D3D5D6"/>
<path d="M3.89429 7.57617L2.55371 6.83984L3.21329 8.51911L3.89429 7.57617Z" fill="#67686B"/>
<path d="M2.99462 8.82227L2.47852 9.53439L2.96892 8.85743L2.99462 8.82227Z" fill="#393839"/>
<path d="M3.01604 8.79175L2.47852 9.5347L2.99462 8.82252L3.01604 8.79175Z" fill="#95979A"/>
<path d="M3.01604 8.79165L3.21305 8.5191L2.55347 6.83984L2.47852 9.53457L3.01604 8.79165Z" fill="#CFD1D2"/>
<path d="M14.0938 11.2963H14.1285L14.0938 11.2561V11.2963Z" fill="#565759"/>
<path d="M7.43359 10.546C9.71001 10.8735 12.0185 11.1043 13.2413 11.2054L13.4983 11.2296L13.7789 10.8713L11.314 7.96777L10.4874 8.51946L9.82565 8.95906L7.43359 10.546Z" fill="#48484A"/>
<path d="M9.51727 9.1634L7.43359 10.5481L9.82565 8.95898L9.51727 9.1634Z" fill="#464547"/>
<path d="M9.51727 9.16333L7.43359 10.548L9.51727 9.16333Z" fill="#808285"/>
<path d="M9.82715 8.95984L10.4889 8.51904L9.82715 8.95984Z" fill="#5C5D60"/>
<path d="M9.82693 8.95984L10.4887 8.51904L9.51855 9.16481L9.82693 8.95984Z" fill="#939598"/>
<path d="M10.4883 8.52097L11.3149 7.96997L10.4883 8.52097Z" fill="#ABADB0"/>
<path d="M10.4883 8.52097L11.3149 7.96997L10.4883 8.52097Z" fill="#E6E7E8"/>
<path d="M5.53015 10.2449L5.84923 10.3021H5.86851L6.1983 10.357H6.209L6.55164 10.412L6.72511 10.4384L7.07631 10.4933L7.42966 10.5439L4.67355 9.2251L2.47852 9.53501L2.57917 9.56578H2.60701L2.69695 9.59655H2.71194L2.81901 9.62732H2.84685L2.93894 9.6537H2.96249L3.07599 9.68447H3.10169L3.19806 9.70865H3.2259L3.34582 9.73942H3.36724L3.47217 9.76579H3.50215L3.6285 9.79656H3.64135L3.75913 9.82514H3.79125L4.0568 9.88668H4.08892L4.21741 9.91306L4.35875 9.94383H4.38659L4.51294 9.968H4.53221L4.67783 9.99878H4.69925L4.83202 10.0252H4.85558L5.00548 10.0537H5.01833L5.15967 10.0801H5.18323L5.49589 10.1351L5.53015 10.2449Z" fill="#B1B3B6"/>
<path d="M2.48218 9.53834L2.47852 9.53467L2.48218 9.53834Z" fill="#4A4B4C"/>
<path d="M2.96892 8.85754L2.47852 9.53454L4.67784 9.22242L3.21305 8.51904L2.96892 8.85754Z" fill="#9B9DA0"/>
<path d="M2.99542 8.82319L2.96973 8.85846L3.21386 8.51904L2.99542 8.82319Z" fill="#58595B"/>
<path d="M3.21355 8.51904L3.01653 8.79234L2.99512 8.82319L3.21355 8.51904Z" fill="#464547"/>
<path d="M3.2146 8.51904L3.01758 8.79234L3.2146 8.51904Z" fill="#5C5D60"/>
<path d="M3.89486 7.57666L5.49028 9.39438L3.21387 8.51959L4.67865 9.22294L7.43477 10.5483L5.62091 9.02732L3.89486 7.57666Z" fill="#67686B"/>
<path d="M3.21387 8.51904L4.67866 9.22241L3.21387 8.51904Z" fill="#67686B"/>
<path d="M3.21387 8.51959L5.49028 9.39438L3.89486 7.57666L3.21387 8.51959Z" fill="#737577"/>
<path d="M3.21387 8.51957L3.89486 7.57666L3.21387 8.51957Z" fill="#C4C6C8"/>
<path d="M3.21387 8.51957L3.89486 7.57666L3.21387 8.51957Z" fill="#AFB1B4"/>
<path d="M5.60773 6.77394L5.62058 9.02688L5.59916 5.21777L3.89453 7.57621L5.60773 6.77394Z" fill="#393839"/>
<path d="M3.89453 7.5762L5.59917 5.21777L3.89453 7.5762Z" fill="#363436"/>
<path d="M5.62058 9.02664L5.60773 6.77368L5.12375 8.60902L4.29499 7.91225L5.60773 6.77368L3.89453 7.57596L5.62058 9.02664Z" fill="#414042"/>
<path d="M3.89453 7.57666L5.62058 9.02732L3.89453 7.57666Z" fill="#333132"/>
<path d="M5.62012 7.88434L7.43396 10.5483L6.4553 7.7063L5.62012 7.88434Z" fill="#97999C"/>
<path d="M5.12368 8.60899L5.60766 6.77368L4.29492 7.91223L5.12368 8.60899Z" fill="#D8D9DA"/>
<path d="M14.1284 3.20228L5.95215 1.98901L10.3615 3.20228H14.1284Z" fill="#9B9DA0"/>
<path d="M14.1287 3.20271L6.64844 0.804688L8.13464 1.83775L14.1287 3.20271Z" fill="#B2B2B2"/>
<path d="M8.13434 1.83778L6.64814 0.804688L5.95215 1.98944L8.13434 1.83778Z" fill="#BEC0C2"/>
<path d="M8.13433 1.83716L5.95215 1.98882L14.1284 3.2021L8.13433 1.83716Z" fill="#BEC0C2"/>
<path d="M14.0949 11.2578L14.1291 10.4468L13.7822 10.8886L14.0949 11.2578Z" fill="#F1F2F2"/>
<path d="M13.5352 11.248H13.5909H13.6658H13.7087H13.7515L14.0427 11.2722H14.0834V11.2348L13.7708 10.8623L13.4902 11.2216L13.5352 11.248Z" fill="#545456"/>
<path d="M15.9663 13.1199L18.5275 13.7331L18.2277 13.3793L17.0606 12.0473L18.9216 11.6296H18.9194L14.1289 12.6803L15.9663 13.1199Z" fill="#9D9FA2"/>
<path d="M16.1445 17.6303L19.8836 13.3794L16.2902 17.4633L16.1445 17.6303Z" fill="#D8D9DA"/>
<path d="M18.5273 13.7331L20.6667 11.6428L18.9257 11.6296L18.5273 13.7331Z" fill="#5F6062"/>
<path d="M16.2897 15.92L14.1289 14.2539V15.92H14.932H16.2897Z" fill="#A7A9AC"/>
<path d="M28.171 8.15479L26.6912 9.39444L20.665 11.643L21.4146 12.2584L20.665 11.643L26.6912 9.39444L28.171 8.15479Z" fill="#B3B5B8"/>
<path d="M20.6683 12.68L21.4179 12.258L20.8247 14.3109L20.2979 14.7527L26.6945 9.39404L21.4179 12.258L20.6683 12.68Z" fill="#B1B3B6"/>
<path d="M19.8831 13.3794L16.1441 17.6303L15.2403 18.6546L14.1289 19.9184L18.7396 16.0565L19.8831 13.3794Z" fill="#B6B8BA"/>
<path d="M19.8828 13.3794L18.7393 16.0566L20.2961 14.7532L20.8229 14.3114L19.8828 13.3794Z" fill="#4F4F51"/>
<path d="M20.8229 14.3106L20.6666 12.6797L19.8828 13.3786L20.8229 14.3106Z" fill="#8A8C8E"/>
<path d="M21.4146 12.2581L20.665 12.6801L20.8214 14.311L21.4146 12.2581Z" fill="#828487"/>
<path d="M14.1289 19.2761V19.9179L15.2403 18.6541L14.1289 19.2761Z" fill="#6B6C6F"/>
<path d="M14.1289 19.9179L15.2403 18.6541L14.1289 19.9179Z" fill="#97999C"/>
<path d="M15.2403 18.6541L14.1289 18.8105V19.2778L15.2403 18.6541Z" fill="#A1A3A6"/>
<path d="M15.2403 18.6548L14.1289 18.4807V18.8113L15.2403 18.6548Z" fill="#B6B8BA"/>
<path d="M15.2403 18.6543L14.1289 17.8894V18.4807L15.2403 18.6543Z" fill="#77787B"/>
<path d="M15.2402 17.8893V18.6542L16.1439 17.6299L16.2896 17.4629L15.2402 17.8893Z" fill="#737577"/>
<path d="M15.2402 18.6541L16.1439 17.6299L15.2402 18.6541Z" fill="#C2C4C6"/>
<path d="M15.2403 18.6543V17.8894H14.1289L15.2403 18.6543Z" fill="#DEDFE0"/>
<path d="M16.2897 17.4629L14.1289 17.8905H15.2403L16.2897 17.4629Z" fill="#888A8C"/>
<path d="M21.4146 12.258L26.6912 9.39404L20.665 11.6426L21.4146 12.258Z" fill="#9D9D9C"/>
<path d="M15.0131 11.221L14.5205 11.2651L15.1887 11.2056L15.0152 11.221H15.0131Z" fill="#67686B"/>
<path d="M21.376 10.467L21.5311 10.4426L21.376 10.467Z" fill="#797A7D"/>
<path d="M20.8252 10.5461L20.6475 10.5703L21.1807 10.4932L20.8252 10.5461Z" fill="#A3A5A8"/>
<path d="M20.4014 10.6094L20.0352 10.6601L20.4014 10.6094Z" fill="#545456"/>
<path d="M16.8437 11.0408L16.167 11.1113L16.8437 11.0408Z" fill="#E0E1E2"/>
<path d="M16.1612 11.1106L15.8936 11.137L16.1612 11.1106Z" fill="#BABCBE"/>
<path d="M15.7332 11.1528L15.4912 11.1771L15.7332 11.1528Z" fill="#E2E3E4"/>
<path d="M15.4862 11.1768L15.3311 11.1923L15.4862 11.1768Z" fill="#CDCFD0"/>
<path d="M17.3673 10.9854L16.8447 11.0427L17.3673 10.9854Z" fill="#EFEFF0"/>
<path d="M15.9018 11.1372L15.7295 11.1527L15.9018 11.1372Z" fill="#696A6D"/>
<path d="M19.8023 10.6907L19.4404 10.7392L19.8023 10.6907Z" fill="#BCBEC0"/>
<path d="M20.6455 10.5742L20.4014 10.6095L20.6455 10.5742Z" fill="#8F9194"/>
<path d="M19.0742 10.7834L18.8359 10.8144L19.0742 10.7834Z" fill="#D3D5D6"/>
<path d="M17.9154 10.9219L17.3672 10.9836L17.9154 10.9219Z" fill="#DEDFE0"/>
<path d="M18.2555 10.8821L17.915 10.9218L18.2555 10.8821Z" fill="#BABCBE"/>
<path d="M19.3106 10.7656L19.0723 10.7944L19.3106 10.7656Z" fill="#DCDDDE"/>
<path d="M15.3328 11.1921L15.1885 11.2054L15.3328 11.1921Z" fill="#717375"/>
<path d="M21.5322 10.4429L21.6028 10.4319L21.5322 10.4429Z" fill="#717375"/>
<path d="M25.6779 9.5698H25.6501L25.5558 9.60057H25.543L25.4359 9.63354H25.4081L25.3138 9.65992H25.2946L25.1789 9.69069H25.1532L25.0569 9.71706H25.029L24.9091 9.74784H24.8877L24.7827 9.77421H24.7528L24.6264 9.80499H24.6157L24.4958 9.83356H24.4658L24.1981 9.8951H24.1681L24.0375 9.92148H24.0204L23.8876 9.95005H23.8598H23.8084L23.7334 9.96544H23.7163L23.5899 9.99181H23.5685H23.5471L23.4143 10.0182H23.3929H23.3694L23.2409 10.0446L23.1552 10.0622L23.0974 10.0731H23.0738L22.7612 10.1281H22.7398H22.6969L22.4185 10.1764H22.3993H22.3436L22.0695 10.2226H22.0588L21.9881 10.2336L21.7183 10.2776L21.6155 10.2929L21.5448 10.3039L21.3906 10.3281L21.2557 10.3501H21.1936L20.6604 10.427L20.4162 10.4622L20.05 10.5127L19.808 10.5435L19.4461 10.5919L19.3262 10.6073L19.0885 10.6358L18.8508 10.6666L18.2704 10.7347L17.9299 10.7743L17.3817 10.8358L16.8592 10.893L16.1825 10.9633L15.9148 10.9897L15.7435 11.0051L15.5015 11.0293L15.3473 11.0447L15.2038 11.0578L14.5357 11.1172H14.48H14.3836H14.3494H14.3044H14.2401H14.1523V11.4095L18.9493 11.4491L20.6582 11.6447L26.6844 9.39616L28.1642 8.15649L25.77 9.53683L25.6779 9.5698Z" fill="#DADADA"/>
<path d="M21.4146 12.2583L20.665 11.6428V12.6803L21.4146 12.2583Z" fill="#3B3B3C"/>
<path d="M20.6666 12.6803V11.6428L19.8828 13.3792L20.6666 12.6803Z" fill="#4D4D4F"/>
<path d="M18.5269 13.7331L17.8138 14.432L16.2891 15.9201L19.8825 13.3792L20.6663 11.6428L18.5269 13.7331Z" fill="#8D9092"/>
<path d="M16.2891 17.4633L17.9252 15.1576L19.8825 13.3794L16.2891 15.9203V17.4633Z" fill="#A7A9AC"/>
<path d="M16.2891 17.4633L19.8825 13.3794L17.9252 15.1576L16.2891 17.4633Z" fill="#9D9FA2"/>
<path d="M14.1289 11.5898V12.68L18.9194 11.6294L14.1289 11.5898Z" fill="#878787"/>
<path d="M18.9194 11.6295H18.9259L14.1289 11.5898L18.9194 11.6295Z" fill="#ADAFB2"/>
<path d="M18.9215 11.6296L17.0605 12.0473L18.2277 13.3792L18.9258 11.6296H18.9215Z" fill="#B8BABC"/>
<path d="M18.2285 13.3793L18.5283 13.7331L18.9266 11.6296L18.2285 13.3793Z" fill="#9FA1A4"/>
<path d="M16.2897 15.9204L14.1289 17.8898L16.2897 17.4634V15.9204Z" fill="#6F7173"/>
<path d="M14.1289 15.9204V16.478L14.932 15.9204H14.1289Z" fill="#EFEFF0"/>
<path d="M14.932 15.9204L15.1611 16.9491L14.1289 17.8898L16.2897 15.9204H14.932Z" fill="#565759"/>
<path d="M14.1289 16.4761V17.8894L15.1611 16.9486L14.1289 16.4761Z" fill="#565759"/>
<path d="M14.932 15.9204L14.1289 16.4765L15.1611 16.9491L14.932 15.9204Z" fill="#AFB1B4"/>
<path d="M15.9004 13.9351L16.2901 15.9198L17.8149 14.4318L15.9004 13.9351Z" fill="#8D9092"/>
<path d="M16.2891 15.9199L17.8138 14.4319L16.2891 15.9199Z" fill="#E9E9EA"/>
<path d="M18.528 13.7332L15.9004 13.9359L17.8149 14.434L18.528 13.7332Z" fill="#A5A7AA"/>
<path d="M17.8135 14.434L18.5266 13.7332L17.8135 14.434Z" fill="#DCDDDE"/>
<path d="M15.8999 13.9351L15.8164 15.555L15.4481 15.2297L15.8999 13.9351L14.1289 14.2538L16.2897 15.9198L15.8999 13.9351Z" fill="#A7A9AC"/>
<path d="M15.8166 15.555L15.9001 13.9351L15.4482 15.2297L15.8166 15.555Z" fill="#CFD1D2"/>
<path d="M18.5275 13.7325L15.9663 13.1193L14.7906 14.1347L14.1289 12.6797V14.2534L15.8999 13.9347L18.5275 13.7325Z" fill="#EDEDEE"/>
<path d="M15.9663 13.1205L14.1289 12.6797L15.9663 13.1205Z" fill="#828487"/>
<path d="M15.9663 13.1193L14.3688 13.2094L14.2574 12.9588L15.9663 13.1193L14.1289 12.6797L14.7906 14.1347L15.9663 13.1193Z" fill="#B8BABC"/>
<path d="M14.2568 12.9592L14.3682 13.2105L15.9658 13.1201L14.2568 12.9592Z" fill="#CBCCCE"/>
<path d="M23.9645 3.93899L23.5491 4.34781L22.6582 5.2182L27.5665 7.22714L25.5749 5.56768L24.8511 3.0708L24.2622 3.64886L23.9645 3.93899Z" fill="#828487"/>
<path d="M25.7785 9.53673L25.2881 8.85791L25.7785 9.53673Z" fill="#C2C4C6"/>
<path d="M14.1289 6.09719V10.447V11.2976L14.1632 11.258L14.1289 10.447L14.4758 10.8888L16.945 7.96987L14.1289 6.09719V3.20245L21.6091 0.804458L17.0606 0H14.1289V3.20245V6.09719Z" fill="#95979A"/>
<path d="M20.8252 10.5463L21.1764 10.4956L20.8252 10.5463Z" fill="#919396"/>
<path d="M24.7531 9.8269L24.626 9.85794L24.7531 9.8269Z" fill="#DCDDDE"/>
<path d="M24.4638 9.88672L24.1982 9.94843L24.4638 9.88672Z" fill="#67686B"/>
<path d="M21.1787 10.4975H21.2408L21.3757 10.4754L21.5299 10.4512L21.1787 10.4975Z" fill="#393839"/>
<path d="M24.8878 9.79224L24.7822 9.81884L24.8878 9.79224Z" fill="#97999C"/>
<path d="M24.6144 9.85986L24.498 9.88868L24.6144 9.85986Z" fill="#434345"/>
<path d="M22.0586 10.3593L22.3327 10.313H22.3884L22.0586 10.3593Z" fill="#363436"/>
<path d="M23.5674 10.0891H23.5889L23.7139 10.0625L23.5674 10.0891Z" fill="#77787B"/>
<path d="M21.5322 10.4429L21.6033 10.4318L21.7067 10.4163L21.5322 10.4429Z" fill="#B8BABC"/>
<path d="M23.8098 10.0405H23.8615L23.7344 10.0649L23.8098 10.0405Z" fill="#B8BABC"/>
<path d="M23.2412 10.1504L23.3705 10.126H23.3942L23.2412 10.1504Z" fill="#B8BABC"/>
<path d="M23.8877 10.023L24.0213 9.99414L23.8877 10.023Z" fill="#A3A5A8"/>
<path d="M23.4141 10.1177L23.5476 10.0933L23.4141 10.1177Z" fill="#B3B5B8"/>
<path d="M21.9778 10.3723L22.0485 10.3613L21.708 10.4164L21.9778 10.3723Z" fill="#737577"/>
<path d="M25.0298 9.75708L24.9092 9.78812L25.0298 9.75708Z" fill="#EDEDEE"/>
<path d="M22.6866 10.2537H22.7294L22.4082 10.311L22.6866 10.2537Z" fill="#4D4D4F"/>
<path d="M23.0869 10.1814L23.1451 10.1703L23.2291 10.1548L23.0869 10.1814Z" fill="#9D9FA2"/>
<path d="M24.1662 9.96338L24.0391 9.98998L24.1662 9.96338Z" fill="#5F6062"/>
<path d="M15.0131 11.2207L14.7582 11.2449H14.6618H14.5933H14.5526H14.5205L15.0131 11.2207Z" fill="#828487"/>
<path d="M28.1725 8.15476L26.2451 5.20508L27.5664 7.22721L28.1725 8.15476Z" fill="#ADAFB2"/>
<path d="M19.7118 5.52127L17.8958 3.20239L14.1289 6.09714L19.7118 5.52127Z" fill="#656668"/>
<path d="M23.0636 10.1853L22.751 10.2404L23.0636 10.1853Z" fill="#AFB1B4"/>
<path d="M25.6512 9.57642L25.5586 9.60746L25.6512 9.57642Z" fill="#EDEDEE"/>
<path d="M25.2946 9.68457L25.1826 9.71561L25.2946 9.68457Z" fill="#A5A7AA"/>
<path d="M25.409 9.65137L25.3164 9.67798L25.409 9.65137Z" fill="#DEDFE0"/>
<path d="M25.779 9.53711L25.6777 9.56815L25.779 9.53711Z" fill="#E0E1E2"/>
<path d="M25.5442 9.61182L25.4365 9.64286L25.5442 9.61182Z" fill="#E6E7E8"/>
<path d="M21.8019 7.7059L22.6371 7.88393L20.8232 10.5479L22.6371 9.02689L22.6585 5.21777L20.8232 10.5479L21.8019 7.7059Z" fill="#808285"/>
<path d="M25.1555 9.72363L25.0586 9.74802L25.1555 9.72363Z" fill="#DCDDDE"/>
<path d="M15.0146 11.2223L15.1881 11.2068L15.3316 11.1936L15.4858 11.1782L15.7278 11.1539L15.8991 11.1385L16.1668 11.1121L16.8435 11.0415L17.366 10.9842L17.9142 10.9225L18.2547 10.8828L18.8351 10.8145L19.0728 10.7837L19.3105 10.755L19.4304 10.7396L19.7923 10.6911L20.0343 10.6602L20.4005 10.6096L20.6446 10.5743L20.8224 10.55C18.5481 10.8784 16.2374 11.1099 15.0146 11.2223Z" fill="#717375"/>
<path d="M22.4082 10.3022L22.6866 10.2537L22.4082 10.3022Z" fill="#BEC0C2"/>
<path d="M23.2412 10.1526L23.3705 10.126L23.2412 10.1504V10.1526Z" fill="#C2C4C6"/>
<path d="M23.4141 10.1174L23.5476 10.0908L23.4141 10.1174Z" fill="#616264"/>
<path d="M23.7344 10.0559L23.8093 10.0405L23.7344 10.0537V10.0559Z" fill="#7B7C7F"/>
<path d="M25.3164 9.67798L25.4112 9.65137L25.3164 9.67798Z" fill="#CBCCCE"/>
<path d="M23.5898 10.0847L23.7169 10.0581L23.5898 10.0847Z" fill="#414042"/>
<path d="M25.4365 9.64288L25.5442 9.60962L25.4365 9.64288Z" fill="#828487"/>
<path d="M21.6025 10.4318L21.7059 10.4163L21.6025 10.4318Z" fill="#48484A"/>
<path d="M23.1445 10.17L23.2301 10.1523L23.1445 10.17Z" fill="#DEDFE0"/>
<path d="M21.376 10.4668L21.2402 10.489L21.376 10.4668Z" fill="#BCBEC0"/>
<path d="M25.779 9.53471L25.6777 9.56575L25.779 9.53027V9.53471Z" fill="#D3D5D6"/>
<path d="M25.5586 9.60746L25.6534 9.57642L25.5586 9.60746Z" fill="#616264"/>
<path d="M21.708 10.4161L21.9778 10.3721L21.708 10.4161Z" fill="#3E3E3F"/>
<path d="M24.7822 9.81884L24.8878 9.79224L24.7822 9.81884Z" fill="#828487"/>
<path d="M24.1982 9.95722L24.4659 9.89551L24.1982 9.95722Z" fill="#EDEDEE"/>
<path d="M25.0576 9.74853L25.1546 9.72192L25.0576 9.74853Z" fill="#737577"/>
<path d="M24.626 9.85794L24.7531 9.8269L24.626 9.85794Z" fill="#ADAFB2"/>
<path d="M25.1826 9.71561L25.299 9.68457L25.1826 9.71561Z" fill="#E4E5E6"/>
<path d="M24.9092 9.78812L25.0298 9.75708L24.9092 9.78812Z" fill="#717375"/>
<path d="M24.0391 9.98998L24.1705 9.96338L24.0391 9.98998Z" fill="#6D6E71"/>
<path d="M24.498 9.88698L24.6187 9.85815L24.498 9.88698Z" fill="#5A5B5D"/>
<path d="M25.7783 9.53512L28.1725 8.15479L25.7783 9.53512Z" fill="#6F7173"/>
<path d="M24.8516 3.07085L21.6094 0.804688L22.3075 1.98942L24.8516 3.07085Z" fill="#C2C4C6"/>
<path d="M23.5497 4.34744L23.479 4.41557L22.3076 1.98901L22.6588 5.21783L23.5497 4.34744Z" fill="#58595B"/>
<path d="M24.3056 3.60453L24.2628 3.64849L24.8517 3.07042L22.3076 1.98901L24.3056 3.60453Z" fill="#B6B8BA"/>
<path d="M23.9648 3.93937L24.2625 3.64844L23.9648 3.93937Z" fill="#9D9FA2"/>
<path d="M24.2628 3.64847L24.3056 3.60451L22.3076 1.98901L23.9651 3.9386L24.2628 3.64847Z" fill="#434345"/>
<path d="M23.5488 4.34891L23.9643 3.93896L23.5488 4.34891Z" fill="#CFD1D2"/>
<path d="M23.5497 4.34743L23.9651 3.93861L22.3076 1.98901L23.479 4.41557L23.5497 4.34743Z" fill="#828487"/>
<path d="M28.0071 6.11941L24.8506 3.0708L28.0757 6.97663L28.0071 6.11941Z" fill="#A7A9AC"/>
<path d="M25.5102 4.07967L25.7629 4.46652L26.2447 5.20504L28.172 8.15473L28.1356 7.70635L24.8506 3.0708L25.5102 4.07967Z" fill="#C7C8CA"/>
<path d="M28.0757 6.97662L24.8506 3.0708L28.1356 7.70636L28.0757 6.97662Z" fill="#6D6E71"/>
<path d="M28.1726 8.15425L27.5665 7.22671L22.6582 5.21777L28.1726 8.15425Z" fill="#A5A7AA"/>
<path d="M25.7646 4.46631L25.5762 5.5675L27.5678 7.22698L26.2465 5.20483L25.7646 4.46631Z" fill="#8A8C8E"/>
<path d="M26.2445 5.20484L25.7627 4.46631L26.2445 5.20484Z" fill="#6D6E71"/>
<path d="M25.5117 4.07935L25.576 5.56738L25.7644 4.46619L25.5117 4.07935Z" fill="#7B7C7F"/>
<path d="M25.7644 4.46725L25.5117 4.07935L25.7644 4.46725Z" fill="#ADAFB2"/>
<path d="M25.5102 4.07969L24.8506 3.0708L25.5102 4.07969Z" fill="#E6E7E8"/>
<path d="M25.5102 4.07967L24.8506 3.0708L25.5744 5.5677L25.5102 4.07967Z" fill="#3B3B3C"/>
<path d="M25.5102 4.07969L24.8506 3.0708L25.5102 4.07969Z" fill="#9D9FA2"/>
<path d="M22.6582 5.21783L22.307 1.98901L17.8955 3.20229L22.6582 5.21783Z" fill="#9FA1A4"/>
<path d="M14.1289 3.20239V6.09714L17.8958 3.20239H14.1289Z" fill="#6F7173"/>
<path d="M19.7115 5.5211L18.7393 9.16316L22.6582 5.21777L21.6089 6.27501L19.7115 5.5211Z" fill="#E6E7E8"/>
<path d="M16.945 7.97027L19.7118 5.52173L14.1289 6.0976L16.945 7.97027Z" fill="#B8BABC"/>
<path d="M19.7115 5.52126L22.6582 5.21793L17.8955 3.20239L19.7115 5.52126Z" fill="#EDEDEE"/>
<path d="M20.8229 10.5479L22.6582 5.21777L18.7393 9.16317L20.8229 10.5479Z" fill="#A3A5A8"/>
<path d="M19.7119 5.52192L22.6586 5.21777L19.7119 5.52192Z" fill="#A7A9AC"/>
<path d="M21.6093 6.27501L22.6586 5.21777L19.7119 5.5211L21.6093 6.27501Z" fill="#A7A9AC"/>
<path d="M17.7695 8.51976L18.7396 9.16376L19.7119 5.52173L17.7695 8.51976Z" fill="#B8BABC"/>
<path d="M19.7121 5.52173L16.9453 7.97026L17.7698 8.51975L19.7121 5.52173Z" fill="#67686B"/>
<path d="M25.7056 6.83988L25.7784 9.53459L27.1554 8.74112L28.1726 8.15426L22.6582 5.21777L24.3628 7.5762L25.7056 6.83988Z" fill="#E2E3E4"/>
<path d="M25.7783 9.53467L27.1553 8.74121L25.7783 9.53467Z" fill="#757679"/>
<path d="M28.1735 8.15479L27.1562 8.74325L28.1735 8.15479Z" fill="#AFB1B4"/>
<path d="M27.1553 8.74165L25.7783 9.53512L28.1725 8.15479L27.1553 8.74165Z" fill="#797A7D"/>
<path d="M25.707 6.83984L24.3643 7.57617L25.0453 8.51911L25.707 6.83984Z" fill="#CBCCCE"/>
<path d="M25.2882 8.85743L25.7786 9.53439L25.2646 8.82227L25.2882 8.85743Z" fill="#8A8C8E"/>
<path d="M25.2648 8.82252L25.7787 9.5347L25.2412 8.79175L25.2648 8.82252Z" fill="#636466"/>
<path d="M25.0439 8.5191L25.241 8.79165L25.7785 9.53457L25.7057 6.83984L25.0439 8.5191Z" fill="#C2C4C6"/>
<path d="M15.0131 11.2205C16.2359 11.1084 18.5466 10.8777 20.8208 10.5611L18.7372 9.17642L17.7671 8.53241L16.9405 7.98071L14.4756 10.8864L14.7583 11.2447L15.0131 11.2205Z" fill="#8A8C8E"/>
<path d="M14.1482 11.2984H14.1656V11.2605L14.1309 11.3007H14.1504L14.1482 11.2984Z" fill="#B1B3B6"/>
<path d="M14.2168 11.2913H14.2789H14.3667H14.463H14.4952L14.2061 11.3155L14.2168 11.2913Z" fill="#DEDFE0"/>
<path d="M18.7393 9.16333L20.8229 10.548L18.7393 9.16333Z" fill="#48484A"/>
<path d="M18.7393 9.16333L20.8229 10.548L18.7393 9.16333Z" fill="#D5D7D8"/>
<path d="M17.7695 8.51904L18.7396 9.16481L17.7695 8.51904Z" fill="#363436"/>
<path d="M17.7695 8.51904L18.7396 9.16481L17.7695 8.51904Z" fill="#C9CACC"/>
<path d="M16.9453 7.96997L17.7698 8.52097L16.9453 7.96997Z" fill="#C4C6C8"/>
<path d="M17.7698 8.52097L16.9453 7.96997L17.7698 8.52097Z" fill="#737577"/>
<path d="M24.0398 9.98975L24.1661 9.96338H24.1983L24.4638 9.90183H24.4981L24.6137 9.87326H24.6266L24.7529 9.84249H24.7829L24.8878 9.81611H24.9092L25.0292 9.78534H25.057L25.1534 9.76116H25.1812L25.2926 9.73039H25.3161L25.4082 9.70401H25.436L25.5431 9.67324H25.5581L25.6502 9.64247H25.678L25.7787 9.6117L23.5794 9.22705L20.8232 10.5458L21.1745 10.4953L21.5257 10.4403L21.6991 10.414L22.0396 10.359H22.0503L22.3801 10.3041H22.3994L22.7206 10.2469H22.742L23.0547 10.192H23.0782L23.2196 10.1656H23.2324L23.3845 10.137H23.4059L23.5387 10.1128H23.5601L23.7057 10.0821H23.725L23.8513 10.0579H23.8792L24.0205 10.0271L24.0398 9.98975Z" fill="#656668"/>
<path d="M25.0439 8.51904L23.5791 9.22242L25.7784 9.53454L25.288 8.85754L25.0439 8.51904Z" fill="#696A6D"/>
<path d="M25.0439 8.51904L25.2881 8.85846L25.2645 8.82319L25.0439 8.51904Z" fill="#DADBDC"/>
<path d="M25.0439 8.51904L25.2645 8.82319L25.241 8.79234L25.0439 8.51904Z" fill="#7D7E81"/>
<path d="M25.241 8.79234L25.0439 8.51904L25.241 8.79234Z" fill="#848689"/>
<path d="M23.5793 9.22294L25.0441 8.51959L22.7677 9.39438L24.3631 7.57666L23.211 8.54596L23.1361 8.60971L22.6371 9.02732L20.8232 10.5483L23.5793 9.22294Z" fill="#D8D9DA"/>
<path d="M25.0439 8.51904L23.5791 9.22241L25.0439 8.51904Z" fill="#E4E5E6"/>
<path d="M25.044 8.51959L24.363 7.57666L22.7676 9.39438L25.044 8.51959Z" fill="#B6B8BA"/>
<path d="M25.0453 8.51957L24.3643 7.57666L25.0453 8.51957Z" fill="#656668"/>
<path d="M25.0453 8.51957L24.3643 7.57666L25.0453 8.51957Z" fill="#4F4F51"/>
<path d="M22.6357 9.02688L22.6486 6.77394L24.3618 7.57621L22.6572 5.21777L22.6357 9.02688Z" fill="#58595B"/>
<path d="M24.3628 7.5762L22.6582 5.21777L24.3628 7.5762Z" fill="#464547"/>
<path d="M23.808 8.04407L24.3626 7.57592L22.6494 6.77368L23.9643 7.9122L23.808 8.04407Z" fill="#95979A"/>
<path d="M22.6486 6.77368L22.6357 9.02664L23.1347 8.60902L22.6486 6.77368Z" fill="#E9E9EA"/>
<path d="M23.1347 8.60962L22.6357 9.02838L23.1347 8.60962Z" fill="#5A5B5D"/>
<path d="M23.8074 8.04484L23.21 8.54599L24.3621 7.57666L23.8074 8.04484Z" fill="#9D9FA2"/>
<path d="M21.8019 7.7063L20.8232 10.5483L22.6371 7.88434L21.8019 7.7063Z" fill="#616264"/>
<path d="M23.1357 8.60951L23.2106 8.54565L23.1357 8.60951Z" fill="#3B3B3C"/>
<path d="M23.808 8.04411L23.9643 7.91223L22.6494 6.77368L23.1355 8.60899L23.808 8.04411Z" fill="#414042"/>
<path d="M23.1357 8.61086L23.2107 8.54694L23.8082 8.04443L23.1357 8.61086Z" fill="#E4E5E6"/>
<path d="M20.123 1.83775L21.6092 0.804688L14.1289 3.20271L20.123 1.83775Z" fill="#919396"/>
<path d="M22.3073 1.98901L14.1289 3.20228H17.8958L22.3073 1.98901Z" fill="#A1A3A6"/>
<path d="M22.3074 1.98944L21.6092 0.804688L20.123 1.83778L22.3074 1.98944Z" fill="#AFB1B4"/>
<path d="M20.123 1.83716L14.1289 3.2021L22.3073 1.98882L20.123 1.83716Z" fill="#95979A"/>
<path d="M14.1289 10.4468L14.1632 11.2578L14.4758 10.8886L14.1289 10.4468Z" fill="#97999C"/>
<path d="M14.186 11.2944H14.2052L14.4943 11.2701H14.535H14.5757H14.6443H14.7321L14.4494 10.9109L14.1367 11.2834V11.3208L14.186 11.2944Z" fill="#656668"/>
<g style="mix-blend-mode:color-burn">
<path d="M28.0987 7.22477L28.0773 6.97639L28.0088 6.11918L24.8522 3.07058L21.61 0.804459L17.0614 0H14.1297H11.198L6.64944 0.804459L3.40721 3.07058L0.252786 6.11918L0.182117 6.97639L0.162843 7.22477L0.0878906 8.15451L0.863113 8.80292L1.56552 9.39417L7.43537 14.3111L7.85297 14.6605L9.51905 16.0563L14.1297 19.9181L18.7403 16.0563L20.2972 14.7529L20.824 14.3111L26.6939 9.39417L27.3984 8.80292L28.1736 8.15451L28.0987 7.22477Z" fill="#FFDD15"/>
</g>
<g style="mix-blend-mode:soft-light">
<path d="M28.0987 7.22477L28.0773 6.97639L28.0088 6.11918L24.8522 3.07058L21.61 0.804459L17.0614 0H14.1297H11.198L6.64944 0.804459L3.40721 3.07058L0.252786 6.11918L0.182117 6.97639L0.162843 7.22477L0.0878906 8.15451L0.863113 8.80292L1.56552 9.39417L7.43537 14.3111L7.85297 14.6605L9.51905 16.0563L14.1297 19.9181L18.7403 16.0563L20.2972 14.7529L20.824 14.3111L26.6939 9.39417L27.3984 8.80292L28.1736 8.15451L28.0987 7.22477Z" fill="#FFDD15"/>
</g>
<path style="mix-blend-mode:screen" opacity="0.54" d="M21.609 0.804454L17.0604 0H14.1287H11.197L6.64844 0.804454L8.13464 1.8375L14.1287 3.20244L20.1228 1.8375L21.609 0.804454Z" fill="url(#paint0_linear)"/>
<defs>
<linearGradient id="paint0_linear" x1="688.549" y1="599.849" x2="1733.69" y2="599.849" gradientUnits="userSpaceOnUse">
<stop offset="0.19"/>
<stop offset="0.37" stop-color="#494949"/>
<stop offset="0.54" stop-color="#8A8A8A"/>
<stop offset="0.69" stop-color="#BCBCBC"/>
<stop offset="0.82" stop-color="#E1E1E1"/>
<stop offset="0.93" stop-color="#F7F7F7"/>
<stop offset="1" stop-color="white"/>
</linearGradient>
</defs>
</svg>
