<svg width="16" height="16" viewBox="0 0 16 16" fill="none" xmlns="http://www.w3.org/2000/svg">
<path d="M15.2812 7.99683C15.2812 7.99058 15.2812 7.9812 15.2812 7.97495C15.2812 7.92495 15.2812 7.87495 15.2781 7.82808C15.2781 7.79995 15.275 7.77183 15.275 7.74058C15.275 7.71245 15.2718 7.68433 15.2718 7.6562C15.2687 7.62183 15.2687 7.58745 15.2656 7.55308C15.2656 7.5312 15.2625 7.50933 15.2625 7.48745C15.2593 7.44995 15.2562 7.41245 15.2531 7.37495C15.2531 7.35933 15.25 7.34058 15.25 7.32495C15.2468 7.28433 15.2406 7.2437 15.2375 7.19995C15.2375 7.19058 15.2343 7.17808 15.2343 7.1687C14.8218 3.53745 11.7406 0.715576 7.99997 0.715576C4.25934 0.715576 1.17809 3.53745 0.765594 7.17183C0.765594 7.1812 0.762469 7.1937 0.762469 7.20308C0.759344 7.2437 0.753094 7.28433 0.749969 7.32808C0.746844 7.3437 0.746844 7.36245 0.746844 7.37808C0.743719 7.41558 0.740594 7.45308 0.737469 7.49058C0.737469 7.51245 0.734344 7.53433 0.734344 7.5562C0.731219 7.59058 0.731219 7.62495 0.728094 7.65933C0.728094 7.68745 0.72497 7.71558 0.72497 7.7437C0.72497 7.77183 0.721844 7.79995 0.721844 7.8312C0.721844 7.8812 0.718719 7.9312 0.718719 7.97808C0.718719 7.98433 0.718719 7.9937 0.718719 7.99995C0.718719 7.99995 0.718719 7.99995 0.718719 8.00308C0.718719 8.0062 0.718719 8.00308 0.718719 8.0062C0.718719 8.01245 0.718719 8.02183 0.718719 8.02808C0.718719 8.07808 0.718719 8.12808 0.721844 8.17495C0.721844 8.20308 0.72497 8.2312 0.72497 8.26245C0.72497 8.29058 0.728094 8.3187 0.728094 8.34683C0.731219 8.3812 0.731219 8.41558 0.734344 8.44995C0.734344 8.47183 0.737469 8.4937 0.737469 8.51558C0.740594 8.55308 0.743719 8.59058 0.746844 8.62808C0.746844 8.6437 0.749969 8.66245 0.749969 8.67808C0.753094 8.7187 0.759344 8.75933 0.762469 8.80308C0.762469 8.81245 0.765594 8.82495 0.765594 8.83433C1.17809 12.4625 4.25934 15.2843 7.99997 15.2843C11.7406 15.2843 14.8218 12.4625 15.2343 8.8312C15.2343 8.82183 15.2375 8.80933 15.2375 8.79995C15.2406 8.75933 15.2468 8.7187 15.25 8.67495C15.2531 8.65933 15.2531 8.64058 15.2531 8.62495C15.2562 8.58745 15.2593 8.54995 15.2625 8.51245C15.2625 8.49058 15.2656 8.4687 15.2656 8.44683C15.2687 8.41245 15.2687 8.37808 15.2718 8.3437C15.2718 8.31558 15.275 8.28745 15.275 8.25933C15.275 8.2312 15.2781 8.20308 15.2781 8.17183C15.2781 8.12183 15.2812 8.07183 15.2812 8.02495C15.2812 8.0187 15.2812 8.00933 15.2812 8.00308C15.2812 7.99995 15.2812 7.99995 15.2812 7.99683C15.2812 7.99995 15.2812 7.99995 15.2812 7.99683Z" fill="#CF1B22"/>
<path d="M11.5531 5.8811L6.97651 10.4577L4.83438 8.31557" stroke="white" stroke-width="0.9375" stroke-miterlimit="10" stroke-linecap="round" stroke-linejoin="round"/>
</svg>
